<mxfile host="app.diagrams.net" modified="2023-12-17T20:02:47.826Z" agent="Mozilla/5.0 (Windows NT 10.0; Win64; x64) AppleWebKit/537.36 (KHTML, like Gecko) Chrome/118.0.5993.771 YaBrowser/23.11.2.771 Yowser/2.5 Safari/537.36" etag="P4LyACqFilovq9brUuSb" version="22.1.11" type="github">
  <diagram name="Page-1" id="80d4a630-b321-0f5e-ff81-c5a36ef4752d">
    <mxGraphModel dx="3190" dy="583" grid="0" gridSize="10" guides="0" tooltips="0" connect="0" arrows="0" fold="1" page="0" pageScale="1" pageWidth="1100" pageHeight="850" background="none" math="0" shadow="0">
      <root>
        <mxCell id="0" />
        <mxCell id="1" parent="0" />
        <mxCell id="n8mmKqbnI36Tv_IBKcBF-78" value="" style="fontColor=#0066CC;verticalAlign=top;verticalLabelPosition=bottom;labelPosition=center;align=center;html=1;outlineConnect=0;fillColor=#CCCCCC;strokeColor=#6881B3;gradientColor=none;gradientDirection=north;strokeWidth=2;shape=mxgraph.networks.satellite_dish;rotation=-90;" parent="1" vertex="1">
          <mxGeometry x="2260" y="1490" width="99" height="110" as="geometry" />
        </mxCell>
        <mxCell id="n8mmKqbnI36Tv_IBKcBF-1" value="&lt;b&gt;&lt;font style=&quot;font-size: 36px;&quot;&gt;Москва&lt;/font&gt;&lt;/b&gt;" style="ellipse;whiteSpace=wrap;html=1;rounded=1;shadow=0;comic=0;labelBackgroundColor=none;strokeColor=#6881B3;strokeWidth=2;fillColor=#CCFFCC;fontFamily=Helvetica;fontSize=22;fontColor=#000000;verticalAlign=middle;gradientColor=none;gradientDirection=north;spacingBottom=17;" parent="1" vertex="1">
          <mxGeometry x="1027.5" y="1575" width="850.5" height="350" as="geometry" />
        </mxCell>
        <mxCell id="n8mmKqbnI36Tv_IBKcBF-2" value="&lt;b&gt;&lt;font style=&quot;font-size: 36px;&quot;&gt;Тверь&lt;/font&gt;&lt;/b&gt;" style="ellipse;whiteSpace=wrap;html=1;rounded=1;shadow=0;comic=0;labelBackgroundColor=none;strokeColor=#6881B3;strokeWidth=2;fillColor=#CCFFCC;fontFamily=Helvetica;fontSize=22;fontColor=#000000;verticalAlign=middle;gradientColor=none;gradientDirection=north;spacingBottom=17;" parent="1" vertex="1">
          <mxGeometry x="440" y="1080" width="683" height="270" as="geometry" />
        </mxCell>
        <mxCell id="n8mmKqbnI36Tv_IBKcBF-3" value="&lt;b&gt;&lt;font style=&quot;font-size: 36px;&quot;&gt;Новосибирск&lt;/font&gt;&lt;/b&gt;" style="ellipse;whiteSpace=wrap;html=1;rounded=1;shadow=0;comic=0;labelBackgroundColor=none;strokeColor=#6881B3;strokeWidth=2;fillColor=#CCFFCC;fontFamily=Helvetica;fontSize=22;fontColor=#000000;verticalAlign=middle;gradientColor=none;gradientDirection=north;spacingBottom=17;" parent="1" vertex="1">
          <mxGeometry x="2130" y="1590" width="683" height="270" as="geometry" />
        </mxCell>
        <mxCell id="n8mmKqbnI36Tv_IBKcBF-6" value="&lt;b&gt;&lt;font style=&quot;font-size: 36px;&quot;&gt;Брянск&lt;/font&gt;&lt;/b&gt;" style="ellipse;whiteSpace=wrap;html=1;rounded=1;shadow=0;comic=0;labelBackgroundColor=none;strokeColor=#6881B3;strokeWidth=2;fillColor=#CCFFCC;fontFamily=Helvetica;fontSize=22;fontColor=#000000;verticalAlign=middle;gradientColor=none;gradientDirection=north;spacingBottom=17;" parent="1" vertex="1">
          <mxGeometry x="90.5" y="2010" width="683" height="270" as="geometry" />
        </mxCell>
        <mxCell id="n8mmKqbnI36Tv_IBKcBF-7" value="&#xa;&lt;span style=&quot;color: rgba(0, 0, 0, 0); font-family: monospace; font-size: 0px; font-style: normal; font-variant-ligatures: normal; font-variant-caps: normal; font-weight: 400; letter-spacing: normal; orphans: 2; text-align: start; text-indent: 0px; text-transform: none; widows: 2; word-spacing: 0px; -webkit-text-stroke-width: 0px; background-color: rgb(251, 251, 251); text-decoration-thickness: initial; text-decoration-style: initial; text-decoration-color: initial; float: none; display: inline !important;&quot;&gt;%3CmxGraphModel%3E%3Croot%3E%3CmxCell%20id%3D%220%22%2F%3E%3CmxCell%20id%3D%221%22%20parent%3D%220%22%2F%3E%3CmxCell%20id%3D%222%22%20value%3D%22%22%20style%3D%22fontColor%3D%230066CC%3BverticalAlign%3Dtop%3BverticalLabelPosition%3Dbottom%3BlabelPosition%3Dcenter%3Balign%3Dcenter%3Bhtml%3D1%3BfillColor%3D%23CCCCCC%3BstrokeColor%3D%23000000%3BgradientColor%3Dnone%3BgradientDirection%3Dnorth%3BstrokeWidth%3D2%3Bshape%3Dmxgraph.сетях. сообщество%3Brounded%3D1%3Bshadow%3D0%3Bcomic%3D0%3BlabelBackground%3Dnone%3B%22%20vertex%3D%221%22%20parent%3D%221%22%3E%3CmxGeometry%20x%3D%221630%22%20y%3D%221650%22%20width%3D%2295%22%20height%3D%22100%22%20as%3D%22geometry%22%2F%3E%3C%2FmxCell%3E%3C%2Froot%3E" style="fontColor=#0066CC;verticalAlign=top;verticalLabelPosition=bottom;labelPosition=center;align=center;html=1;fillColor=#CCCCCC;strokeColor=#000000;gradientColor=none;gradientDirection=north;strokeWidth=2;shape=mxgraph.networks.community;rounded=1;shadow=0;comic=0;labelBackgroundColor=none;" parent="1" vertex="1">
          <mxGeometry x="966" y="1120" width="95" height="100" as="geometry" />
        </mxCell>
        <mxCell id="n8mmKqbnI36Tv_IBKcBF-8" value="&#xa;&lt;span style=&quot;color: rgba(0, 0, 0, 0); font-family: monospace; font-size: 0px; font-style: normal; font-variant-ligatures: normal; font-variant-caps: normal; font-weight: 400; letter-spacing: normal; orphans: 2; text-align: start; text-indent: 0px; text-transform: none; widows: 2; word-spacing: 0px; -webkit-text-stroke-width: 0px; background-color: rgb(251, 251, 251); text-decoration-thickness: initial; text-decoration-style: initial; text-decoration-color: initial; float: none; display: inline !important;&quot;&gt;%3CmxGraphModel%3E%3Croot%3E%3CmxCell%20id%3D%220%22%2F%3E%3CmxCell%20id%3D%221%22%20parent%3D%220%22%2F%3E%3CmxCell%20id%3D%222%22%20value%3D%22%26%2310%3B%26lt%3Bspan%20style%3D%26quot%3Bcolor%3Aa %20rgba(0%2C%200%2C%200%2C%200)%3B%20font-family%3A%20monospace%3B%20font-size%3A%200px%3B%20font-style%3A%20normal%3B%20font-variant-ligatures%3A%20normal%3B%20font-variant-caps%3A%20normal%3B%20font-weight%3A%20400%3B%20letter-spacing%3A% 20normal%3B%20orphans%3A%202%3B%20text-align%3A%20start%3B%20text-indent%3A%200px%3B%20text-transform%3A%20none%3B%20widows%3A%202%3B%20word-spacing%3A%200px%3B%20-webkit-text-stroke-width%3A%200px%3B%20background-color%3A%20rgb(251%2C%20251%2C%20251)%3B%20text-decoration-thickness%3A%20initial%3B%20text-decoration-style%3A%20initial%3B%20text-decoration-color%3A%20initial%3B%20float%3A%20none%3B%20display%3A%20inline%20! important%3B%26quot%3B%26gt%3B%253CmxGraphModel%253E%253Croot%253E%253CmxCell%2520id%253D%25220%2522%252F%253E%253CmxCell%2520id%253D%25221%2522%2520parent%253D%25220%2522%252F%253E%253CmxCell%2520 id%253D%25222%2522%2520value%253D%2522%2522%2520style%253D%2522fontColor%253D%25230066CC%253BverticalAlign%253Dtop%253BverticalLabelPosition%253Dbottom%253BlabelPosition%253Dcenter%253Balign%253Dcenter%253Bhtml%253D1%253BfillColor%253D%2523CCCCCC% 253BstrokeColor%253D%2523000000%253BgradientColor%253Dnone%253BgradientDirection%253Dnorth%253BstrokeWidth%253D2%253Bshape%253Dmxgraph.%D1%81%D0%B5%D1%82%D1%8F%D1%85. %20%D1%81%D0%BE%D0%BE%D0%B1%D1%89%D0%B5%D1%81%D1%82%D0%B2%D0%BE%253Brounded%253D1%253Bshadow%253D0%253Bcomic%253D0%253BlabelBackground%253Dnone%253B%2522%2520vertex%253D%25221%2522%2520parent%253D%25221%2522%253%253E%2520 CmxGeometry%253x%25221630D%2522%2520%253y%25221650D%2522%2520%253width%252295D%2522%2520%253height%2522100D%2522%2520%253as%2522D%2522geometry%252%253F%253E%252C%253FmxCell%253E%252C%253Froot%22E%20%3style%22D%3fontColor%230066D% 3CC%3BverticalAlign%3Dtop%3BverticalLabelPosition%3Dbottom%3BlabelPosition%3Dcenter%3Balign%3Dcenter%3Bhtml%1D3%3BfillColor%23D%3CCCCCC%3BstrokeColor%23000000D%3%3BgradientColor%3Dnone%3BgradientDirection%3Dnorth%3BstrokeWidth%2D3%3Bshape%3Dmxgraph.networks. сообщество%3Brounded%1D3%3Bshadow%0D3%3Bcomic%0D3%3BlabelBackground%3Dnone%22B%20%3vertex%221D%22%20%3parent%221D%22%3%3E%20CmxGeometry%3x%221569D%22%20%3y%221705D%22%20%3width%2295D%22%20%3height%22100D%22%20%3as%22D%22geometry%2%3F%3E%2C%3FmxCell%3E%2C%3Froot%3E%2FmxGraphModel%3E" style="fontColor=#0066CC;verticalAlign=top;verticalLabelPosition=bottom;labelPosition=center;align=center;html=1;fillColor=#CCCCCC;strokeColor=#000000;gradientColor=none;gradientDirection=north;strokeWidth=2;shape=mxgraph.networks.community;rounded=1;shadow=0;comic=0;labelBackgroundColor=none;" parent="1" vertex="1">
          <mxGeometry x="1719" y="1675" width="95" height="100" as="geometry" />
        </mxCell>
        <mxCell id="n8mmKqbnI36Tv_IBKcBF-11" value="&#xa;&lt;span style=&quot;color: rgba(0, 0, 0, 0); font-family: monospace; font-size: 0px; font-style: normal; font-variant-ligatures: normal; font-variant-caps: normal; font-weight: 400; letter-spacing: normal; orphans: 2; text-align: start; text-indent: 0px; text-transform: none; widows: 2; word-spacing: 0px; -webkit-text-stroke-width: 0px; background-color: rgb(251, 251, 251); text-decoration-thickness: initial; text-decoration-style: initial; text-decoration-color: initial; float: none; display: inline !important;&quot;&gt;%3CmxGraphModel%3E%3Croot%3E%3CmxCell%20id%3D%220%22%2F%3E%3CmxCell%20id%3D%221%22%20parent%3D%220%22%2F%3E%3CmxCell%20id%3D%222%22%20value%3D%22%22%20style%3D%22fontColor%3D%230066CC%3BverticalAlign%3Dtop%3BverticalLabelPosition%3Dbottom%3BlabelPosition%3Dcenter%3Balign%3Dcenter%3Bhtml%3D1%3BfillColor%3D%23CCCCCC%3BstrokeColor%3D%23000000%3BgradientColor%3Dnone%3BgradientDirection%3Dnorth%3BstrokeWidth%3D2%3Bshape%3Dmxgraph.сетях. business_center%3Brounded%3D1%3Bshadow%3D0%3Bcomic%3D0%3BlabelBackgroundColor%3Dnone%3B%22%20vertex%3D%221%22%20parent%3D%221%22%3E%3CmxGeometry%20x%3D%221341%22%20y%3D%221560%22%20width%3D%2290%22%20height%3D%22100%22%20as%3D%22geometry%22%2F%3E%3C%2FmxCell%3E%3C%2Froot%3E" style="fontColor=#0066CC;verticalAlign=top;verticalLabelPosition=bottom;labelPosition=center;align=center;html=1;fillColor=#CCCCCC;strokeColor=#000000;gradientColor=none;gradientDirection=north;strokeWidth=2;shape=mxgraph.networks.business_center;rounded=1;shadow=0;comic=0;labelBackgroundColor=none;" parent="1" vertex="1">
          <mxGeometry x="1341" y="1560" width="90" height="100" as="geometry" />
        </mxCell>
        <mxCell id="n8mmKqbnI36Tv_IBKcBF-15" value="&#xa;&lt;span style=&quot;color: rgba(0, 0, 0, 0); font-family: monospace; font-size: 0px; font-style: normal; font-variant-ligatures: normal; font-variant-caps: normal; font-weight: 400; letter-spacing: normal; orphans: 2; text-align: start; text-indent: 0px; text-transform: none; widows: 2; word-spacing: 0px; -webkit-text-stroke-width: 0px; background-color: rgb(251, 251, 251); text-decoration-thickness: initial; text-decoration-style: initial; text-decoration-color: initial; float: none; display: inline !important;&quot;&gt;%3CmxGraphModel%3E%3Croot%3E%3CmxCell%20id%3D%220%22%2F%3E%3CmxCell%20id%3D%221%22%20parent%3D%220%22%2F%3E%3CmxCell%20id%3D%222%22%20value%3D%22%26%2310%3B%26lt%3Bspan%20style%3D%26quot%3Bcolor%3Aa %20rgba(0%2C%200%2C%200%2C%200)%3B%20font-family%3A%20monospace%3B%20font-size%3A%200px%3B%20font-style%3A%20normal%3B%20font-variant-ligatures%3A%20normal%3B%20font-variant-caps%3A%20normal%3B%20font-weight%3A%20400%3B%20letter-spacing%3A% 20normal%3B%20orphans%3A%202%3B%20text-align%3A%20start%3B%20text-indent%3A%200px%3B%20text-transform%3A%20none%3B%20widows%3A%202%3B%20word-spacing%3A%200px%3B%20-webkit-text-stroke-width%3A%200px%3B%20background-color%3A%20rgb(251%2C%20251%2C%20251)%3B%20text-decoration-thickness%3A%20initial%3B%20text-decoration-style%3A%20initial%3B%20text-decoration-color%3A%20initial%3B%20float%3A%20none%3B%20display%3A%20inline%20! important%3B%26quot%3B%26gt%3B%253CmxGraphModel%253E%253Croot%253E%253CmxCell%2520id%253D%25220%2522%252F%253E%253CmxCell%2520id%253D%25221%2522%2520parent%253D%25220%2522%252F%253E%253CmxCell%2520 id%253D%25222%2522%2520value%253D%2522%2522%2520style%253D%2522fontColor%253D%25230066CC%253BverticalAlign%253Dtop%253BverticalLabelPosition%253Dbottom%253BlabelPosition%253Dcenter%253Balign%253Dcenter%253Bhtml%253D1%253BfillColor%253D%2523CCCCCC% 253BstrokeColor%253D%2523000000%253BgradientColor%253Dnone%253BgradientDirection%253Dnorth%253BstrokeWidth%253D2%253Bshape%253Dmxgraph.%D1%81%D0%B5%D1%82%D1%8F%D1%85. %20%D1%81%D0%BE%D0%BE%D0%B1%D1%89%D0%B5%D1%81%D1%82%D0%B2%D0%BE%253Brounded%253D1%253Bshadow%253D0%253Bcomic%253D0%253BlabelBackground%253Dnone%253B%2522%2520vertex%253D%25221%2522%2520parent%253D%25221%2522%253%253E%2520 CmxGeometry%253x%25221630D%2522%2520%253y%25221650D%2522%2520%253width%252295D%2522%2520%253height%2522100D%2522%2520%253as%2522D%2522geometry%252%253F%253E%252C%253FmxCell%253E%252C%253Froot%22E%20%3style%22D%3fontColor%230066D% 3CC%3BverticalAlign%3Dtop%3BverticalLabelPosition%3Dbottom%3BlabelPosition%3Dcenter%3Balign%3Dcenter%3Bhtml%1D3%3BfillColor%23D%3CCCCCC%3BstrokeColor%23000000D%3%3BgradientColor%3Dnone%3BgradientDirection%3Dnorth%3BstrokeWidth%2D3%3Bshape%3Dmxgraph.networks. сообщество%3Brounded%1D3%3Bshadow%0D3%3Bcomic%0D3%3BlabelBackground%3Dnone%22B%20%3vertex%221D%22%20%3parent%221D%22%3%3E%20CmxGeometry%3x%221569D%22%20%3y%221705D%22%20%3width%2295D%22%20%3height%22100D%22%20%3as%22D%22geometry%2%3F%3E%2C%3FmxCell%3E%2C%3Froot%3E%2FmxGraphModel%3E" style="fontColor=#0066CC;verticalAlign=top;verticalLabelPosition=bottom;labelPosition=center;align=center;html=1;fillColor=#CCCCCC;strokeColor=#000000;gradientColor=none;gradientDirection=north;strokeWidth=2;shape=mxgraph.networks.community;rounded=1;shadow=0;comic=0;labelBackgroundColor=none;" parent="1" vertex="1">
          <mxGeometry x="1100" y="1690" width="95" height="100" as="geometry" />
        </mxCell>
        <mxCell id="n8mmKqbnI36Tv_IBKcBF-16" value="&#xa;&lt;span style=&quot;color: rgba(0, 0, 0, 0); font-family: monospace; font-size: 0px; font-style: normal; font-variant-ligatures: normal; font-variant-caps: normal; font-weight: 400; letter-spacing: normal; orphans: 2; text-align: start; text-indent: 0px; text-transform: none; widows: 2; word-spacing: 0px; -webkit-text-stroke-width: 0px; background-color: rgb(251, 251, 251); text-decoration-thickness: initial; text-decoration-style: initial; text-decoration-color: initial; float: none; display: inline !important;&quot;&gt;%3CmxGraphModel%3E%3Croot%3E%3CmxCell%20id%3D%220%22%2F%3E%3CmxCell%20id%3D%221%22%20parent%3D%220%22%2F%3E%3CmxCell%20id%3D%222%22%20value%3D%22%26%2310%3B%26lt%3Bspan%20style%3D%26quot%3Bcolor%3Aa %20rgba(0%2C%200%2C%200%2C%200)%3B%20font-family%3A%20monospace%3B%20font-size%3A%200px%3B%20font-style%3A%20normal%3B%20font-variant-ligatures%3A%20normal%3B%20font-variant-caps%3A%20normal%3B%20font-weight%3A%20400%3B%20letter-spacing%3A% 20normal%3B%20orphans%3A%202%3B%20text-align%3A%20start%3B%20text-indent%3A%200px%3B%20text-transform%3A%20none%3B%20widows%3A%202%3B%20word-spacing%3A%200px%3B%20-webkit-text-stroke-width%3A%200px%3B%20background-color%3A%20rgb(251%2C%20251%2C%20251)%3B%20text-decoration-thickness%3A%20initial%3B%20text-decoration-style%3A%20initial%3B%20text-decoration-color%3A%20initial%3B%20float%3A%20none%3B%20display%3A%20inline%20! important%3B%26quot%3B%26gt%3B%253CmxGraphModel%253E%253Croot%253E%253CmxCell%2520id%253D%25220%2522%252F%253E%253CmxCell%2520id%253D%25221%2522%2520parent%253D%25220%2522%252F%253E%253CmxCell%2520 id%253D%25222%2522%2520value%253D%2522%2522%2520style%253D%2522fontColor%253D%25230066CC%253BverticalAlign%253Dtop%253BverticalLabelPosition%253Dbottom%253BlabelPosition%253Dcenter%253Balign%253Dcenter%253Bhtml%253D1%253BfillColor%253D%2523CCCCCC% 253BstrokeColor%253D%2523000000%253BgradientColor%253Dnone%253BgradientDirection%253Dnorth%253BstrokeWidth%253D2%253Bshape%253Dmxgraph.%D1%81%D0%B5%D1%82%D1%8F%D1%85. %20%D1%81%D0%BE%D0%BE%D0%B1%D1%89%D0%B5%D1%81%D1%82%D0%B2%D0%BE%253Brounded%253D1%253Bshadow%253D0%253Bcomic%253D0%253BlabelBackground%253Dnone%253B%2522%2520vertex%253D%25221%2522%2520parent%253D%25221%2522%253%253E%2520 CmxGeometry%253x%25221630D%2522%2520%253y%25221650D%2522%2520%253width%252295D%2522%2520%253height%2522100D%2522%2520%253as%2522D%2522geometry%252%253F%253E%252C%253FmxCell%253E%252C%253Froot%22E%20%3style%22D%3fontColor%230066D% 3CC%3BverticalAlign%3Dtop%3BverticalLabelPosition%3Dbottom%3BlabelPosition%3Dcenter%3Balign%3Dcenter%3Bhtml%1D3%3BfillColor%23D%3CCCCCC%3BstrokeColor%23000000D%3%3BgradientColor%3Dnone%3BgradientDirection%3Dnorth%3BstrokeWidth%2D3%3Bshape%3Dmxgraph.networks. сообщество%3Brounded%1D3%3Bshadow%0D3%3Bcomic%0D3%3BlabelBackground%3Dnone%22B%20%3vertex%221D%22%20%3parent%221D%22%3%3E%20CmxGeometry%3x%221569D%22%20%3y%221705D%22%20%3width%2295D%22%20%3height%22100D%22%20%3as%22D%22geometry%2%3F%3E%2C%3FmxCell%3E%2C%3Froot%3E%2FmxGraphModel%3E" style="fontColor=#0066CC;verticalAlign=top;verticalLabelPosition=bottom;labelPosition=center;align=center;html=1;fillColor=#CCCCCC;strokeColor=#000000;gradientColor=none;gradientDirection=north;strokeWidth=2;shape=mxgraph.networks.community;rounded=1;shadow=0;comic=0;labelBackgroundColor=none;" parent="1" vertex="1">
          <mxGeometry x="2630" y="1700" width="95" height="100" as="geometry" />
        </mxCell>
        <mxCell id="n8mmKqbnI36Tv_IBKcBF-17" value="&#xa;&lt;span style=&quot;color: rgba(0, 0, 0, 0); font-family: monospace; font-size: 0px; font-style: normal; font-variant-ligatures: normal; font-variant-caps: normal; font-weight: 400; letter-spacing: normal; orphans: 2; text-align: start; text-indent: 0px; text-transform: none; widows: 2; word-spacing: 0px; -webkit-text-stroke-width: 0px; background-color: rgb(251, 251, 251); text-decoration-thickness: initial; text-decoration-style: initial; text-decoration-color: initial; float: none; display: inline !important;&quot;&gt;%3CmxGraphModel%3E%3Croot%3E%3CmxCell%20id%3D%220%22%2F%3E%3CmxCell%20id%3D%221%22%20parent%3D%220%22%2F%3E%3CmxCell%20id%3D%222%22%20value%3D%22%26%2310%3B%26lt%3Bspan%20style%3D%26quot%3Bcolor%3Aa %20rgba(0%2C%200%2C%200%2C%200)%3B%20font-family%3A%20monospace%3B%20font-size%3A%200px%3B%20font-style%3A%20normal%3B%20font-variant-ligatures%3A%20normal%3B%20font-variant-caps%3A%20normal%3B%20font-weight%3A%20400%3B%20letter-spacing%3A% 20normal%3B%20orphans%3A%202%3B%20text-align%3A%20start%3B%20text-indent%3A%200px%3B%20text-transform%3A%20none%3B%20widows%3A%202%3B%20word-spacing%3A%200px%3B%20-webkit-text-stroke-width%3A%200px%3B%20background-color%3A%20rgb(251%2C%20251%2C%20251)%3B%20text-decoration-thickness%3A%20initial%3B%20text-decoration-style%3A%20initial%3B%20text-decoration-color%3A%20initial%3B%20float%3A%20none%3B%20display%3A%20inline%20! important%3B%26quot%3B%26gt%3B%253CmxGraphModel%253E%253Croot%253E%253CmxCell%2520id%253D%25220%2522%252F%253E%253CmxCell%2520id%253D%25221%2522%2520parent%253D%25220%2522%252F%253E%253CmxCell%2520 id%253D%25222%2522%2520value%253D%2522%2522%2520style%253D%2522fontColor%253D%25230066CC%253BverticalAlign%253Dtop%253BverticalLabelPosition%253Dbottom%253BlabelPosition%253Dcenter%253Balign%253Dcenter%253Bhtml%253D1%253BfillColor%253D%2523CCCCCC% 253BstrokeColor%253D%2523000000%253BgradientColor%253Dnone%253BgradientDirection%253Dnorth%253BstrokeWidth%253D2%253Bshape%253Dmxgraph.%D1%81%D0%B5%D1%82%D1%8F%D1%85. %20%D1%81%D0%BE%D0%BE%D0%B1%D1%89%D0%B5%D1%81%D1%82%D0%B2%D0%BE%253Brounded%253D1%253Bshadow%253D0%253Bcomic%253D0%253BlabelBackground%253Dnone%253B%2522%2520vertex%253D%25221%2522%2520parent%253D%25221%2522%253%253E%2520 CmxGeometry%253x%25221630D%2522%2520%253y%25221650D%2522%2520%253width%252295D%2522%2520%253height%2522100D%2522%2520%253as%2522D%2522geometry%252%253F%253E%252C%253FmxCell%253E%252C%253Froot%22E%20%3style%22D%3fontColor%230066D% 3CC%3BverticalAlign%3Dtop%3BverticalLabelPosition%3Dbottom%3BlabelPosition%3Dcenter%3Balign%3Dcenter%3Bhtml%1D3%3BfillColor%23D%3CCCCCC%3BstrokeColor%23000000D%3%3BgradientColor%3Dnone%3BgradientDirection%3Dnorth%3BstrokeWidth%2D3%3Bshape%3Dmxgraph.networks. сообщество%3Brounded%1D3%3Bshadow%0D3%3Bcomic%0D3%3BlabelBackground%3Dnone%22B%20%3vertex%221D%22%20%3parent%221D%22%3%3E%20CmxGeometry%3x%221569D%22%20%3y%221705D%22%20%3width%2295D%22%20%3height%22100D%22%20%3as%22D%22geometry%2%3F%3E%2C%3FmxCell%3E%2C%3Froot%3E%2FmxGraphModel%3E" style="fontColor=#0066CC;verticalAlign=top;verticalLabelPosition=bottom;labelPosition=center;align=center;html=1;fillColor=#CCCCCC;strokeColor=#000000;gradientColor=none;gradientDirection=north;strokeWidth=2;shape=mxgraph.networks.community;rounded=1;shadow=0;comic=0;labelBackgroundColor=none;" parent="1" vertex="1">
          <mxGeometry x="2380" y="1560" width="95" height="100" as="geometry" />
        </mxCell>
        <mxCell id="n8mmKqbnI36Tv_IBKcBF-18" value="&#xa;&lt;span style=&quot;color: rgba(0, 0, 0, 0); font-family: monospace; font-size: 0px; font-style: normal; font-variant-ligatures: normal; font-variant-caps: normal; font-weight: 400; letter-spacing: normal; orphans: 2; text-align: start; text-indent: 0px; text-transform: none; widows: 2; word-spacing: 0px; -webkit-text-stroke-width: 0px; background-color: rgb(251, 251, 251); text-decoration-thickness: initial; text-decoration-style: initial; text-decoration-color: initial; float: none; display: inline !important;&quot;&gt;%3CmxGraphModel%3E%3Croot%3E%3CmxCell%20id%3D%220%22%2F%3E%3CmxCell%20id%3D%221%22%20parent%3D%220%22%2F%3E%3CmxCell%20id%3D%222%22%20value%3D%22%26%2310%3B%26lt%3Bspan%20style%3D%26quot%3Bcolor%3Aa %20rgba(0%2C%200%2C%200%2C%200)%3B%20font-family%3A%20monospace%3B%20font-size%3A%200px%3B%20font-style%3A%20normal%3B%20font-variant-ligatures%3A%20normal%3B%20font-variant-caps%3A%20normal%3B%20font-weight%3A%20400%3B%20letter-spacing%3A% 20normal%3B%20orphans%3A%202%3B%20text-align%3A%20start%3B%20text-indent%3A%200px%3B%20text-transform%3A%20none%3B%20widows%3A%202%3B%20word-spacing%3A%200px%3B%20-webkit-text-stroke-width%3A%200px%3B%20background-color%3A%20rgb(251%2C%20251%2C%20251)%3B%20text-decoration-thickness%3A%20initial%3B%20text-decoration-style%3A%20initial%3B%20text-decoration-color%3A%20initial%3B%20float%3A%20none%3B%20display%3A%20inline%20! important%3B%26quot%3B%26gt%3B%253CmxGraphModel%253E%253Croot%253E%253CmxCell%2520id%253D%25220%2522%252F%253E%253CmxCell%2520id%253D%25221%2522%2520parent%253D%25220%2522%252F%253E%253CmxCell%2520 id%253D%25222%2522%2520value%253D%2522%2522%2520style%253D%2522fontColor%253D%25230066CC%253BverticalAlign%253Dtop%253BverticalLabelPosition%253Dbottom%253BlabelPosition%253Dcenter%253Balign%253Dcenter%253Bhtml%253D1%253BfillColor%253D%2523CCCCCC% 253BstrokeColor%253D%2523000000%253BgradientColor%253Dnone%253BgradientDirection%253Dnorth%253BstrokeWidth%253D2%253Bshape%253Dmxgraph.%D1%81%D0%B5%D1%82%D1%8F%D1%85. %20%D1%81%D0%BE%D0%BE%D0%B1%D1%89%D0%B5%D1%81%D1%82%D0%B2%D0%BE%253Brounded%253D1%253Bshadow%253D0%253Bcomic%253D0%253BlabelBackground%253Dnone%253B%2522%2520vertex%253D%25221%2522%2520parent%253D%25221%2522%253%253E%2520 CmxGeometry%253x%25221630D%2522%2520%253y%25221650D%2522%2520%253width%252295D%2522%2520%253height%2522100D%2522%2520%253as%2522D%2522geometry%252%253F%253E%252C%253FmxCell%253E%252C%253Froot%22E%20%3style%22D%3fontColor%230066D% 3CC%3BverticalAlign%3Dtop%3BverticalLabelPosition%3Dbottom%3BlabelPosition%3Dcenter%3Balign%3Dcenter%3Bhtml%1D3%3BfillColor%23D%3CCCCCC%3BstrokeColor%23000000D%3%3BgradientColor%3Dnone%3BgradientDirection%3Dnorth%3BstrokeWidth%2D3%3Bshape%3Dmxgraph.networks. сообщество%3Brounded%1D3%3Bshadow%0D3%3Bcomic%0D3%3BlabelBackground%3Dnone%22B%20%3vertex%221D%22%20%3parent%221D%22%3%3E%20CmxGeometry%3x%221569D%22%20%3y%221705D%22%20%3width%2295D%22%20%3height%22100D%22%20%3as%22D%22geometry%2%3F%3E%2C%3FmxCell%3E%2C%3Froot%3E%2FmxGraphModel%3E" style="fontColor=#0066CC;verticalAlign=top;verticalLabelPosition=bottom;labelPosition=center;align=center;html=1;fillColor=#CCCCCC;strokeColor=#000000;gradientColor=none;gradientDirection=north;strokeWidth=2;shape=mxgraph.networks.community;rounded=1;shadow=0;comic=0;labelBackgroundColor=none;" parent="1" vertex="1">
          <mxGeometry x="566" y="1200" width="95" height="100" as="geometry" />
        </mxCell>
        <mxCell id="n8mmKqbnI36Tv_IBKcBF-19" value="&#xa;&lt;span style=&quot;color: rgba(0, 0, 0, 0); font-family: monospace; font-size: 0px; font-style: normal; font-variant-ligatures: normal; font-variant-caps: normal; font-weight: 400; letter-spacing: normal; orphans: 2; text-align: start; text-indent: 0px; text-transform: none; widows: 2; word-spacing: 0px; -webkit-text-stroke-width: 0px; background-color: rgb(251, 251, 251); text-decoration-thickness: initial; text-decoration-style: initial; text-decoration-color: initial; float: none; display: inline !important;&quot;&gt;%3CmxGraphModel%3E%3Croot%3E%3CmxCell%20id%3D%220%22%2F%3E%3CmxCell%20id%3D%221%22%20parent%3D%220%22%2F%3E%3CmxCell%20id%3D%222%22%20value%3D%22%26%2310%3B%26lt%3Bspan%20style%3D%26quot%3Bcolor%3Aa %20rgba(0%2C%200%2C%200%2C%200)%3B%20font-family%3A%20monospace%3B%20font-size%3A%200px%3B%20font-style%3A%20normal%3B%20font-variant-ligatures%3A%20normal%3B%20font-variant-caps%3A%20normal%3B%20font-weight%3A%20400%3B%20letter-spacing%3A% 20normal%3B%20orphans%3A%202%3B%20text-align%3A%20start%3B%20text-indent%3A%200px%3B%20text-transform%3A%20none%3B%20widows%3A%202%3B%20word-spacing%3A%200px%3B%20-webkit-text-stroke-width%3A%200px%3B%20background-color%3A%20rgb(251%2C%20251%2C%20251)%3B%20text-decoration-thickness%3A%20initial%3B%20text-decoration-style%3A%20initial%3B%20text-decoration-color%3A%20initial%3B%20float%3A%20none%3B%20display%3A%20inline%20! important%3B%26quot%3B%26gt%3B%253CmxGraphModel%253E%253Croot%253E%253CmxCell%2520id%253D%25220%2522%252F%253E%253CmxCell%2520id%253D%25221%2522%2520parent%253D%25220%2522%252F%253E%253CmxCell%2520 id%253D%25222%2522%2520value%253D%2522%2522%2520style%253D%2522fontColor%253D%25230066CC%253BverticalAlign%253Dtop%253BverticalLabelPosition%253Dbottom%253BlabelPosition%253Dcenter%253Balign%253Dcenter%253Bhtml%253D1%253BfillColor%253D%2523CCCCCC% 253BstrokeColor%253D%2523000000%253BgradientColor%253Dnone%253BgradientDirection%253Dnorth%253BstrokeWidth%253D2%253Bshape%253Dmxgraph.%D1%81%D0%B5%D1%82%D1%8F%D1%85. %20%D1%81%D0%BE%D0%BE%D0%B1%D1%89%D0%B5%D1%81%D1%82%D0%B2%D0%BE%253Brounded%253D1%253Bshadow%253D0%253Bcomic%253D0%253BlabelBackground%253Dnone%253B%2522%2520vertex%253D%25221%2522%2520parent%253D%25221%2522%253%253E%2520 CmxGeometry%253x%25221630D%2522%2520%253y%25221650D%2522%2520%253width%252295D%2522%2520%253height%2522100D%2522%2520%253as%2522D%2522geometry%252%253F%253E%252C%253FmxCell%253E%252C%253Froot%22E%20%3style%22D%3fontColor%230066D% 3CC%3BverticalAlign%3Dtop%3BverticalLabelPosition%3Dbottom%3BlabelPosition%3Dcenter%3Balign%3Dcenter%3Bhtml%1D3%3BfillColor%23D%3CCCCCC%3BstrokeColor%23000000D%3%3BgradientColor%3Dnone%3BgradientDirection%3Dnorth%3BstrokeWidth%2D3%3Bshape%3Dmxgraph.networks. сообщество%3Brounded%1D3%3Bshadow%0D3%3Bcomic%0D3%3BlabelBackground%3Dnone%22B%20%3vertex%221D%22%20%3parent%221D%22%3%3E%20CmxGeometry%3x%221569D%22%20%3y%221705D%22%20%3width%2295D%22%20%3height%22100D%22%20%3as%22D%22geometry%2%3F%3E%2C%3FmxCell%3E%2C%3Froot%3E%2FmxGraphModel%3E" style="fontColor=#0066CC;verticalAlign=top;verticalLabelPosition=bottom;labelPosition=center;align=center;html=1;fillColor=#CCCCCC;strokeColor=#000000;gradientColor=none;gradientDirection=north;strokeWidth=2;shape=mxgraph.networks.community;rounded=1;shadow=0;comic=0;labelBackgroundColor=none;" parent="1" vertex="1">
          <mxGeometry x="200" y="2110" width="95" height="100" as="geometry" />
        </mxCell>
        <mxCell id="n8mmKqbnI36Tv_IBKcBF-21" value="&#xa;&lt;span style=&quot;color: rgba(0, 0, 0, 0); font-family: monospace; font-size: 0px; font-style: normal; font-variant-ligatures: normal; font-variant-caps: normal; font-weight: 400; letter-spacing: normal; orphans: 2; text-align: start; text-indent: 0px; text-transform: none; widows: 2; word-spacing: 0px; -webkit-text-stroke-width: 0px; background-color: rgb(251, 251, 251); text-decoration-thickness: initial; text-decoration-style: initial; text-decoration-color: initial; float: none; display: inline !important;&quot;&gt;%3CmxGraphModel%3E%3Croot%3E%3CmxCell%20id%3D%220%22%2F%3E%3CmxCell%20id%3D%221%22%20parent%3D%220%22%2F%3E%3CmxCell%20id%3D%222%22%20value%3D%22%22%20style%3D%22fontColor%3D%230066CC%3BverticalAlign%3Dtop%3BverticalLabelPosition%3Dbottom%3BlabelPosition%3Dcenter%3Balign%3Dcenter%3Bhtml%3D1%3BfillColor%3D%23CCCCCC%3BstrokeColor%3D%23000000%3BgradientColor%3Dnone%3BgradientDirection%3Dnorth%3BstrokeWidth%3D2%3Bshape%3Dmxgraph.сетях. business_center%3Brounded%3D1%3Bshadow%3D0%3Bcomic%3D0%3BlabelBackgroundColor%3Dnone%3B%22%20vertex%3D%221%22%20parent%3D%221%22%3E%3CmxGeometry%20x%3D%221431%22%20y%3D%2254%22%20width%3D%2290%22%20height%3D%22100%22%20as%3D%22geometry%22%2F%3E%3C%2FmxCell%3E%3C%2Froot%3E" style="fontColor=#0066CC;verticalAlign=top;verticalLabelPosition=bottom;labelPosition=center;align=center;html=1;fillColor=#CCCCCC;strokeColor=#000000;gradientColor=none;gradientDirection=north;strokeWidth=2;shape=mxgraph.networks.business_center;rounded=1;shadow=0;comic=0;labelBackgroundColor=none;" parent="1" vertex="1">
          <mxGeometry x="392" y="1940" width="90" height="100" as="geometry" />
        </mxCell>
        <mxCell id="n8mmKqbnI36Tv_IBKcBF-22" value="&#xa;&lt;span style=&quot;color: rgba(0, 0, 0, 0); font-family: monospace; font-size: 0px; font-style: normal; font-variant-ligatures: normal; font-variant-caps: normal; font-weight: 400; letter-spacing: normal; orphans: 2; text-align: start; text-indent: 0px; text-transform: none; widows: 2; word-spacing: 0px; -webkit-text-stroke-width: 0px; background-color: rgb(251, 251, 251); text-decoration-thickness: initial; text-decoration-style: initial; text-decoration-color: initial; float: none; display: inline !important;&quot;&gt;%3CmxGraphModel%3E%3Croot%3E%3CmxCell%20id%3D%220%22%2F%3E%3CmxCell%20id%3D%221%22%20parent%3D%220%22%2F%3E%3CmxCell%20id%3D%222%22%20value%3D%22%22%20style%3D%22fontColor%3D%230066CC%3BverticalAlign%3Dtop%3BverticalLabelPosition%3Dbottom%3BlabelPosition%3Dcenter%3Balign%3Dcenter%3Bhtml%3D1%3BfillColor%3D%23CCCCCC%3BstrokeColor%3D%23000000%3BgradientColor%3Dnone%3BgradientDirection%3Dnorth%3BstrokeWidth%3D2%3Bshape%3Dmxgraph.сетях. business_center%3Brounded%3D1%3Bshadow%3D0%3Bcomic%3D0%3BlabelBackgroundColor%3Dnone%3B%22%20vertex%3D%221%22%20parent%3D%221%22%3E%3CmxGeometry%20x%3D%221431%22%20y%3D%2254%22%20width%3D%2290%22%20height%3D%22100%22%20as%3D%22geometry%22%2F%3E%3C%2FmxCell%3E%3C%2Froot%3E" style="fontColor=#0066CC;verticalAlign=top;verticalLabelPosition=bottom;labelPosition=center;align=center;html=1;fillColor=#CCCCCC;strokeColor=#000000;gradientColor=none;gradientDirection=north;strokeWidth=2;shape=mxgraph.networks.business_center;rounded=1;shadow=0;comic=0;labelBackgroundColor=none;" parent="1" vertex="1">
          <mxGeometry x="2235" y="1690" width="90" height="100" as="geometry" />
        </mxCell>
        <mxCell id="n8mmKqbnI36Tv_IBKcBF-23" value="&#xa;&lt;span style=&quot;color: rgba(0, 0, 0, 0); font-family: monospace; font-size: 0px; font-style: normal; font-variant-ligatures: normal; font-variant-caps: normal; font-weight: 400; letter-spacing: normal; orphans: 2; text-align: start; text-indent: 0px; text-transform: none; widows: 2; word-spacing: 0px; -webkit-text-stroke-width: 0px; background-color: rgb(251, 251, 251); text-decoration-thickness: initial; text-decoration-style: initial; text-decoration-color: initial; float: none; display: inline !important;&quot;&gt;%3CmxGraphModel%3E%3Croot%3E%3CmxCell%20id%3D%220%22%2F%3E%3CmxCell%20id%3D%221%22%20parent%3D%220%22%2F%3E%3CmxCell%20id%3D%222%22%20value%3D%22%22%20style%3D%22fontColor%3D%230066CC%3BverticalAlign%3Dtop%3BverticalLabelPosition%3Dbottom%3BlabelPosition%3Dcenter%3Balign%3Dcenter%3Bhtml%3D1%3BfillColor%3D%23CCCCCC%3BstrokeColor%3D%23000000%3BgradientColor%3Dnone%3BgradientDirection%3Dnorth%3BstrokeWidth%3D2%3Bshape%3Dmxgraph.сетях. business_center%3Brounded%3D1%3Bshadow%3D0%3Bcomic%3D0%3BlabelBackgroundColor%3Dnone%3B%22%20vertex%3D%221%22%20parent%3D%221%22%3E%3CmxGeometry%20x%3D%221431%22%20y%3D%2254%22%20width%3D%2290%22%20height%3D%22100%22%20as%3D%22geometry%22%2F%3E%3C%2FmxCell%3E%3C%2Froot%3E" style="fontColor=#0066CC;verticalAlign=top;verticalLabelPosition=bottom;labelPosition=center;align=center;html=1;fillColor=#CCCCCC;strokeColor=#000000;gradientColor=none;gradientDirection=north;strokeWidth=2;shape=mxgraph.networks.business_center;rounded=1;shadow=0;comic=0;labelBackgroundColor=none;" parent="1" vertex="1">
          <mxGeometry x="620" y="1030" width="90" height="100" as="geometry" />
        </mxCell>
        <mxCell id="n8mmKqbnI36Tv_IBKcBF-24" value="&#xa;&lt;span style=&quot;color: rgba(0, 0, 0, 0); font-family: monospace; font-size: 0px; font-style: normal; font-variant-ligatures: normal; font-variant-caps: normal; font-weight: 400; letter-spacing: normal; orphans: 2; text-align: start; text-indent: 0px; text-transform: none; widows: 2; word-spacing: 0px; -webkit-text-stroke-width: 0px; background-color: rgb(251, 251, 251); text-decoration-thickness: initial; text-decoration-style: initial; text-decoration-color: initial; float: none; display: inline !important;&quot;&gt;%3CmxGraphModel%3E%3Croot%3E%3CmxCell%20id%3D%220%22%2F%3E%3CmxCell%20id%3D%221%22%20parent%3D%220%22%2F%3E%3CmxCell%20id%3D%222%22%20value%3D%22%22%20style%3D%22fontColor%3D%230066CC%3BverticalAlign%3Dtop%3BverticalLabelPosition%3Dbottom%3BlabelPosition%3Dcenter%3Balign%3Dcenter%3Bhtml%3D1%3BfillColor%3D%23CCCCCC%3BstrokeColor%3D%23000000%3BgradientColor%3Dnone%3BgradientDirection%3Dnorth%3BstrokeWidth%3D2%3Bshape%3Dmxgraph.сетях. satellite%3Brounded%3D1%3Bshadow%3D0%3Bcomic%3D0%3B%22%20vertex%3D%221%22%20parent%3D%221%22%3E%3CmxGeometry%20x%3D%22796%22%20y%3D%221440%22%20width%3D%22100%22%20height%3D%22100%22%20as%3D%22geometry%22%2F%3E%3C%2FmxCell%3E%3C%2Froot%3E" style="fontColor=#0066CC;verticalAlign=top;verticalLabelPosition=bottom;labelPosition=center;align=center;html=1;fillColor=#CCCCCC;strokeColor=#000000;gradientColor=none;gradientDirection=north;strokeWidth=2;shape=mxgraph.networks.satellite;rounded=1;shadow=0;comic=0;" parent="1" vertex="1">
          <mxGeometry x="809" y="1390" width="100" height="100" as="geometry" />
        </mxCell>
        <mxCell id="n8mmKqbnI36Tv_IBKcBF-31" value="&#xa;&lt;span style=&quot;color: rgba(0, 0, 0, 0); font-family: monospace; font-size: 0px; font-style: normal; font-variant-ligatures: normal; font-variant-caps: normal; font-weight: 400; letter-spacing: normal; orphans: 2; text-align: start; text-indent: 0px; text-transform: none; widows: 2; word-spacing: 0px; -webkit-text-stroke-width: 0px; background-color: rgb(251, 251, 251); text-decoration-thickness: initial; text-decoration-style: initial; text-decoration-color: initial; float: none; display: inline !important;&quot;&gt;%3CmxGraphModel%3E%3Croot%3E%3CmxCell%20id%3D%220%22%2F%3E%3CmxCell%20id%3D%221%22%20parent%3D%220%22%2F%3E%3CmxCell%20id%3D%222%22value%20D%3%22%22style%20D%3html%22D3%1BfillColor%3D%3CCCCCC%23BstrokeColor%3D%3%23000000BgradientColor%3Dnone%3BgradientDirection%3Dnorth%3BstrokeWidth%3D3%2Bshape%3Dmxgraph.networks. comm_link_edge%3Bhtml%3D3%1BlabelBackground%3Dnone%3BendArrow%3Dnone%3BfontFamily%3DVerdana%3BfontSize%3D3%22BfontColor%3D%3%23000000B%3%22edge%20D%3%221%22parent%20D%3%221%22E%3CmxGeometry%3width%20D%3%22100%22height%20D%3%22100%22%20%3относительный%221D%22%20%3as%22D%22geometry%3%3E%20CmxPoint%3x%221171D%22%20%3y%22467D%22%20%3as%22D%22sourcePoint%2%3F%3E%20CmxPoint%3x%221333D%22%20%3y%22609D%22%20%3as%22D%22targetPoint%2%3F%3E% 2C%3FmxGeometry%3E%2C%3FmxCell%3E%2C%3Froot%3E" style="html=1;fillColor=#CCCCCC;strokeColor=#000000;gradientColor=none;gradientDirection=north;strokeWidth=2;shape=mxgraph.networks.comm_link_edge;html=1;labelBackgroundColor=none;endArrow=none;fontFamily=Verdana;fontSize=22;fontColor=#000000;" parent="1" edge="1">
          <mxGeometry x="0.0896" y="-9" width="100" height="100" relative="1" as="geometry">
            <mxPoint x="780" y="1530" as="sourcePoint" />
            <mxPoint x="410" y="1860" as="targetPoint" />
            <Array as="points">
              <mxPoint x="1587" y="1570" />
              <mxPoint x="1687" y="1680" />
            </Array>
            <mxPoint as="offset" />
          </mxGeometry>
        </mxCell>
        <mxCell id="n8mmKqbnI36Tv_IBKcBF-32" value="&#xa;&lt;span style=&quot;color: rgba(0, 0, 0, 0); font-family: monospace; font-size: 0px; font-style: normal; font-variant-ligatures: normal; font-variant-caps: normal; font-weight: 400; letter-spacing: normal; orphans: 2; text-align: start; text-indent: 0px; text-transform: none; widows: 2; word-spacing: 0px; -webkit-text-stroke-width: 0px; background-color: rgb(251, 251, 251); text-decoration-thickness: initial; text-decoration-style: initial; text-decoration-color: initial; float: none; display: inline !important;&quot;&gt;%3CmxGraphModel%3E%3Croot%3E%3CmxCell%20id%3D%220%22%2F%3E%3CmxCell%20id%3D%221%22%20parent%3D%220%22%2F%3E%3CmxCell%20id%3D%222%22value%20D%3%22%22style%20D%3html%22D3%1BfillColor%3D%3CCCCCC%23BstrokeColor%3D%3%23000000BgradientColor%3Dnone%3BgradientDirection%3Dnorth%3BstrokeWidth%3D3%2Bshape%3Dmxgraph.networks. comm_link_edge%3Bhtml%3D3%1BlabelBackground%3Dnone%3BendArrow%3Dnone%3BfontFamily%3DVerdana%3BfontSize%3D3%22BfontColor%3D%3%23000000B%3%22edge%20D%3%221%22parent%20D%3%221%22E%3CmxGeometry%3width%20D%3%22100%22height%20D%3%22100%22%20%3относительный%221D%22%20%3as%22D%22geometry%3%3E%20CmxPoint%3x%221171D%22%20%3y%22467D%22%20%3as%22D%22sourcePoint%2%3F%3E%20CmxPoint%3x%221333D%22%20%3y%22609D%22%20%3as%22D%22targetPoint%2%3F%3E% 2C%3FmxGeometry%3E%2C%3FmxCell%3E%2C%3Froot%3E" style="html=1;fillColor=#CCCCCC;strokeColor=#000000;gradientColor=none;gradientDirection=north;strokeWidth=2;shape=mxgraph.networks.comm_link_edge;html=1;labelBackgroundColor=none;endArrow=none;fontFamily=Verdana;fontSize=22;fontColor=#000000;" parent="1" edge="1">
          <mxGeometry width="100" height="100" relative="1" as="geometry">
            <mxPoint x="650" y="1400" as="sourcePoint" />
            <mxPoint x="790" y="1420" as="targetPoint" />
            <Array as="points">
              <mxPoint x="524.5" y="1572" />
            </Array>
          </mxGeometry>
        </mxCell>
        <mxCell id="n8mmKqbnI36Tv_IBKcBF-34" value="&#xa;&lt;span style=&quot;color: rgba(0, 0, 0, 0); font-family: monospace; font-size: 0px; font-style: normal; font-variant-ligatures: normal; font-variant-caps: normal; font-weight: 400; letter-spacing: normal; orphans: 2; text-align: start; text-indent: 0px; text-transform: none; widows: 2; word-spacing: 0px; -webkit-text-stroke-width: 0px; background-color: rgb(251, 251, 251); text-decoration-thickness: initial; text-decoration-style: initial; text-decoration-color: initial; float: none; display: inline !important;&quot;&gt;%3CmxGraphModel%3E%3Croot%3E%3CmxCell%20id%3D%220%22%2F%3E%3CmxCell%20id%3D%221%22%20parent%3D%220%22%2F%3E%3CmxCell%20id%3D%222%22%20value%3D%22%22%20style%3D%22endArrow%3Dnone%3Bhtml%3D1%3Brounded%3D0%3BstrokeColor%3D%23FF0080%3BstrokeWidth%3D7%3BentryX%3D-0.041%3BentryY%3D0. 848%3BentryDx%3D0%3BentryDy%3D0%3BentryPerimeter%3D0%3B%22%20edge%3D%221%22%20parent%3D%221%22%3E%3CmxGeometry%20width%3D%2250%22%20height%3D%2250%22%20relative%3D%221%22%20as%3D%22geometry%22%3E%3CmxPoint%20CmxPoint 3x%221664D%22%20%3y%221780D%22%20%3as%22D%22sourcePoint%2%3F%3E%20CmxPoint%3x%222231D%22%20%3y%221775D%22%20%3as%22D%22targetPoint%2%3F%3E%2C%3FmxGeometry%3E%2C%3FmxCell%3E%2C%3Froot%3E" style="endArrow=none;html=1;rounded=0;strokeColor=#FF0080;strokeWidth=7;entryX=-0.041;entryY=0.848;entryDx=0;entryDy=0;entryPerimeter=0;exitX=1.08;exitY=0.813;exitDx=0;exitDy=0;exitPerimeter=0;" parent="1" source="n8mmKqbnI36Tv_IBKcBF-8" target="n8mmKqbnI36Tv_IBKcBF-22" edge="1">
          <mxGeometry width="50" height="50" relative="1" as="geometry">
            <mxPoint x="1664" y="1780" as="sourcePoint" />
            <mxPoint x="1974" y="1780" as="targetPoint" />
          </mxGeometry>
        </mxCell>
        <mxCell id="n8mmKqbnI36Tv_IBKcBF-35" value="" style="endArrow=none;html=1;rounded=0;strokeColor=#FF0080;strokeWidth=7;entryX=-0.011;entryY=0.863;entryDx=0;entryDy=0;entryPerimeter=0;exitX=1;exitY=1;exitDx=0;exitDy=0;exitPerimeter=0;" parent="1" source="n8mmKqbnI36Tv_IBKcBF-7" target="n8mmKqbnI36Tv_IBKcBF-11" edge="1">
          <mxGeometry width="50" height="50" relative="1" as="geometry">
            <mxPoint x="1002" y="1545" as="sourcePoint" />
            <mxPoint x="1569" y="1540" as="targetPoint" />
          </mxGeometry>
        </mxCell>
        <mxCell id="n8mmKqbnI36Tv_IBKcBF-36" value="&#xa;&lt;span style=&quot;color: rgba(0, 0, 0, 0); font-family: monospace; font-size: 0px; font-style: normal; font-variant-ligatures: normal; font-variant-caps: normal; font-weight: 400; letter-spacing: normal; orphans: 2; text-align: start; text-indent: 0px; text-transform: none; widows: 2; word-spacing: 0px; -webkit-text-stroke-width: 0px; background-color: rgb(251, 251, 251); text-decoration-thickness: initial; text-decoration-style: initial; text-decoration-color: initial; float: none; display: inline !important;&quot;&gt;%3CmxGraphModel%3E%3Croot%3E%3CmxCell%20id%3D%220%22%2F%3E%3CmxCell%20id%3D%221%22%20parent%3D%220%22%2F%3E%3CmxCell%20id%3D%222%22%20value%3D%22%26%2310%3B%26lt%3Bspan%20style%3D%26quot%3Bcolor%3Aa %20rgba(0%2C%200%2C%200%2C%200)%3B%20font-family%3A%20monospace%3B%20font-size%3A%200px%3B%20font-style%3A%20normal%3B%20font-variant-ligatures%3A%20normal%3B%20font-variant-caps%3A%20normal%3B%20font-weight%3A%20400%3B%20letter-spacing%3A% 20normal%3B%20orphans%3A%202%3B%20text-align%3A%20start%3B%20text-indent%3A%200px%3B%20text-transform%3A%20none%3B%20widows%3A%202%3B%20word-spacing%3A%200px%3B%20-webkit-text-stroke-width%3A%200px%3B%20background-color%3A%20rgb(251%2C%20251%2C%20251)%3B%20text-decoration-thickness%3A%20initial%3B%20text-decoration-style%3A%20initial%3B%20text-decoration-color%3A%20initial%3B%20float%3A%20none%3B%20display%3A%20inline%20! important%3B%26quot%3B%26gt%3B%253CmxGraphModel%253E%253Croot%253E%253CmxCell%2520id%253D%25220%2522%252F%253E%253CmxCell%2520id%253D%25221%2522%2520parent%253D%25220%2522%252F%253E%253CmxCell%2520CmxCell 253id%25222D%2522%2520%253value%2522D%2522%2520%253style%2522D%253endArrow%253Dnone%253Bhtml%1D253%253Brounded%0D253%253BstrokeColor%2523D%0080FF253%253BstrokeWidth%7D253%253BentryX%0D253%253BentryY%0D205. %253%253BentryDx%0D253%253BentryDy%0D253%253BentryPerimeter%0D253%253BexitX%1D253%253BexitY%1D253%253BexitDx%0D253%253BexitDy%0D253%253BexitPerimeter%0D253%2522B%2520%253edge%25221D%2522%2520%253parent%25221D%2522%253%253%2520E%253CmxGeometry%252250width%2522D%2520%253%252250height%2022D%2520%253%25221%2522relative%2520D%253%2522%2522as%253D%253geometry%2520%253E%25221434CmxPoint%2522x%2520D%253%25221660%2522y%2520D%253%2522%2522as%252D% 253sourcePoint%253%2520F%253E%25221569CmxPoint%2522x%2520D%253%25221755%2522y%2520D%253%2522%2522as%252D%253targetPoint%25%203F%252%253E%253C%252Fmxx Geometry%253E%253C%252FmxCell%253E%253C%22Froot%20E%3%22style%3D%3endArrow%3Dnone%1Bhtml%3D3%0Brounded%3D3%23BstrokeColor%0080D%3FF3%7BstrokeWidth%3D3%0BentryX%3D3%0BentryY%5D3. 3%0BentryDx%3D3%0BentryDy%3D3%0BentryPerimeter%3D3%1BexitX%3D3%1BexitY%3D3%0BexitDx%3D3%0BexitDy%3D3%0BexitPerimeter%3D22%20B%3%221edge%22D%20%3%221parent%22D%3%3%20E%3CmxGeometry%2250width%22D%20%3%2250height%22D%20 3%221%22relative%20D%3%22%22as%3D%3geometry%20%3E%221434CmxPoint%22x%20D%3%221660%22y%20D%3%22%22as%2D%3sourcePoint%3%20F%3E%221719CmxPoint%22x%20D%3%221725%22y%20D%3%22%22as%2D%3targetPoint%3%2F% 3E%3C%2FmxGeometry%3E%3C%2FmxCell%3E%3C%2Froot%3E" style="endArrow=none;html=1;rounded=0;strokeColor=#FF0080;strokeWidth=7;entryX=0;entryY=0.5;entryDx=0;entryDy=0;entryPerimeter=0;exitX=1;exitY=1;exitDx=0;exitDy=0;exitPerimeter=0;" parent="1" target="n8mmKqbnI36Tv_IBKcBF-8" edge="1">
          <mxGeometry width="50" height="50" relative="1" as="geometry">
            <mxPoint x="1434" y="1660" as="sourcePoint" />
            <mxPoint x="1607.9700000000003" y="1799.7000000000003" as="targetPoint" />
          </mxGeometry>
        </mxCell>
        <mxCell id="n8mmKqbnI36Tv_IBKcBF-38" value="&lt;span style=&quot;color: rgba(0, 0, 0, 0); font-family: monospace; font-size: 0px; font-style: normal; font-variant-ligatures: normal; font-variant-caps: normal; font-weight: 400; letter-spacing: normal; orphans: 2; text-align: start; text-indent: 0px; text-transform: none; widows: 2; word-spacing: 0px; -webkit-text-stroke-width: 0px; background-color: rgb(251, 251, 251); text-decoration-thickness: initial; text-decoration-style: initial; text-decoration-color: initial; float: none; display: inline !important;&quot;&gt;%3CmxGraphModel%3E%3Croot%3E%3CmxCell%20id%3D%220%22%2F%3E%3CmxCell%20id%3D%221%22%20parent%3D%220%22%2F%3E%3CmxCell%20id%3D%222%22%20value%3D%22%22%20style%3D%22endArrow%3Dnone%3Bhtml%3D1%3Brounded%3D0%3BstrokeColor%3D%23FF0080%3BstrokeWidth%3D7%3BentryX%3D0%3BentryY%3D0. 5%3BentryDx%3D0%3BentryDy%3D0%3BentryPerimeter%3D0%3BexitX%3D1%3BexitY%3D1%3BexitDx%3D0%3BexitDy%3D0%3BexitPerimeter%3D0%3B%22%20edge%3D%221%22%20parent%3D%221%22%3E%3CmxGeometry%20width%3D%2250%22%20height%3D%2250 22%20%3relative%221D%22%20%3as%22D%22geometry%3%3E%20CmxPoint%3x%221434D%22%20%3y%221660D%22%20%3as%22D%22sourcePoint%2%3F%3E%20CmxPoint%3x%221569D%22%20%3y%221755D%22%20%3as%22D%22targetPoint%2%3F% 3E%2C%3FmxGeometry%3E%2C%3FmxCell%3E%2C%3Froot%3E&lt;/span&gt;" style="text;whiteSpace=wrap;html=1;" parent="1" vertex="1">
          <mxGeometry x="1520" y="1950" width="30" height="40" as="geometry" />
        </mxCell>
        <mxCell id="n8mmKqbnI36Tv_IBKcBF-40" value="&#xa;&lt;span style=&quot;color: rgba(0, 0, 0, 0); font-family: monospace; font-size: 0px; font-style: normal; font-variant-ligatures: normal; font-variant-caps: normal; font-weight: 400; letter-spacing: normal; orphans: 2; text-align: start; text-indent: 0px; text-transform: none; widows: 2; word-spacing: 0px; -webkit-text-stroke-width: 0px; background-color: rgb(251, 251, 251); text-decoration-thickness: initial; text-decoration-style: initial; text-decoration-color: initial; float: none; display: inline !important;&quot;&gt;%3CmxGraphModel%3E%3Croot%3E%3CmxCell%20id%3D%220%22%2F%3E%3CmxCell%20id%3D%221%22%20parent%3D%220%22%2F%3E%3CmxCell%20id%3D%222%22%20value%3D%22%22%20style%3D%22endArrow%3Dnone%3Bhtml%3D1%3Brounded%3D0%3BstrokeColor%3D%23FF0080%3BstrokeWidth%3D7%3BentryX%3D0%3BentryY%3D0. 5%3BentryDx%3D0%3BentryDy%3D0%3BentryPerimeter%3D0%3BexitX%3D1%3BexitY%3D1%3BexitDx%3D0%3BexitDy%3D0%3BexitPerimeter%3D0%3B%22%20edge%3D%221%22%20parent%3D%221%22%3E%3CmxGeometry%20width%3D%2250%22%20height%3D%2250 22%20%3relative%221D%22%20%3as%22D%22geometry%3%3E%20CmxPoint%3x%221434D%22%20%3y%221660D%22%20%3as%22D%22sourcePoint%2%3F%3E%20CmxPoint%3x%221569D%22%20%3y%221755D%22%20%3as%22D%22targetPoint%2%3F% 3E%2C%3FmxGeometry%3E%2C%3FmxCell%3E%2C%3Froot%3E" style="endArrow=none;html=1;rounded=0;strokeColor=#FF0080;strokeWidth=7;entryX=0.211;entryY=1.03;entryDx=0;entryDy=0;entryPerimeter=0;exitX=0.912;exitY=0.613;exitDx=0;exitDy=0;exitPerimeter=0;" parent="1" source="n8mmKqbnI36Tv_IBKcBF-15" target="n8mmKqbnI36Tv_IBKcBF-11" edge="1">
          <mxGeometry width="50" height="50" relative="1" as="geometry">
            <mxPoint x="1315" y="1810" as="sourcePoint" />
            <mxPoint x="1586" y="1815" as="targetPoint" />
          </mxGeometry>
        </mxCell>
        <mxCell id="n8mmKqbnI36Tv_IBKcBF-41" value="&lt;span style=&quot;color: rgba(0, 0, 0, 0); font-family: monospace; font-size: 0px; font-style: normal; font-variant-ligatures: normal; font-variant-caps: normal; font-weight: 400; letter-spacing: normal; orphans: 2; text-align: start; text-indent: 0px; text-transform: none; widows: 2; word-spacing: 0px; -webkit-text-stroke-width: 0px; background-color: rgb(251, 251, 251); text-decoration-thickness: initial; text-decoration-style: initial; text-decoration-color: initial; float: none; display: inline !important;&quot;&gt;%3CmxGraphModel%3E%3Croot%3E%3CmxCell%20id%3D%220%22%2F%3E%3CmxCell%20id%3D%221%22%20parent%3D%220%22%2F%3E%3CmxCell%20id%3D%222%22%20value%3D%22%26%2310%3B%26lt%3Bspan%20style%3D%26quot%3Bcolor%3Aa %20rgba(0%2C%200%2C%200%2C%200)%3B%20font-family%3A%20monospace%3B%20font-size%3A%200px%3B%20font-style%3A%20normal%3B%20font-variant-ligatures%3A%20normal%3B%20font-variant-caps%3A%20normal%3B%20font-weight%3A%20400%3B%20letter-spacing%3A% 20normal%3B%20orphans%3A%202%3B%20text-align%3A%20start%3B%20text-indent%3A%200px%3B%20text-transform%3A%20none%3B%20widows%3A%202%3B%20word-spacing%3A%200px%3B%20-webkit-text-stroke-width%3A%200px%3B%20background-color%3A%20rgb(251%2C%20251%2C%20251)%3B%20text-decoration-thickness%3A%20initial%3B%20text-decoration-style%3A%20initial%3B%20text-decoration-color%3A%20initial%3B%20float%3A%20none%3B%20display%3A%20inline%20! important%3B%26quot%3B%26gt%3B%253CmxGraphModel%253E%253Croot%253E%253CmxCell%2520id%253D%25220%2522%252F%253E%253CmxCell%2520id%253D%25221%2522%2520parent%253D%25220%2522%252F%253E%253CmxCell%2520CmxCell 253id%25222D%2522%2520%253value%2522D%2522%2520%253style%2522D%253endArrow%253Dnone%253Bhtml%1D253%253Brounded%0D253%253BstrokeColor%2523D%0080FF253%253BstrokeWidth%7D253%253BentryX%0D253%253BentryY%0D205. %253%253BentryDx%0D253%253BentryDy%0D253%253BentryPerimeter%0D253%253BexitX%1D253%253BexitY%1D253%253BexitDx%0D253%253BexitDy%0D253%253BexitPerimeter%0D253%2522B%2520%253edge%25221D%2522%2520%253parent%25221D%2522%253%253%2520E%253CmxGeometry%252250width%2522D%2520%253%252250height%2022D%2520%253%25221%2522relative%2520D%253%2522%2522as%253D%253geometry%2520%253E%25221434CmxPoint%2522x%2520D%253%25221660%2522y%2520D%253%2522%2522as%252D% 253sourcePoint%253%2520F%253E%25221569CmxPoint%2522x%2520D%253%25221755%2522y%2520D%253%2522%2522as%252D%253targetPoint%25%203F%252%253E%253C%252FmxGeometry%253E%253C%252FmxCell%253E%253C%22Froot%20E%3%22style%3D%3endArrow%3Dnone%1Bhtml%3D3%0Brounded%3D3%23BstrokeColor%0080D%3FF3%7BstrokeWidth%3D3%0BentryX%072D3.. 3%1BentryY%003D3. 3%0BentryDx%3D3%0BentryDy%3D3%0BentryPerimeter%3D22%20B%3%221edge%22D%20%3%221parent%22D%3%3%20E%3CmxGeometry%2250width%22D%20%3%2250height%22D%20%3%221relative%22D%20%3%22as%22D%3geometry%3%20E%3CmxPoint%221305CmxPoint 22x%20D%3%221800%22y%20D%3%22%22as%2D%3sourcePoint%3%20F%3E%221576CmxPoint%22x%20D%3%221805%22y%20D%3%22%22as%2D%3targetPoint%3%2F%3E%3C%2FmxGeometry%3E%3C%2FmxCell%3E%3C%2Froot%3E&lt;/span&gt;" style="text;whiteSpace=wrap;html=1;" parent="1" vertex="1">
          <mxGeometry x="1380" y="1840" width="30" height="40" as="geometry" />
        </mxCell>
        <mxCell id="n8mmKqbnI36Tv_IBKcBF-42" value="&#xa;&lt;span style=&quot;color: rgba(0, 0, 0, 0); font-family: monospace; font-size: 0px; font-style: normal; font-variant-ligatures: normal; font-variant-caps: normal; font-weight: 400; letter-spacing: normal; orphans: 2; text-align: start; text-indent: 0px; text-transform: none; widows: 2; word-spacing: 0px; -webkit-text-stroke-width: 0px; background-color: rgb(251, 251, 251); text-decoration-thickness: initial; text-decoration-style: initial; text-decoration-color: initial; float: none; display: inline !important;&quot;&gt;%3CmxGraphModel%3E%3Croot%3E%3CmxCell%20id%3D%220%22%2F%3E%3CmxCell%20id%3D%221%22%20parent%3D%220%22%2F%3E%3CmxCell%20id%3D%222%22%20value%3D%22%26%2310%3B%26lt%3Bspan%20style%3D%26quot%3Bcolor%3Aa %20rgba(0%2C%200%2C%200%2C%200)%3B%20font-family%3A%20monospace%3B%20font-size%3A%200px%3B%20font-style%3A%20normal%3B%20font-variant-ligatures%3A%20normal%3B%20font-variant-caps%3A%20normal%3B%20font-weight%3A%20400%3B%20letter-spacing%3A% 20normal%3B%20orphans%3A%202%3B%20text-align%3A%20start%3B%20text-indent%3A%200px%3B%20text-transform%3A%20none%3B%20widows%3A%202%3B%20word-spacing%3A%200px%3B%20-webkit-text-stroke-width%3A%200px%3B%20background-color%3A%20rgb(251%2C%20251%2C%20251)%3B%20text-decoration-thickness%3A%20initial%3B%20text-decoration-style%3A%20initial%3B%20text-decoration-color%3A%20initial%3B%20float%3A%20none%3B%20display%3A%20inline%20! important%3B%26quot%3B%26gt%3B%253CmxGraphModel%253E%253Croot%253E%253CmxCell%2520id%253D%25220%2522%252F%253E%253CmxCell%2520id%253D%25221%2522%2520parent%253D%25220%2522%252F%253E%253CmxCell%2520CmxCell 253id%25222D%2522%2520%253value%2522D%2522%2520%253style%2522D%253endArrow%253Dnone%253Bhtml%1D253%253Brounded%0D253%253BstrokeColor%2523D%0080FF253%253BstrokeWidth%7D253%253BentryX%0D253%253BentryY%0D205. %253%253BentryDx%0D253%253BentryDy%0D253%253BentryPerimeter%0D253%253BexitX%1D253%253BexitY%1D253%253BexitDx%0D253%253BexitDy%0D253%253BexitPerimeter%0D253%2522B%2520%253edge%25221D%2522%2520%253parent%25221D%2522%253%253%2520E%253CmxGeometry%252250width%2522D%2520%253%252250height%2022D%2520%253%25221%2522relative%2520D%253%2522%2522as%253D%253geometry%2520%253E%25221434CmxPoint%2522x%2520D%253%25221660%2522y%2520D%253%2522%2522as%252D% 253sourcePoint%253%2520F%253E%25221569CmxPoint%2522x%2520D%253%25221755%2522y%2520D%253%2522%2522as%252D%253targetPoint%25%203F%252%253E%253C%252FmxGeometry%253E%253C%252FmxCell%253E%253C%22Froot%20E%3%22style%3D%3endArrow%3Dnone%1Bhtml%3D3%0Brounded%3D3%23BstrokeColor%0080D%3FF3%7BstrokeWidth%3D3%0BentryX%072D3.. 3%1BentryY%003D3. 3%0BentryDx%3D3%0BentryDy%3D3%0BentryPerimeter%3D22%20B%3%221edge%22D%20%3%221parent%22D%3%3%20E%3CmxGeometry%2250width%22D%20%3%2250height%22D%20%3%221relative%22D%20%3%22as%22D%3geometry%3%20E%3CmxPoint%221305CmxPoint 22x%20D%3%221800%22y%20D%3%22%22as%2D%3sourcePoint%3%20F%3E%221576CmxPoint%22x%20D%3%221805%22y%20D%3%22%22as%2D%3targetPoint%3%2F%3E%3C%2FmxGeometry%3E%3C%2FmxCell%3E%3C%2Froot%3E" style="endArrow=none;html=1;rounded=0;strokeColor=#FF0080;strokeWidth=7;exitX=0.844;exitY=1;exitDx=0;exitDy=0;exitPerimeter=0;" parent="1" source="n8mmKqbnI36Tv_IBKcBF-21" target="n8mmKqbnI36Tv_IBKcBF-15" edge="1">
          <mxGeometry width="50" height="50" relative="1" as="geometry">
            <mxPoint x="1315" y="1810" as="sourcePoint" />
            <mxPoint x="1586" y="1815" as="targetPoint" />
          </mxGeometry>
        </mxCell>
        <mxCell id="n8mmKqbnI36Tv_IBKcBF-43" value="&#xa;&lt;span style=&quot;color: rgba(0, 0, 0, 0); font-family: monospace; font-size: 0px; font-style: normal; font-variant-ligatures: normal; font-variant-caps: normal; font-weight: 400; letter-spacing: normal; orphans: 2; text-align: start; text-indent: 0px; text-transform: none; widows: 2; word-spacing: 0px; -webkit-text-stroke-width: 0px; background-color: rgb(251, 251, 251); text-decoration-thickness: initial; text-decoration-style: initial; text-decoration-color: initial; float: none; display: inline !important;&quot;&gt;%3CmxGraphModel%3E%3Croot%3E%3CmxCell%20id%3D%220%22%2F%3E%3CmxCell%20id%3D%221%22%20parent%3D%220%22%2F%3E%3CmxCell%20id%3D%222%22%20value%3D%22%22%20style%3D%22fontColor%3D%230066CC%3BverticalAlign%3Dtop%3BverticalLabelPosition%3Dbottom%3BlabelPosition%3Dcenter%3Balign%3Dcenter%3Bhtml%3D1%3BfillColor%3D%23CCCCCC%3BstrokeColor%3D%23000000%3BgradientColor%3Dnone%3BgradientDirection%3Dnorth%3BstrokeWidth%3D2%3Bshape%3Dmxgraph.сетях. satellite%3Brounded%3D1%3Bshadow%3D0%3Bcomic%3D0%3B%22%20vertex%3D%221%22%20parent%3D%221%22%3E%3CmxGeometry%20x%3D%22796%22%20y%3D%221440%22%20width%3D%22100%22%20height%3D%22100%22%20as%3D%22geometry%22%2F%3E%3C%2FmxCell%3E%3C%2Froot%3E" style="fontColor=#0066CC;verticalAlign=top;verticalLabelPosition=bottom;labelPosition=center;align=center;html=1;fillColor=#CCCCCC;strokeColor=#000000;gradientColor=none;gradientDirection=north;strokeWidth=2;shape=mxgraph.networks.satellite;rounded=1;shadow=0;comic=0;" parent="1" vertex="1">
          <mxGeometry x="1820" y="1120" width="100" height="100" as="geometry" />
        </mxCell>
        <mxCell id="n8mmKqbnI36Tv_IBKcBF-47" value="&#xa;&lt;span style=&quot;color: rgba(0, 0, 0, 0); font-family: monospace; font-size: 0px; font-style: normal; font-variant-ligatures: normal; font-variant-caps: normal; font-weight: 400; letter-spacing: normal; orphans: 2; text-align: start; text-indent: 0px; text-transform: none; widows: 2; word-spacing: 0px; -webkit-text-stroke-width: 0px; background-color: rgb(251, 251, 251); text-decoration-thickness: initial; text-decoration-style: initial; text-decoration-color: initial; float: none; display: inline !important;&quot;&gt;%3CmxGraphModel%3E%3Croot%3E%3CmxCell%20id%3D%220%22%2F%3E%3CmxCell%20id%3D%221%22%20parent%3D%220%22%2F%3E%3CmxCell%20id%3D%222%22%20value%3D%22%22%20style%3D%22fontColor%3D%230066CC%3BverticalAlign%3Dtop%3BverticalLabelPosition%3Dbottom%3BlabelPosition%3Dcenter%3Balign%3Dcenter%3Bhtml%3D1%3BfillColor%3D%23FFFFFF%3BstrokeColor%3D%23000000%3BgradientColor%3Dnone%3BgradientDirection%3Dnorth%3BstrokeWidth%3D2%3Bshape%3Dmxgraph.сетях. radio_tower%3Brounded%3D1%3Bshadow%3D0%3Bcomic%3D0%3BlabelBackgroundColor%3Dnone%3B%22%20vertex%3D%221%22%20parent%3D%221%22%3E%3CmxGeometry%20x%3D%22921%22%20y%3D%221870%22%20width%3D%2255%22%20height%3D%22100%22%20as%3D%22geometry%22%2F%3E%3C%2FmxCell%3E%3C%2Froot%3E" style="fontColor=#0066CC;verticalAlign=top;verticalLabelPosition=bottom;labelPosition=center;align=center;html=1;fillColor=#FFFFFF;strokeColor=#000000;gradientColor=none;gradientDirection=north;strokeWidth=2;shape=mxgraph.networks.radio_tower;rounded=1;shadow=0;comic=0;labelBackgroundColor=none;" parent="1" vertex="1">
          <mxGeometry x="1064" y="1940" width="55" height="100" as="geometry" />
        </mxCell>
        <mxCell id="n8mmKqbnI36Tv_IBKcBF-50" value="&#xa;&lt;span style=&quot;color: rgba(0, 0, 0, 0); font-family: monospace; font-size: 0px; font-style: normal; font-variant-ligatures: normal; font-variant-caps: normal; font-weight: 400; letter-spacing: normal; orphans: 2; text-align: start; text-indent: 0px; text-transform: none; widows: 2; word-spacing: 0px; -webkit-text-stroke-width: 0px; background-color: rgb(251, 251, 251); text-decoration-thickness: initial; text-decoration-style: initial; text-decoration-color: initial; float: none; display: inline !important;&quot;&gt;%3CmxGraphModel%3E%3Croot%3E%3CmxCell%20id%3D%220%22%2F%3E%3CmxCell%20id%3D%221%22%20parent%3D%220%22%2F%3E%3CmxCell%20id%3D%222%22%20value%3D%22%22%20style%3D%22fontColor%3D%230066CC%3BverticalAlign%3Dtop%3BverticalLabelPosition%3Dbottom%3BlabelPosition%3Dcenter%3Balign%3Dcenter%3Bhtml%3D1%3BfillColor%3D%23FFFFFF%3BstrokeColor%3D%23000000%3BgradientColor%3Dnone%3BgradientDirection%3Dnorth%3BstrokeWidth%3D2%3Bshape%3Dmxgraph.сетях. radio_tower%3Brounded%3D1%3Bshadow%3D0%3Bcomic%3D0%3BlabelBackgroundColor%3Dnone%3B%22%20vertex%3D%221%22%20parent%3D%221%22%3E%3CmxGeometry%20x%3D%22606%22%20y%3D%22707%22%20width%3D%2255%22%20height%3D%22100%22%20as%3D%22geometry%22%2F%3E%3C%2FmxCell%3E%3C%2Froot%3E" style="fontColor=#0066CC;verticalAlign=top;verticalLabelPosition=bottom;labelPosition=center;align=center;html=1;fillColor=#FFFFFF;strokeColor=#000000;gradientColor=none;gradientDirection=north;strokeWidth=2;shape=mxgraph.networks.radio_tower;rounded=1;shadow=0;comic=0;labelBackgroundColor=none;" parent="1" vertex="1">
          <mxGeometry x="1661.5" y="1790" width="55" height="100" as="geometry" />
        </mxCell>
        <mxCell id="n8mmKqbnI36Tv_IBKcBF-51" value="&#xa;&lt;span style=&quot;color: rgba(0, 0, 0, 0); font-family: monospace; font-size: 0px; font-style: normal; font-variant-ligatures: normal; font-variant-caps: normal; font-weight: 400; letter-spacing: normal; orphans: 2; text-align: start; text-indent: 0px; text-transform: none; widows: 2; word-spacing: 0px; -webkit-text-stroke-width: 0px; background-color: rgb(251, 251, 251); text-decoration-thickness: initial; text-decoration-style: initial; text-decoration-color: initial; float: none; display: inline !important;&quot;&gt;%3CmxGraphModel%3E%3Croot%3E%3CmxCell%20id%3D%220%22%2F%3E%3CmxCell%20id%3D%221%22%20parent%3D%220%22%2F%3E%3CmxCell%20id%3D%222%22%20value%3D%22%22%20style%3D%22fontColor%3D%230066CC%3BverticalAlign%3Dtop%3BverticalLabelPosition%3Dbottom%3BlabelPosition%3Dcenter%3Balign%3Dcenter%3Bhtml%3D1%3BfillColor%3D%23FFFFFF%3BstrokeColor%3D%23000000%3BgradientColor%3Dnone%3BgradientDirection%3Dnorth%3BstrokeWidth%3D2%3Bshape%3Dmxgraph.сетях. radio_tower%3Brounded%3D1%3Bshadow%3D0%3Bcomic%3D0%3BlabelBackgroundColor%3Dnone%3B%22%20vertex%3D%221%22%20parent%3D%221%22%3E%3CmxGeometry%20x%3D%22606%22%20y%3D%22707%22%20width%3D%2255%22%20height%3D%22100%22%20as%3D%22geometry%22%2F%3E%3C%2FmxCell%3E%3C%2Froot%3E" style="fontColor=#0066CC;verticalAlign=top;verticalLabelPosition=bottom;labelPosition=center;align=center;html=1;fillColor=#FFFFFF;strokeColor=#000000;gradientColor=none;gradientDirection=north;strokeWidth=2;shape=mxgraph.networks.radio_tower;rounded=1;shadow=0;comic=0;labelBackgroundColor=none;" parent="1" vertex="1">
          <mxGeometry x="2380" y="1740" width="55" height="100" as="geometry" />
        </mxCell>
        <mxCell id="n8mmKqbnI36Tv_IBKcBF-52" value="&#xa;&lt;span style=&quot;color: rgba(0, 0, 0, 0); font-family: monospace; font-size: 0px; font-style: normal; font-variant-ligatures: normal; font-variant-caps: normal; font-weight: 400; letter-spacing: normal; orphans: 2; text-align: start; text-indent: 0px; text-transform: none; widows: 2; word-spacing: 0px; -webkit-text-stroke-width: 0px; background-color: rgb(251, 251, 251); text-decoration-thickness: initial; text-decoration-style: initial; text-decoration-color: initial; float: none; display: inline !important;&quot;&gt;%3CmxGraphModel%3E%3Croot%3E%3CmxCell%20id%3D%220%22%2F%3E%3CmxCell%20id%3D%221%22%20parent%3D%220%22%2F%3E%3CmxCell%20id%3D%222%22%20value%3D%22%22%20style%3D%22fontColor%3D%230066CC%3BverticalAlign%3Dtop%3BverticalLabelPosition%3Dbottom%3BlabelPosition%3Dcenter%3Balign%3Dcenter%3Bhtml%3D1%3BfillColor%3D%23FFFFFF%3BstrokeColor%3D%23000000%3BgradientColor%3Dnone%3BgradientDirection%3Dnorth%3BstrokeWidth%3D2%3Bshape%3Dmxgraph.сетях. radio_tower%3Brounded%3D1%3Bshadow%3D0%3Bcomic%3D0%3BlabelBackgroundColor%3Dnone%3B%22%20vertex%3D%221%22%20parent%3D%221%22%3E%3CmxGeometry%20x%3D%22606%22%20y%3D%22707%22%20width%3D%2255%22%20height%3D%22100%22%20as%3D%22geometry%22%2F%3E%3C%2FmxCell%3E%3C%2Froot%3E" style="fontColor=#0066CC;verticalAlign=top;verticalLabelPosition=bottom;labelPosition=center;align=center;html=1;fillColor=#FFFFFF;strokeColor=#000000;gradientColor=none;gradientDirection=north;strokeWidth=2;shape=mxgraph.networks.radio_tower;rounded=1;shadow=0;comic=0;labelBackgroundColor=none;" parent="1" vertex="1">
          <mxGeometry x="1893" y="1860" width="55" height="100" as="geometry" />
        </mxCell>
        <mxCell id="n8mmKqbnI36Tv_IBKcBF-53" value="&#xa;&lt;span style=&quot;color: rgba(0, 0, 0, 0); font-family: monospace; font-size: 0px; font-style: normal; font-variant-ligatures: normal; font-variant-caps: normal; font-weight: 400; letter-spacing: normal; orphans: 2; text-align: start; text-indent: 0px; text-transform: none; widows: 2; word-spacing: 0px; -webkit-text-stroke-width: 0px; background-color: rgb(251, 251, 251); text-decoration-thickness: initial; text-decoration-style: initial; text-decoration-color: initial; float: none; display: inline !important;&quot;&gt;%3CmxGraphModel%3E%3Croot%3E%3CmxCell%20id%3D%220%22%2F%3E%3CmxCell%20id%3D%221%22%20parent%3D%220%22%2F%3E%3CmxCell%20id%3D%222%22%20value%3D%22%22%20style%3D%22fontColor%3D%230066CC%3BverticalAlign%3Dtop%3BverticalLabelPosition%3Dbottom%3BlabelPosition%3Dcenter%3Balign%3Dcenter%3Bhtml%3D1%3BfillColor%3D%23FFFFFF%3BstrokeColor%3D%23000000%3BgradientColor%3Dnone%3BgradientDirection%3Dnorth%3BstrokeWidth%3D2%3Bshape%3Dmxgraph.сетях. radio_tower%3Brounded%3D1%3Bshadow%3D0%3Bcomic%3D0%3BlabelBackgroundColor%3Dnone%3B%22%20vertex%3D%221%22%20parent%3D%221%22%3E%3CmxGeometry%20x%3D%22606%22%20y%3D%22707%22%20width%3D%2255%22%20height%3D%22100%22%20as%3D%22geometry%22%2F%3E%3C%2FmxCell%3E%3C%2Froot%3E" style="fontColor=#0066CC;verticalAlign=top;verticalLabelPosition=bottom;labelPosition=center;align=center;html=1;fillColor=#FFFFFF;strokeColor=#000000;gradientColor=none;gradientDirection=north;strokeWidth=2;shape=mxgraph.networks.radio_tower;rounded=1;shadow=0;comic=0;labelBackgroundColor=none;" parent="1" vertex="1">
          <mxGeometry x="914" y="1200" width="55" height="100" as="geometry" />
        </mxCell>
        <mxCell id="n8mmKqbnI36Tv_IBKcBF-54" value="&#xa;&lt;span style=&quot;color: rgba(0, 0, 0, 0); font-family: monospace; font-size: 0px; font-style: normal; font-variant-ligatures: normal; font-variant-caps: normal; font-weight: 400; letter-spacing: normal; orphans: 2; text-align: start; text-indent: 0px; text-transform: none; widows: 2; word-spacing: 0px; -webkit-text-stroke-width: 0px; background-color: rgb(251, 251, 251); text-decoration-thickness: initial; text-decoration-style: initial; text-decoration-color: initial; float: none; display: inline !important;&quot;&gt;%3CmxGraphModel%3E%3Croot%3E%3CmxCell%20id%3D%220%22%2F%3E%3CmxCell%20id%3D%221%22%20parent%3D%220%22%2F%3E%3CmxCell%20id%3D%222%22%20value%3D%22%22%20style%3D%22fontColor%3D%230066CC%3BverticalAlign%3Dtop%3BverticalLabelPosition%3Dbottom%3BlabelPosition%3Dcenter%3Balign%3Dcenter%3Bhtml%3D1%3BfillColor%3D%23FFFFFF%3BstrokeColor%3D%23000000%3BgradientColor%3Dnone%3BgradientDirection%3Dnorth%3BstrokeWidth%3D2%3Bshape%3Dmxgraph.сетях. radio_tower%3Brounded%3D1%3Bshadow%3D0%3Bcomic%3D0%3BlabelBackgroundColor%3Dnone%3B%22%20vertex%3D%221%22%20parent%3D%221%22%3E%3CmxGeometry%20x%3D%22606%22%20y%3D%22707%22%20width%3D%2255%22%20height%3D%22100%22%20as%3D%22geometry%22%2F%3E%3C%2FmxCell%3E%3C%2Froot%3E" style="fontColor=#0066CC;verticalAlign=top;verticalLabelPosition=bottom;labelPosition=center;align=center;html=1;fillColor=#FFFFFF;strokeColor=#000000;gradientColor=none;gradientDirection=north;strokeWidth=2;shape=mxgraph.networks.radio_tower;rounded=1;shadow=0;comic=0;labelBackgroundColor=none;" parent="1" vertex="1">
          <mxGeometry x="1080" y="1430" width="55" height="100" as="geometry" />
        </mxCell>
        <mxCell id="n8mmKqbnI36Tv_IBKcBF-55" value="&#xa;&lt;span style=&quot;color: rgba(0, 0, 0, 0); font-family: monospace; font-size: 0px; font-style: normal; font-variant-ligatures: normal; font-variant-caps: normal; font-weight: 400; letter-spacing: normal; orphans: 2; text-align: start; text-indent: 0px; text-transform: none; widows: 2; word-spacing: 0px; -webkit-text-stroke-width: 0px; background-color: rgb(251, 251, 251); text-decoration-thickness: initial; text-decoration-style: initial; text-decoration-color: initial; float: none; display: inline !important;&quot;&gt;%3CmxGraphModel%3E%3Croot%3E%3CmxCell%20id%3D%220%22%2F%3E%3CmxCell%20id%3D%221%22%20parent%3D%220%22%2F%3E%3CmxCell%20id%3D%222%22%20value%3D%22%22%20style%3D%22fontColor%3D%230066CC%3BverticalAlign%3Dtop%3BverticalLabelPosition%3Dbottom%3BlabelPosition%3Dcenter%3Balign%3Dcenter%3Bhtml%3D1%3BfillColor%3D%23FFFFFF%3BstrokeColor%3D%23000000%3BgradientColor%3Dnone%3BgradientDirection%3Dnorth%3BstrokeWidth%3D2%3Bshape%3Dmxgraph.сетях. radio_tower%3Brounded%3D1%3Bshadow%3D0%3Bcomic%3D0%3BlabelBackgroundColor%3Dnone%3B%22%20vertex%3D%221%22%20parent%3D%221%22%3E%3CmxGeometry%20x%3D%22606%22%20y%3D%22707%22%20width%3D%2255%22%20height%3D%22100%22%20as%3D%22geometry%22%2F%3E%3C%2FmxCell%3E%3C%2Froot%3E" style="fontColor=#0066CC;verticalAlign=top;verticalLabelPosition=bottom;labelPosition=center;align=center;html=1;fillColor=#FFFFFF;strokeColor=#000000;gradientColor=none;gradientDirection=north;strokeWidth=2;shape=mxgraph.networks.radio_tower;rounded=1;shadow=0;comic=0;labelBackgroundColor=none;" parent="1" vertex="1">
          <mxGeometry x="1300" y="1810" width="55" height="100" as="geometry" />
        </mxCell>
        <mxCell id="n8mmKqbnI36Tv_IBKcBF-56" value="&#xa;&lt;span style=&quot;color: rgba(0, 0, 0, 0); font-family: monospace; font-size: 0px; font-style: normal; font-variant-ligatures: normal; font-variant-caps: normal; font-weight: 400; letter-spacing: normal; orphans: 2; text-align: start; text-indent: 0px; text-transform: none; widows: 2; word-spacing: 0px; -webkit-text-stroke-width: 0px; background-color: rgb(251, 251, 251); text-decoration-thickness: initial; text-decoration-style: initial; text-decoration-color: initial; float: none; display: inline !important;&quot;&gt;%3CmxGraphModel%3E%3Croot%3E%3CmxCell%20id%3D%220%22%2F%3E%3CmxCell%20id%3D%221%22%20parent%3D%220%22%2F%3E%3CmxCell%20id%3D%222%22%20value%3D%22%22%20style%3D%22fontColor%3D%230066CC%3BverticalAlign%3Dtop%3BverticalLabelPosition%3Dbottom%3BlabelPosition%3Dcenter%3Balign%3Dcenter%3Bhtml%3D1%3BfillColor%3D%23FFFFFF%3BstrokeColor%3D%23000000%3BgradientColor%3Dnone%3BgradientDirection%3Dnorth%3BstrokeWidth%3D2%3Bshape%3Dmxgraph.сетях. radio_tower%3Brounded%3D1%3Bshadow%3D0%3Bcomic%3D0%3BlabelBackgroundColor%3Dnone%3B%22%20vertex%3D%221%22%20parent%3D%221%22%3E%3CmxGeometry%20x%3D%22606%22%20y%3D%22707%22%20width%3D%2255%22%20height%3D%22100%22%20as%3D%22geometry%22%2F%3E%3C%2FmxCell%3E%3C%2Froot%3E" style="fontColor=#0066CC;verticalAlign=top;verticalLabelPosition=bottom;labelPosition=center;align=center;html=1;fillColor=#FFFFFF;strokeColor=#000000;gradientColor=none;gradientDirection=north;strokeWidth=2;shape=mxgraph.networks.radio_tower;rounded=1;shadow=0;comic=0;labelBackgroundColor=none;" parent="1" vertex="1">
          <mxGeometry x="656" y="2040" width="55" height="100" as="geometry" />
        </mxCell>
        <mxCell id="n8mmKqbnI36Tv_IBKcBF-58" value="&#xa;&lt;span style=&quot;color: rgba(0, 0, 0, 0); font-family: monospace; font-size: 0px; font-style: normal; font-variant-ligatures: normal; font-variant-caps: normal; font-weight: 400; letter-spacing: normal; orphans: 2; text-align: start; text-indent: 0px; text-transform: none; widows: 2; word-spacing: 0px; -webkit-text-stroke-width: 0px; background-color: rgb(251, 251, 251); text-decoration-thickness: initial; text-decoration-style: initial; text-decoration-color: initial; float: none; display: inline !important;&quot;&gt;%3CmxGraphModel%3E%3Croot%3E%3CmxCell%20id%3D%220%22%2F%3E%3CmxCell%20id%3D%221%22%20parent%3D%220%22%2F%3E%3CmxCell%20id%3D%222%22%20value%3D%22%26%2310%3B%26lt%3Bspan%20style%3D%26quot%3Bcolor%3Aa %20rgba(0%2C%200%2C%200%2C%200)%3B%20font-family%3A%20monospace%3B%20font-size%3A%200px%3B%20font-style%3A%20normal%3B%20font-variant-ligatures%3A%20normal%3B%20font-variant-caps%3A%20normal%3B%20font-weight%3A%20400%3B%20letter-spacing%3A% 20normal%3B%20orphans%3A%202%3B%20text-align%3A%20start%3B%20text-indent%3A%200px%3B%20text-transform%3A%20none%3B%20widows%3A%202%3B%20word-spacing%3A%200px%3B%20-webkit-text-stroke-width%3A%200px%3B%20background-color%3A%20rgb(251%2C%20251%2C%20251)%3B%20text-decoration-thickness%3A%20initial%3B%20text-decoration-style%3A%20initial%3B%20text-decoration-color%3A%20initial%3B%20float%3A%20none%3B%20display%3A%20inline%20! important%3B%26quot%3B%26gt%3B%253CmxGraphModel%253E%253Croot%253E%253CmxCell%2520id%253D%25220%2522%252F%253E%253CmxCell%2520id%253D%25221%2522%2520parent%253D%25220%2522%252F%253E%253CmxCell%2520 id%253D%25222%2522%2520value%253D%2522%2522%2520style%253D%2522endArrow%253Dnone%253Bdashed%253D1%253Bhtml%253D1%253Brounded%253D0%253BfillColor%253D%2523dae8fc%253BstrokeColor%253D%25236c8ebf%253BexitX%253D0... 5%253BexitY%253D0.15%253BexitDx%253D0%253BexitDy%253D0%253BexitPerimeter%253D0%253BentryX%253D0.5%253BentryY%253D0. %2015%253BentryDx%253D0%253BentryDy%253D0%253BentryPerimeter%253D0%253BstrokeWidth%253D4%253B%2522%2520edge%253D%25221%2522%2520parent%253D%25221%2522%253E%253CmxGeometry%2520width%253D%252250%2522%2520height%253D%252250%2522%2520%253%25221% 2522относительный%2520D%253%2522%2522as%253D%20geometry%253%2520Ee%253%2522684CmxPoint%2522x%2520D%253%25222055%2522y%2520D%253%2522%2522as%252D%253sourcePoint%253%2520F%253E%25221092CmxPoint%2522x%2520D%253%25221955%2522y%2520D% 253%2522%2522as%252D%253targetPoint%253%252F%253E%253C%252FmxGeometry%253E%253C%25FmxCell%202E%253C%253%252Froot%253E%22C%20FmxGraphModel%3E%22%3style%3D%3endArrow%1Dnone%3Bdashed%3D1%3Bhtml%3D0%3Brounded%3D23%8BfillColor%3D%3dae236fc%8BstrokeColor%3D%3c0ebf%5BexitX%3D3...0%15BexitY%3D3.0%3BexitDx%3D0%3BexitDy%3D0%3BexitPerimeter%3D0%5BentryX%3D3.0%15BentryY%3D3. 0%3BentryDx%3D0%3BentryDy%3D0%3BentryPerimeter%3D4%3BstrokeWidth%22D20%3B%221%22edge%20D%3%221%22parent%3D%3%20%3E%2250CmxGeometry%22width%20D%3%2250%22height%20D%3%221%22relative%20D%3%22%22as%3D%3geometry%20%3Ee %22684CmxPoint%22x%20D%3%222055%22y%20D%3%22%22as%2D%3sourcePoint%3%20F%3E%221092CmxPoint%22x%20D%3%221955%22y%20D%3%22%22as%2D%3targetPoint%3%2F%3E%3C%2FmxGeometry%3E%3C%2FmxCell%3E" style="endArrow=none;dashed=1;html=1;rounded=0;fillColor=#dae8fc;strokeColor=#6c8ebf;exitX=0.5;exitY=0.15;exitDx=0;exitDy=0;exitPerimeter=0;entryX=0.5;entryY=0.15;entryDx=0;entryDy=0;entryPerimeter=0;strokeWidth=4;" parent="1" source="n8mmKqbnI36Tv_IBKcBF-56" target="n8mmKqbnI36Tv_IBKcBF-47" edge="1">
          <mxGeometry width="50" height="50" relative="1" as="geometry">
            <mxPoint x="1029" y="2305" as="sourcePoint" />
            <mxPoint x="1209" y="2015" as="targetPoint" />
          </mxGeometry>
        </mxCell>
        <mxCell id="n8mmKqbnI36Tv_IBKcBF-59" value="&#xa;&lt;span style=&quot;color: rgba(0, 0, 0, 0); font-family: monospace; font-size: 0px; font-style: normal; font-variant-ligatures: normal; font-variant-caps: normal; font-weight: 400; letter-spacing: normal; orphans: 2; text-align: start; text-indent: 0px; text-transform: none; widows: 2; word-spacing: 0px; -webkit-text-stroke-width: 0px; background-color: rgb(251, 251, 251); text-decoration-thickness: initial; text-decoration-style: initial; text-decoration-color: initial; float: none; display: inline !important;&quot;&gt;%3CmxGraphModel%3E%3Croot%3E%3CmxCell%20id%3D%220%22%2F%3E%3CmxCell%20id%3D%221%22%20parent%3D%220%22%2F%3E%3CmxCell%20id%3D%222%22%20value%3D%22%26%2310%3B%26lt%3Bspan%20style%3D%26quot%3Bcolor%3Aa %20rgba(0%2C%200%2C%200%2C%200)%3B%20font-family%3A%20monospace%3B%20font-size%3A%200px%3B%20font-style%3A%20normal%3B%20font-variant-ligatures%3A%20normal%3B%20font-variant-caps%3A%20normal%3B%20font-weight%3A%20400%3B%20letter-spacing%3A% 20normal%3B%20orphans%3A%202%3B%20text-align%3A%20start%3B%20text-indent%3A%200px%3B%20text-transform%3A%20none%3B%20widows%3A%202%3B%20word-spacing%3A%200px%3B%20-webkit-text-stroke-width%3A%200px%3B%20background-color%3A%20rgb(251%2C%20251%2C%20251)%3B%20text-decoration-thickness%3A%20initial%3B%20text-decoration-style%3A%20initial%3B%20text-decoration-color%3A%20initial%3B%20float%3A%20none%3B%20display%3A%20inline%20! important%3B%26quot%3B%26gt%3B%253CmxGraphModel%253E%253Croot%253E%253CmxCell%2520id%253D%25220%2522%252F%253E%253CmxCell%2520id%253D%25221%2522%2520parent%253D%25220%2522%252F%253E%253CmxCell%2520 id%253D%25222%2522%2520value%253D%2522%2522%2520style%253D%2522endArrow%253Dnone%253Bdashed%253D1%253Bhtml%253D1%253Brounded%253D0%253BfillColor%253D%2523dae8fc%253BstrokeColor%253D%25236c8ebf%253BexitX%253D0... 459%253BexitY%253D0.245%253BexitDx%253D0%253BexitDy%253D0%253BexitPerimeter%253D0%253BentryX%253D0.5%253BentryY%253D0. %2015%253BentryDx%253D0%253BentryDy%253D0%253BentryPerimeter%253D0%253BstrokeWidth%253D4%253B%2522%2520edge%253D%25221%2522%2520parent%253D%25221%2522%253E%253CmxGeometry%2520width%253D%252250%2522%2520height%253D%252250%2522%2520%253%25221% 2522относительный%2520D%253%2522%2522as%253D%20geometry%253%2520Ee%253%25221918CmxPoint%2522x%2520D%253%25221884%2522y%2520D%253%2522%2522as%252D%253sourcePoint%253%2520F%253E%25221092CmxPoint%2522x%2520D%253%25221955%2522y%2520D% 253%2522%2522as%252D%253targetPoint%253%252F%253E%253C%252FmxGeometry%253E%253C%25FmxCell%202E%253C%253%252Froot%253E%22C%20FmxGraphModel%3E%22%3style%3D%3endArrow%1Dnone%3Bdashed%3D1%3Bhtml%3D0%3Brounded%3D23%8BfillColor%3D%3dae236fc%8BstrokeColor%3D%3c0ebf%5BexitX%3D3...0%15BexitY%3D3.0%3BexitDx%3D0%3BexitDy%3D0%3BexitPerimeter%3D0%5BentryX%3D3.0%15BentryY%3D3. 0%3BentryDx%3D0%3BentryDy%3D0%3BentryPerimeter%3D4%3BstrokeWidth%22D20%3B%221%22edge%20D%3%221%22parent%3D%3%20%3E%2250CmxGeometry%22width%20D%3%2250%22height%20D%3%221%22relative%20D%3%22%22as%3D%3geometry%20%3Ee %221328CmxPoint%22x%20D%3%221825%22y%20D%3%22%22as%2D%3sourcePoint%3%20F%3E%221092CmxPoint%22x%20D%3%221955%22y%20D%3%22%22as%2D%3targetPoint%3%2F%3E%3C%2FmxGeometry%3E%3C%2FmxCell%3E" style="endArrow=none;dashed=1;html=1;rounded=0;fillColor=#dae8fc;strokeColor=#6c8ebf;exitX=0.5;exitY=0.15;exitDx=0;exitDy=0;exitPerimeter=0;entryX=0.5;entryY=0.15;entryDx=0;entryDy=0;entryPerimeter=0;strokeWidth=4;" parent="1" source="n8mmKqbnI36Tv_IBKcBF-55" target="n8mmKqbnI36Tv_IBKcBF-47" edge="1">
          <mxGeometry width="50" height="50" relative="1" as="geometry">
            <mxPoint x="1678.9950000000003" y="1969.5" as="sourcePoint" />
            <mxPoint x="852.25" y="2040" as="targetPoint" />
          </mxGeometry>
        </mxCell>
        <mxCell id="n8mmKqbnI36Tv_IBKcBF-60" value="&#xa;&lt;span style=&quot;color: rgba(0, 0, 0, 0); font-family: monospace; font-size: 0px; font-style: normal; font-variant-ligatures: normal; font-variant-caps: normal; font-weight: 400; letter-spacing: normal; orphans: 2; text-align: start; text-indent: 0px; text-transform: none; widows: 2; word-spacing: 0px; -webkit-text-stroke-width: 0px; background-color: rgb(251, 251, 251); text-decoration-thickness: initial; text-decoration-style: initial; text-decoration-color: initial; float: none; display: inline !important;&quot;&gt;%3CmxGraphModel%3E%3Croot%3E%3CmxCell%20id%3D%220%22%2F%3E%3CmxCell%20id%3D%221%22%20parent%3D%220%22%2F%3E%3CmxCell%20id%3D%222%22%20value%3D%22%26%2310%3B%26lt%3Bspan%20style%3D%26quot%3Bcolor%3Aa %20rgba(0%2C%200%2C%200%2C%200)%3B%20font-family%3A%20monospace%3B%20font-size%3A%200px%3B%20font-style%3A%20normal%3B%20font-variant-ligatures%3A%20normal%3B%20font-variant-caps%3A%20normal%3B%20font-weight%3A%20400%3B%20letter-spacing%3A% 20normal%3B%20orphans%3A%202%3B%20text-align%3A%20start%3B%20text-indent%3A%200px%3B%20text-transform%3A%20none%3B%20widows%3A%202%3B%20word-spacing%3A%200px%3B%20-webkit-text-stroke-width%3A%200px%3B%20background-color%3A%20rgb(251%2C%20251%2C%20251)%3B%20text-decoration-thickness%3A%20initial%3B%20text-decoration-style%3A%20initial%3B%20text-decoration-color%3A%20initial%3B%20float%3A%20none%3B%20display%3A%20inline%20! important%3B%26quot%3B%26gt%3B%253CmxGraphModel%253E%253Croot%253E%253CmxCell%2520id%253D%25220%2522%252F%253E%253CmxCell%2520id%253D%25221%2522%2520parent%253D%25220%2522%252F%253E%253CmxCell%2520 id%253D%25222%2522%2520value%253D%2522%2522%2520style%253D%2522endArrow%253Dnone%253Bdashed%253D1%253Bhtml%253D1%253Brounded%253D0%253BfillColor%253D%2523dae8fc%253BstrokeColor%253D%25236c8ebf%253BexitX%253D0... 459%253BexitY%253D0.245%253BexitDx%253D0%253BexitDy%253D0%253BexitPerimeter%253D0%253BentryX%253D0.5%253BentryY%253D0. %2015%253BentryDx%253D0%253BentryDy%253D0%253BentryPerimeter%253D0%253BstrokeWidth%253D4%253B%2522%2520edge%253D%25221%2522%2520parent%253D%25221%2522%253E%253CmxGeometry%2520width%253D%252250%2522%2520height%253D%252250%2522%2520%253%25221% 2522относительный%2520D%253%2522%2522as%253D%20geometry%253%2520Ee%253%25221918CmxPoint%2522x%2520D%253%25221884%2522y%2520D%253%2522%2522as%252D%253sourcePoint%253%2520F%253E%25221092CmxPoint%2522x%2520D%253%25221955%2522y%2520D% 253%2522%2522as%252D%253targetPoint%253%252F%253E%253C%252FmxGeometry%253E%253C%25FmxCell%202E%253C%253%252Froot%253E%22C%20FmxGraphModel%3E%22%3style%3D%3endArrow%1Dnone%3Bdashed%3D1%3Bhtml%3D0%3Brounded%3D23%8BfillColor%3D%3dae236fc%8BstrokeColor%3D%3c0ebf%5BexitX%3D3...0%15BexitY%3D3.0%3BexitDx%3D0%3BexitDy%3D0%3BexitPerimeter%3D0%5BentryX%3D3.0%15BentryY%3D3. 0%3BentryDx%3D0%3BentryDy%3D0%3BentryPerimeter%3D4%3BstrokeWidth%22D20%3B%221%22edge%20D%3%221%22parent%3D%3%20%3E%2250CmxGeometry%22width%20D%3%2250%22height%20D%3%221%22relative%20D%3%22%22as%3D%3geometry%20%3Ee %221328CmxPoint%22x%20D%3%221825%22y%20D%3%22%22as%2D%3sourcePoint%3%20F%3E%221108CmxPoint%22x%20D%3%221445%22y%20D%3%22%22as%2D%3targetPoint%3%2F%3E%3C%2FmxGeometry%3E%3C%2FmxCell%3E" style="endArrow=none;dashed=1;html=1;rounded=0;fillColor=#dae8fc;strokeColor=#6c8ebf;exitX=0.5;exitY=0.15;exitDx=0;exitDy=0;exitPerimeter=0;entryX=0.5;entryY=0.15;entryDx=0;entryDy=0;entryPerimeter=0;strokeWidth=4;" parent="1" source="n8mmKqbnI36Tv_IBKcBF-55" target="n8mmKqbnI36Tv_IBKcBF-54" edge="1">
          <mxGeometry width="50" height="50" relative="1" as="geometry">
            <mxPoint x="1354.9950000000001" y="1768.6" as="sourcePoint" />
            <mxPoint x="1158.16" y="1440" as="targetPoint" />
          </mxGeometry>
        </mxCell>
        <mxCell id="n8mmKqbnI36Tv_IBKcBF-61" value="&#xa;&lt;span style=&quot;color: rgba(0, 0, 0, 0); font-family: monospace; font-size: 0px; font-style: normal; font-variant-ligatures: normal; font-variant-caps: normal; font-weight: 400; letter-spacing: normal; orphans: 2; text-align: start; text-indent: 0px; text-transform: none; widows: 2; word-spacing: 0px; -webkit-text-stroke-width: 0px; background-color: rgb(251, 251, 251); text-decoration-thickness: initial; text-decoration-style: initial; text-decoration-color: initial; float: none; display: inline !important;&quot;&gt;%3CmxGraphModel%3E%3Croot%3E%3CmxCell%20id%3D%220%22%2F%3E%3CmxCell%20id%3D%221%22%20parent%3D%220%22%2F%3E%3CmxCell%20id%3D%222%22%20value%3D%22%22%20style%3D%22endArrow%3Dnone%3Bdashed%3D1%3Bhtml%3D1%3Brounded%3D0%3BfillColor%3D%23dae8fc%3BstrokeColor%3D%236c8ebf%3BexitX%3D0...459%3BexitY%3D0.245%3BexitDx%3D0%3BexitDy%3D0%3BexitPerimeter%3D0%3BentryX%3D0.5%3BentryY%3D0. 15%3BentryDx%3D0%3BentryDy%3D0%3BentryPerimeter%3D0%3BstrokeWidth%3D4%3B%22%20edge%3D%221%22%20parent%3D%221%22%3E%3CmxGeometry%20width%3D%2250%22%20height%3D%2250%22%20relative%3D%221%22%20as%3D%22geometry%22%3Ee %3CmxPoint%20x%3D%221918%22%20y%3D%221884%22%20as%3D%22sourcePoint%22%2F%3E%3CmxPoint%20x%3D%221092%22%20y%3D%221955%22%20as%3D%22targetPoint%22%2F%3E%3C%2FmxGeometry%3E%3C%2FmxCell%3E%3C% 2Froot%3E%3C%2FmxGraphModel%3E" style="endArrow=none;dashed=1;html=1;rounded=0;fillColor=#dae8fc;strokeColor=#6c8ebf;entryX=0.5;entryY=0.15;entryDx=0;entryDy=0;entryPerimeter=0;strokeWidth=4;" parent="1" source="n8mmKqbnI36Tv_IBKcBF-64" target="n8mmKqbnI36Tv_IBKcBF-55" edge="1">
          <mxGeometry width="50" height="50" relative="1" as="geometry">
            <mxPoint x="1373" y="1785" as="sourcePoint" />
            <mxPoint x="1112" y="1975" as="targetPoint" />
          </mxGeometry>
        </mxCell>
        <mxCell id="n8mmKqbnI36Tv_IBKcBF-62" value="&#xa;&lt;span style=&quot;color: rgba(0, 0, 0, 0); font-family: monospace; font-size: 0px; font-style: normal; font-variant-ligatures: normal; font-variant-caps: normal; font-weight: 400; letter-spacing: normal; orphans: 2; text-align: start; text-indent: 0px; text-transform: none; widows: 2; word-spacing: 0px; -webkit-text-stroke-width: 0px; background-color: rgb(251, 251, 251); text-decoration-thickness: initial; text-decoration-style: initial; text-decoration-color: initial; float: none; display: inline !important;&quot;&gt;%3CmxGraphModel%3E%3Croot%3E%3CmxCell%20id%3D%220%22%2F%3E%3CmxCell%20id%3D%221%22%20parent%3D%220%22%2F%3E%3CmxCell%20id%3D%222%22%20value%3D%22%26%2310%3B%26lt%3Bspan%20style%3D%26quot%3Bcolor%3Aa %20rgba(0%2C%200%2C%200%2C%200)%3B%20font-family%3A%20monospace%3B%20font-size%3A%200px%3B%20font-style%3A%20normal%3B%20font-variant-ligatures%3A%20normal%3B%20font-variant-caps%3A%20normal%3B%20font-weight%3A%20400%3B%20letter-spacing%3A% 20normal%3B%20orphans%3A%202%3B%20text-align%3A%20start%3B%20text-indent%3A%200px%3B%20text-transform%3A%20none%3B%20widows%3A%202%3B%20word-spacing%3A%200px%3B%20-webkit-text-stroke-width%3A%200px%3B%20background-color%3A%20rgb(251%2C%20251%2C%20251)%3B%20text-decoration-thickness%3A%20initial%3B%20text-decoration-style%3A%20initial%3B%20text-decoration-color%3A%20initial%3B%20float%3A%20none%3B%20display%3A%20inline%20! important%3B%26quot%3B%26gt%3B%253CmxGraphModel%253E%253Croot%253E%253CmxCell%2520id%253D%25220%2522%252F%253E%253CmxCell%2520id%253D%25221%2522%2520parent%253D%25220%2522%252F%253E%253CmxCell%2520 id%253D%25222%2522%2520value%253D%2522%2522%2520style%253D%2522endArrow%253Dnone%253Bdashed%253D1%253Bhtml%253D1%253Brounded%253D0%253BfillColor%253D%2523dae8fc%253BstrokeColor%253D%25236c8ebf%253BexitX%253D0... 459%253BexitY%253D0.245%253BexitDx%253D0%253BexitDy%253D0%253BexitPerimeter%253D0%253BentryX%253D0.5%253BentryY%253D0. %2015%253BentryDx%253D0%253BentryDy%253D0%253BentryPerimeter%253D0%253BstrokeWidth%253D4%253B%2522%2520edge%253D%25221%2522%2520parent%253D%25221%2522%253E%253CmxGeometry%2520width%253D%252250%2522%2520height%253D%252250%2522%2520%253%25221% 2522относительный%2520D%253%2522%2522as%253D%20geometry%253%2520Ee%253%25221918CmxPoint%2522x%2520D%253%25221884%2522y%2520D%253%2522%2522as%252D%253sourcePoint%253%2520F%253E%25221092CmxPoint%2522x%2520D%253%25221955%2522y%2520D% 253%2522%2522as%252D%253targetPoint%253%252F%253E%253C%252FmxGeometry%253E%253C%25FmxCell%202E%253C%253%252Froot%253E%22C%20FmxGraphModel%3E%22%3style%3D%3endArrow%1Dnone%3Bdashed%3D1%3Bhtml%3D0%3Brounded%3D23%8BfillColor%3D%3dae236fc%8BstrokeColor%3D%3c0ebf%5BexitX%3D3...0%15BexitY%3D3.0%3BexitDx%3D0%3BexitDy%3D0%3BexitPerimeter%3D0%5BentryX%3D3.0%15BentryY%3D3. 0%3BentryDx%3D0%3BentryDy%3D0%3BentryPerimeter%3D4%3BstrokeWidth%22D20%3B%221%22edge%20D%3%221%22parent%3D%3%20%3E%2250CmxGeometry%22width%20D%3%2250%22height%20D%3%221%22relative%20D%3%22%22as%3D%3geometry%20%3Ee %221921CmxPoint%22x%20D%3%221875%22y%20D%3%22%22as%2D%3sourcePoint%3%20F%3E%221689CmxPoint%22x%20D%3%221805%22y%20D%3%22%22as%2D%3targetPoint%3%2F%3E%3C%2FmxGeometry%3E%3C%2FmxCell%3E" style="endArrow=none;dashed=1;html=1;rounded=0;fillColor=#dae8fc;strokeColor=#6c8ebf;exitX=0.5;exitY=0.15;exitDx=0;exitDy=0;exitPerimeter=0;entryX=0.5;entryY=0.15;entryDx=0;entryDy=0;entryPerimeter=0;strokeWidth=4;" parent="1" source="n8mmKqbnI36Tv_IBKcBF-52" target="n8mmKqbnI36Tv_IBKcBF-50" edge="1">
          <mxGeometry width="50" height="50" relative="1" as="geometry">
            <mxPoint x="1383" y="1795" as="sourcePoint" />
            <mxPoint x="1122" y="1985" as="targetPoint" />
          </mxGeometry>
        </mxCell>
        <mxCell id="n8mmKqbnI36Tv_IBKcBF-63" value="&#xa;&lt;span style=&quot;color: rgba(0, 0, 0, 0); font-family: monospace; font-size: 0px; font-style: normal; font-variant-ligatures: normal; font-variant-caps: normal; font-weight: 400; letter-spacing: normal; orphans: 2; text-align: start; text-indent: 0px; text-transform: none; widows: 2; word-spacing: 0px; -webkit-text-stroke-width: 0px; background-color: rgb(251, 251, 251); text-decoration-thickness: initial; text-decoration-style: initial; text-decoration-color: initial; float: none; display: inline !important;&quot;&gt;%3CmxGraphModel%3E%3Croot%3E%3CmxCell%20id%3D%220%22%2F%3E%3CmxCell%20id%3D%221%22%20parent%3D%220%22%2F%3E%3CmxCell%20id%3D%222%22%20value%3D%22%26%2310%3B%26lt%3Bspan%20style%3D%26quot%3Bcolor%3Aa %20rgba(0%2C%200%2C%200%2C%200)%3B%20font-family%3A%20monospace%3B%20font-size%3A%200px%3B%20font-style%3A%20normal%3B%20font-variant-ligatures%3A%20normal%3B%20font-variant-caps%3A%20normal%3B%20font-weight%3A%20400%3B%20letter-spacing%3A% 20normal%3B%20orphans%3A%202%3B%20text-align%3A%20start%3B%20text-indent%3A%200px%3B%20text-transform%3A%20none%3B%20widows%3A%202%3B%20word-spacing%3A%200px%3B%20-webkit-text-stroke-width%3A%200px%3B%20background-color%3A%20rgb(251%2C%20251%2C%20251)%3B%20text-decoration-thickness%3A%20initial%3B%20text-decoration-style%3A%20initial%3B%20text-decoration-color%3A%20initial%3B%20float%3A%20none%3B%20display%3A%20inline%20! important%3B%26quot%3B%26gt%3B%253CmxGraphModel%253E%253Croot%253E%253CmxCell%2520id%253D%25220%2522%252F%253E%253CmxCell%2520id%253D%25221%2522%2520parent%253D%25220%2522%252F%253E%253CmxCell%2520 id%253D%25222%2522%2520value%253D%2522%2522%2520style%253D%2522endArrow%253Dnone%253Bdashed%253D1%253Bhtml%253D1%253Brounded%253D0%253BfillColor%253D%2523dae8fc%253BstrokeColor%253D%25236c8ebf%253BexitX%253D0... 459%253BexitY%253D0.245%253BexitDx%253D0%253BexitDy%253D0%253BexitPerimeter%253D0%253BentryX%253D0.5%253BentryY%253D0. %2015%253BentryDx%253D0%253BentryDy%253D0%253BentryPerimeter%253D0%253BstrokeWidth%253D4%253B%2522%2520edge%253D%25221%2522%2520parent%253D%25221%2522%253E%253CmxGeometry%2520width%253D%252250%2522%2520height%253D%252250%2522%2520%253%25221% 2522относительный%2520D%253%2522%2522as%253D%20geometry%253%2520Ee%253%25221918CmxPoint%2522x%2520D%253%25221884%2522y%2520D%253%2522%2522as%252D%253sourcePoint%253%2520F%253E%25221092CmxPoint%2522x%2520D%253%25221955%2522y%2520D% 253%2522%2522as%252D%253targetPoint%253%252F%253E%253C%252FmxGeometry%253E%253C%25FmxCell%202E%253C%253%252Froot%253E%22C%20FmxGraphModel%3E%22%3style%3D%3endArrow%1Dnone%3Bdashed%3D1%3Bhtml%3D0%3Brounded%3D23%8BfillColor%3D%3dae236fc%8BstrokeColor%3D%3c0ebf%5BexitX%3D3...0%15BexitY%3D3.0%3BexitDx%3D0%3BexitDy%3D0%3BexitPerimeter%3D0%5BentryX%3D3.0%15BentryY%3D3. 0%3BentryDx%3D0%3BentryDy%3D0%3BentryPerimeter%3D4%3BstrokeWidth%22D20%3B%221%22edge%20D%3%221%22parent%3D%3%20%3E%2250CmxGeometry%22width%20D%3%2250%22height%20D%3%221%22relative%20D%3%22%22as%3D%3geometry%20%3Ee %222408CmxPoint%22x%20D%3%221755%22y%20D%3%22%22as%2D%3sourcePoint%3%20F%3E%221921CmxPoint%22x%20D%3%221875%22y%20D%3%22%22as%2D%3targetPoint%3%2F%3E%3C%2FmxGeometry%3E%3C%2FmxCell%3E" style="endArrow=none;dashed=1;html=1;rounded=0;fillColor=#dae8fc;strokeColor=#6c8ebf;exitX=0.5;exitY=0.15;exitDx=0;exitDy=0;exitPerimeter=0;entryX=0.5;entryY=0.15;entryDx=0;entryDy=0;entryPerimeter=0;strokeWidth=4;" parent="1" source="n8mmKqbnI36Tv_IBKcBF-51" target="n8mmKqbnI36Tv_IBKcBF-52" edge="1">
          <mxGeometry width="50" height="50" relative="1" as="geometry">
            <mxPoint x="1393" y="1805" as="sourcePoint" />
            <mxPoint x="1132" y="1995" as="targetPoint" />
          </mxGeometry>
        </mxCell>
        <mxCell id="n8mmKqbnI36Tv_IBKcBF-65" value="" style="endArrow=none;dashed=1;html=1;rounded=0;fillColor=#dae8fc;strokeColor=#6c8ebf;exitX=0.5;exitY=0.15;exitDx=0;exitDy=0;exitPerimeter=0;entryX=1;entryY=0.5;entryDx=0;entryDy=0;entryPerimeter=0;strokeWidth=4;" parent="1" source="n8mmKqbnI36Tv_IBKcBF-50" target="n8mmKqbnI36Tv_IBKcBF-64" edge="1">
          <mxGeometry width="50" height="50" relative="1" as="geometry">
            <mxPoint x="1689" y="1805" as="sourcePoint" />
            <mxPoint x="1328" y="1825" as="targetPoint" />
          </mxGeometry>
        </mxCell>
        <mxCell id="n8mmKqbnI36Tv_IBKcBF-64" value="" style="fontColor=#0066CC;verticalAlign=top;verticalLabelPosition=bottom;labelPosition=center;align=center;html=1;outlineConnect=0;fillColor=#CCCCCC;strokeColor=#6881B3;gradientColor=none;gradientDirection=north;strokeWidth=2;shape=mxgraph.networks.community;" parent="1" vertex="1">
          <mxGeometry x="1466" y="1790" width="95" height="100" as="geometry" />
        </mxCell>
        <mxCell id="n8mmKqbnI36Tv_IBKcBF-66" value="&#xa;&lt;span style=&quot;color: rgba(0, 0, 0, 0); font-family: monospace; font-size: 0px; font-style: normal; font-variant-ligatures: normal; font-variant-caps: normal; font-weight: 400; letter-spacing: normal; orphans: 2; text-align: start; text-indent: 0px; text-transform: none; widows: 2; word-spacing: 0px; -webkit-text-stroke-width: 0px; background-color: rgb(251, 251, 251); text-decoration-thickness: initial; text-decoration-style: initial; text-decoration-color: initial; float: none; display: inline !important;&quot;&gt;%3CmxGraphModel%3E%3Croot%3E%3CmxCell%20id%3D%220%22%2F%3E%3CmxCell%20id%3D%221%22%20parent%3D%220%22%2F%3E%3CmxCell%20id%3D%222%22%20value%3D%22%26%2310%3B%26lt%3Bspan%20style%3D%26quot%3Bcolor%3Aa %20rgba(0%2C%200%2C%200%2C%200)%3B%20font-family%3A%20monospace%3B%20font-size%3A%200px%3B%20font-style%3A%20normal%3B%20font-variant-ligatures%3A%20normal%3B%20font-variant-caps%3A%20normal%3B%20font-weight%3A%20400%3B%20letter-spacing%3A% 20normal%3B%20orphans%3A%202%3B%20text-align%3A%20start%3B%20text-indent%3A%200px%3B%20text-transform%3A%20none%3B%20widows%3A%202%3B%20word-spacing%3A%200px%3B%20-webkit-text-stroke-width%3A%200px%3B%20background-color%3A%20rgb(251%2C%20251%2C%20251)%3B%20text-decoration-thickness%3A%20initial%3B%20text-decoration-style%3A%20initial%3B%20text-decoration-color%3A%20initial%3B%20float%3A%20none%3B%20display%3A%20inline%20! important%3B%26quot%3B%26gt%3B%253CmxGraphModel%253E%253Croot%253E%253CmxCell%2520id%253D%25220%2522%252F%253E%253CmxCell%2520id%253D%25221%2522%2520parent%253D%25220%2522%252F%253E%253CmxCell%2520CmxCell 253id%25222D%2522%2520%253value%2522D%2522%2520%253style%2522D%253endArrow%253Dnone%253Bhtml%1D253%253Brounded%0D253%253BstrokeColor%2523D%0080FF253%253BstrokeWidth%7D253%253BentryX%0D253%253BentryY%0D205. %253%253BentryDx%0D253%253BentryDy%0D253%253BentryPerimeter%0D253%253BexitX%1D253%253BexitY%1D253%253BexitDx%0D253%253BexitDy%0D253%253BexitPerimeter%0D253%2522B%2520%253edge%25221D%2522%2520%253parent%25221D%2522%253%253%2520E%253CmxGeometry%252250width%2522D%2520%253%252250height%2022D%2520%253%25221%2522relative%2520D%253%2522%2522as%253D%253geometry%2520%253E%25221434CmxPoint%2522x%2520D%253%25221660%2522y%2520D%253%2522%2522as%252D% 253sourcePoint%253%2520F%253E%25221569CmxPoint%2522x%2520D%253%25221755%2522y%2520D%253%2522%2522as%252D%253targetPoint%25%203F%252%253E%253C%252Fmxx Geometry%253E%253C%252FmxCell%253E%253C%22Froot%20E%3%22style%3D%3endArrow%3Dnone%1Bhtml%3D3%0Brounded%3D3%23BstrokeColor%0080D%3FF3%7BstrokeWidth%3D3%0BentryX%3D3%0BentryY%5D3. 3%0BentryDx%3D3%0BentryDy%3D3%0BentryPerimeter%3D3%1BexitX%3D3%1BexitY%3D3%0BexitDx%3D3%0BexitDy%3D3%0BexitPerimeter%3D22%20B%3%221edge%22D%20%3%221parent%22D%3%3%20E%3CmxGeometry%2250width%22D%20%3%2250height%22D%20 3%221%22relative%20D%3%22%22as%3D%3geometry%20%3E%221434CmxPoint%22x%20D%3%221660%22y%20D%3%22%22as%2D%3sourcePoint%3%20F%3E%221719CmxPoint%22x%20D%3%221725%22y%20D%3%22%22as%2D%3targetPoint%3%2F% 3E%3C%2FmxGeometry%3E%3C%2FmxCell%3E%3C%2Froot%3E" style="endArrow=none;html=1;rounded=0;strokeColor=#FF0080;strokeWidth=7;entryX=-0.034;entryY=0.878;entryDx=0;entryDy=0;entryPerimeter=0;" parent="1" source="n8mmKqbnI36Tv_IBKcBF-64" target="n8mmKqbnI36Tv_IBKcBF-8" edge="1">
          <mxGeometry width="50" height="50" relative="1" as="geometry">
            <mxPoint x="1444" y="1670" as="sourcePoint" />
            <mxPoint x="1729" y="1735" as="targetPoint" />
          </mxGeometry>
        </mxCell>
        <mxCell id="n8mmKqbnI36Tv_IBKcBF-67" value="&#xa;&lt;span style=&quot;color: rgba(0, 0, 0, 0); font-family: monospace; font-size: 0px; font-style: normal; font-variant-ligatures: normal; font-variant-caps: normal; font-weight: 400; letter-spacing: normal; orphans: 2; text-align: start; text-indent: 0px; text-transform: none; widows: 2; word-spacing: 0px; -webkit-text-stroke-width: 0px; background-color: rgb(251, 251, 251); text-decoration-thickness: initial; text-decoration-style: initial; text-decoration-color: initial; float: none; display: inline !important;&quot;&gt;%3CmxGraphModel%3E%3Croot%3E%3CmxCell%20id%3D%220%22%2F%3E%3CmxCell%20id%3D%221%22%20parent%3D%220%22%2F%3E%3CmxCell%20id%3D%222%22%20value%3D%22%26%2310%3B%26lt%3Bspan%20style%3D%26quot%3Bcolor%3Aa %20rgba(0%2C%200%2C%200%2C%200)%3B%20font-family%3A%20monospace%3B%20font-size%3A%200px%3B%20font-style%3A%20normal%3B%20font-variant-ligatures%3A%20normal%3B%20font-variant-caps%3A%20normal%3B%20font-weight%3A%20400%3B%20letter-spacing%3A% 20normal%3B%20orphans%3A%202%3B%20text-align%3A%20start%3B%20text-indent%3A%200px%3B%20text-transform%3A%20none%3B%20widows%3A%202%3B%20word-spacing%3A%200px%3B%20-webkit-text-stroke-width%3A%200px%3B%20background-color%3A%20rgb(251%2C%20251%2C%20251)%3B%20text-decoration-thickness%3A%20initial%3B%20text-decoration-style%3A%20initial%3B%20text-decoration-color%3A%20initial%3B%20float%3A%20none%3B%20display%3A%20inline%20! important%3B%26quot%3B%26gt%3B%253CmxGraphModel%253E%253Croot%253E%253CmxCell%2520id%253D%25220%2522%252F%253E%253CmxCell%2520id%253D%25221%2522%2520parent%253D%25220%2522%252F%253E%253CmxCell%2520CmxCell 253id%25222D%2522%2520%253value%2522D%2522%2520%253style%2522D%253endArrow%253Dnone%253Bhtml%1D253%253Brounded%0D253%253BstrokeColor%2523D%0080FF253%253BstrokeWidth%7D253%253BentryX%0D253%253BentryY%0D205. %253%253BentryDx%0D253%253BentryDy%0D253%253BentryPerimeter%0D253%253BexitX%1D253%253BexitY%1D253%253BexitDx%0D253%253BexitDy%0D253%253BexitPerimeter%0D253%2522B%2520%253edge%25221D%2522%2520%253parent%25221D%2522%253%253%2520E%253CmxGeometry%252250width%2522D%2520%253%252250height%2022D%2520%253%25221%2522relative%2520D%253%2522%2522as%253D%253geometry%2520%253E%25221434CmxPoint%2522x%2520D%253%25221660%2522y%2520D%253%2522%2522as%252D% 253sourcePoint%253%2520F%253E%25221569CmxPoint%2522x%2520D%253%25221755%2522y%2520D%253%2522%2522as%252D%253targetPoint%25%203F%252%253E%253C%252Fmxx Geometry%253E%253C%252FmxCell%253E%253C%22Froot%20E%3%22style%3D%3endArrow%3Dnone%1Bhtml%3D3%0Brounded%3D3%23BstrokeColor%0080D%3FF3%7BstrokeWidth%3D3%0BentryX%3D3%0BentryY%5D3. 3%0BentryDx%3D3%0BentryDy%3D3%0BentryPerimeter%3D3%1BexitX%3D3%1BexitY%3D3%0BexitDx%3D3%0BexitDy%3D3%0BexitPerimeter%3D22%20B%3%221edge%22D%20%3%221parent%22D%3%3%20E%3CmxGeometry%2250width%22D%20%3%2250height%22D%20 3%221%22relative%20D%3%22%22as%3D%3geometry%20%3E%221434CmxPoint%22x%20D%3%221660%22y%20D%3%22%22as%2D%3sourcePoint%3%20F%3E%221719CmxPoint%22x%20D%3%221725%22y%20D%3%22%22as%2D%3targetPoint%3%2F% 3E%3C%2FmxGeometry%3E%3C%2FmxCell%3E%3C%2Froot%3E" style="endArrow=none;html=1;rounded=0;strokeColor=#FF0080;strokeWidth=7;exitX=0.966;exitY=0.848;exitDx=0;exitDy=0;exitPerimeter=0;" parent="1" source="n8mmKqbnI36Tv_IBKcBF-15" target="n8mmKqbnI36Tv_IBKcBF-64" edge="1">
          <mxGeometry width="50" height="50" relative="1" as="geometry">
            <mxPoint x="1571" y="1832" as="sourcePoint" />
            <mxPoint x="1726" y="1773" as="targetPoint" />
          </mxGeometry>
        </mxCell>
        <mxCell id="n8mmKqbnI36Tv_IBKcBF-68" value="&#xa;&lt;span style=&quot;color: rgba(0, 0, 0, 0); font-family: monospace; font-size: 0px; font-style: normal; font-variant-ligatures: normal; font-variant-caps: normal; font-weight: 400; letter-spacing: normal; orphans: 2; text-align: start; text-indent: 0px; text-transform: none; widows: 2; word-spacing: 0px; -webkit-text-stroke-width: 0px; background-color: rgb(251, 251, 251); text-decoration-thickness: initial; text-decoration-style: initial; text-decoration-color: initial; float: none; display: inline !important;&quot;&gt;%3CmxGraphModel%3E%3Croot%3E%3CmxCell%20id%3D%220%22%2F%3E%3CmxCell%20id%3D%221%22%20parent%3D%220%22%2F%3E%3CmxCell%20id%3D%222%22%20value%3D%22%26%2310%3B%26lt%3Bspan%20style%3D%26quot%3Bcolor%3Aa %20rgba(0%2C%200%2C%200%2C%200)%3B%20font-family%3A%20monospace%3B%20font-size%3A%200px%3B%20font-style%3A%20normal%3B%20font-variant-ligatures%3A%20normal%3B%20font-variant-caps%3A%20normal%3B%20font-weight%3A%20400%3B%20letter-spacing%3A% 20normal%3B%20orphans%3A%202%3B%20text-align%3A%20start%3B%20text-indent%3A%200px%3B%20text-transform%3A%20none%3B%20widows%3A%202%3B%20word-spacing%3A%200px%3B%20-webkit-text-stroke-width%3A%200px%3B%20background-color%3A%20rgb(251%2C%20251%2C%20251)%3B%20text-decoration-thickness%3A%20initial%3B%20text-decoration-style%3A%20initial%3B%20text-decoration-color%3A%20initial%3B%20float%3A%20none%3B%20display%3A%20inline%20! important%3B%26quot%3B%26gt%3B%253CmxGraphModel%253E%253Croot%253E%253CmxCell%2520id%253D%25220%2522%252F%253E%253CmxCell%2520id%253D%25221%2522%2520parent%253D%25220%2522%252F%253E%253CmxCell%2520 id%253D%25222%2522%2520value%253D%2522%2522%2520style%253D%2522endArrow%253Dnone%253Bdashed%253D1%253Bhtml%253D1%253Brounded%253D0%253BfillColor%253D%2523dae8fc%253BstrokeColor%253D%25236c8ebf%253BexitX%253D0... 459%253BexitY%253D0.245%253BexitDx%253D0%253BexitDy%253D0%253BexitPerimeter%253D0%253BentryX%253D0.5%253BentryY%253D0. %2015%253BentryDx%253D0%253BentryDy%253D0%253BentryPerimeter%253D0%253BstrokeWidth%253D4%253B%2522%2520edge%253D%25221%2522%2520parent%253D%25221%2522%253E%253CmxGeometry%2520width%253D%252250%2522%2520height%253D%252250%2522%2520%253%25221% 2522относительный%2520D%253%2522%2522as%253D%20geometry%253%2520Ee%253%25221918CmxPoint%2522x%2520D%253%25221884%2522y%2520D%253%2522%2522as%252D%253sourcePoint%253%2520F%253E%25221092CmxPoint%2522x%2520D%253%25221955%2522y%2520D% 253%2522%2522as%252D%253targetPoint%253%252F%253E%253C%252FmxGeometry%253E%253C%25FmxCell%202E%253C%253%252Froot%253E%22C%20FmxGraphModel%3E%22%3style%3D%3endArrow%1Dnone%3Bdashed%3D1%3Bhtml%3D0%3Brounded%3D23%8BfillColor%3D%3dae236fc%8BstrokeColor%3D%3c0ebf%5BexitX%3D3...0%15BexitY%3D3.0%3BexitDx%3D0%3BexitDy%3D0%3BexitPerimeter%3D0%5BentryX%3D3.0%15BentryY%3D3. 0%3BentryDx%3D0%3BentryDy%3D0%3BentryPerimeter%3D4%3BstrokeWidth%22D20%3B%221%22edge%20D%3%221%22parent%3D%3%20%3E%2250CmxGeometry%22width%20D%3%2250%22height%20D%3%221%22relative%20D%3%22%22as%3D%3geometry%20%3Ee %221328CmxPoint%22x%20D%3%221825%22y%20D%3%22%22as%2D%3sourcePoint%3%20F%3E%221108CmxPoint%22x%20D%3%221445%22y%20D%3%22%22as%2D%3targetPoint%3%2F%3E%3C%2FmxGeometry%3E%3C%2FmxCell%3E" style="endArrow=none;dashed=1;html=1;rounded=0;fillColor=#dae8fc;strokeColor=#6c8ebf;exitX=0.5;exitY=0.15;exitDx=0;exitDy=0;exitPerimeter=0;entryX=0.5;entryY=0.15;entryDx=0;entryDy=0;entryPerimeter=0;strokeWidth=4;" parent="1" source="n8mmKqbnI36Tv_IBKcBF-54" target="n8mmKqbnI36Tv_IBKcBF-53" edge="1">
          <mxGeometry width="50" height="50" relative="1" as="geometry">
            <mxPoint x="1338" y="1835" as="sourcePoint" />
            <mxPoint x="1118" y="1455" as="targetPoint" />
          </mxGeometry>
        </mxCell>
        <mxCell id="n8mmKqbnI36Tv_IBKcBF-69" value="&#xa;&lt;span style=&quot;color: rgba(0, 0, 0, 0); font-family: monospace; font-size: 0px; font-style: normal; font-variant-ligatures: normal; font-variant-caps: normal; font-weight: 400; letter-spacing: normal; orphans: 2; text-align: start; text-indent: 0px; text-transform: none; widows: 2; word-spacing: 0px; -webkit-text-stroke-width: 0px; background-color: rgb(251, 251, 251); text-decoration-thickness: initial; text-decoration-style: initial; text-decoration-color: initial; float: none; display: inline !important;&quot;&gt;%3CmxGraphModel%3E%3Croot%3E%3CmxCell%20id%3D%220%22%2F%3E%3CmxCell%20id%3D%221%22%20parent%3D%220%22%2F%3E%3CmxCell%20id%3D%222%22%20value%3D%22%26%2310%3B%26lt%3Bspan%20style%3D%26quot%3Bcolor%3Aa %20rgba(0%2C%200%2C%200%2C%200)%3B%20font-family%3A%20monospace%3B%20font-size%3A%200px%3B%20font-style%3A%20normal%3B%20font-variant-ligatures%3A%20normal%3B%20font-variant-caps%3A%20normal%3B%20font-weight%3A%20400%3B%20letter-spacing%3A% 20normal%3B%20orphans%3A%202%3B%20text-align%3A%20start%3B%20text-indent%3A%200px%3B%20text-transform%3A%20none%3B%20widows%3A%202%3B%20word-spacing%3A%200px%3B%20-webkit-text-stroke-width%3A%200px%3B%20background-color%3A%20rgb(251%2C%20251%2C%20251)%3B%20text-decoration-thickness%3A%20initial%3B%20text-decoration-style%3A%20initial%3B%20text-decoration-color%3A%20initial%3B%20float%3A%20none%3B%20display%3A%20inline%20! important%3B%26quot%3B%26gt%3B%253CmxGraphModel%253E%253Croot%253E%253CmxCell%2520id%253D%25220%2522%252F%253E%253CmxCell%2520id%253D%25221%2522%2520parent%253D%25220%2522%252F%253E%253CmxCell%2520 id%253D%25222%2522%2520value%253D%2522%2522%2520style%253D%2522endArrow%253Dnone%253Bdashed%253D1%253Bhtml%253D1%253Brounded%253D0%253BfillColor%253D%2523dae8fc%253BstrokeColor%253D%25236c8ebf%253BexitX%253D0... 459%253BexitY%253D0.245%253BexitDx%253D0%253BexitDy%253D0%253BexitPerimeter%253D0%253BentryX%253D0.5%253BentryY%253D0. %2015%253BentryDx%253D0%253BentryDy%253D0%253BentryPerimeter%253D0%253BstrokeWidth%253D4%253B%2522%2520edge%253D%25221%2522%2520parent%253D%25221%2522%253E%253CmxGeometry%2520width%253D%252250%2522%2520height%253D%252250%2522%2520%253%25221% 2522относительный%2520D%253%2522%2522as%253D%20geometry%253%2520Ee%253%25221918CmxPoint%2522x%2520D%253%25221884%2522y%2520D%253%2522%2522as%252D%253sourcePoint%253%2520F%253E%25221092CmxPoint%2522x%2520D%253%25221955%2522y%2520D% 253%2522%2522as%252D%253targetPoint%253%252F%253E%253C%252FmxGeometry%253E%253C%25FmxCell%202E%253C%253%252Froot%253E%22C%20FmxGraphModel%3E%22%3style%3D%3endArrow%1Dnone%3Bdashed%3D1%3Bhtml%3D0%3Brounded%3D23%8BfillColor%3D%3dae236fc%8BstrokeColor%3D%3c0ebf%5BexitX%3D3...0%15BexitY%3D3.0%3BexitDx%3D0%3BexitDy%3D0%3BexitPerimeter%3D0%5BentryX%3D3.0%15BentryY%3D3. 0%3BentryDx%3D0%3BentryDy%3D0%3BentryPerimeter%3D4%3BstrokeWidth%22D20%3B%221%22edge%20D%3%221%22parent%3D%3%20%3E%2250CmxGeometry%22width%20D%3%2250%22height%20D%3%221%22relative%20D%3%22%22as%3D%3geometry%20%3Ee %221328CmxPoint%22x%20D%3%221825%22y%20D%3%22%22as%2D%3sourcePoint%3%20F%3E%221108CmxPoint%22x%20D%3%221445%22y%20D%3%22%22as%2D%3targetPoint%3%2F%3E%3C%2FmxGeometry%3E%3C%2FmxCell%3E" style="endArrow=none;dashed=1;html=1;rounded=0;fillColor=#dae8fc;strokeColor=#6c8ebf;exitX=0.5;exitY=0.15;exitDx=0;exitDy=0;exitPerimeter=0;entryX=1;entryY=0.5;entryDx=0;entryDy=0;entryPerimeter=0;strokeWidth=4;" parent="1" source="n8mmKqbnI36Tv_IBKcBF-53" target="n8mmKqbnI36Tv_IBKcBF-23" edge="1">
          <mxGeometry width="50" height="50" relative="1" as="geometry">
            <mxPoint x="1118" y="1455" as="sourcePoint" />
            <mxPoint x="952" y="1225" as="targetPoint" />
          </mxGeometry>
        </mxCell>
        <mxCell id="n8mmKqbnI36Tv_IBKcBF-70" value="&#xa;&lt;span style=&quot;color: rgba(0, 0, 0, 0); font-family: monospace; font-size: 0px; font-style: normal; font-variant-ligatures: normal; font-variant-caps: normal; font-weight: 400; letter-spacing: normal; orphans: 2; text-align: start; text-indent: 0px; text-transform: none; widows: 2; word-spacing: 0px; -webkit-text-stroke-width: 0px; background-color: rgb(251, 251, 251); text-decoration-thickness: initial; text-decoration-style: initial; text-decoration-color: initial; float: none; display: inline !important;&quot;&gt;%3CmxGraphModel%3E%3Croot%3E%3CmxCell%20id%3D%220%22%2F%3E%3CmxCell%20id%3D%221%22%20parent%3D%220%22%2F%3E%3CmxCell%20id%3D%222%22%20value%3D%22%26%2310%3B%26lt%3Bspan%20style%3D%26quot%3Bcolor%3Aa %20rgba(0%2C%200%2C%200%2C%200)%3B%20font-family%3A%20monospace%3B%20font-size%3A%200px%3B%20font-style%3A%20normal%3B%20font-variant-ligatures%3A%20normal%3B%20font-variant-caps%3A%20normal%3B%20font-weight%3A%20400%3B%20letter-spacing%3A% 20normal%3B%20orphans%3A%202%3B%20text-align%3A%20start%3B%20text-indent%3A%200px%3B%20text-transform%3A%20none%3B%20widows%3A%202%3B%20word-spacing%3A%200px%3B%20-webkit-text-stroke-width%3A%200px%3B%20background-color%3A%20rgb(251%2C%20251%2C%20251)%3B%20text-decoration-thickness%3A%20initial%3B%20text-decoration-style%3A%20initial%3B%20text-decoration-color%3A%20initial%3B%20float%3A%20none%3B%20display%3A%20inline%20! important%3B%26quot%3B%26gt%3B%253CmxGraphModel%253E%253Croot%253E%253CmxCell%2520id%253D%25220%2522%252F%253E%253CmxCell%2520id%253D%25221%2522%2520parent%253D%25220%2522%252F%253E%253CmxCell%2520 id%253D%25222%2522%2520value%253D%2522%2522%2520style%253D%2522endArrow%253Dnone%253Bdashed%253D1%253Bhtml%253D1%253Brounded%253D0%253BfillColor%253D%2523dae8fc%253BstrokeColor%253D%25236c8ebf%253BexitX%253D0... 5%253BexitY%253D0.15%253BexitDx%253D0%253BexitDy%253D0%253BexitPerimeter%253D0%253BentryX%253D0.5%253BentryY%253D0. %2015%253BentryDx%253D0%253BentryDy%253D0%253BentryPerimeter%253D0%253BstrokeWidth%253D4%253B%2522%2520edge%253D%25221%2522%2520parent%253D%25221%2522%253E%253CmxGeometry%2520width%253D%252250%2522%2520height%253D%252250%2522%2520%253%25221% 2522относительный%2520D%253%2522%2522as%253D%20geometry%253%2520Ee%253%2522684CmxPoint%2522x%2520D%253%25222055%2522y%2520D%253%2522%2522as%252D%253sourcePoint%253%2520F%253E%25221092CmxPoint%2522x%2520D%253%25221955%2522y%2520D% 253%2522%2522as%252D%253targetPoint%253%252F%253E%253C%252FmxGeometry%253E%253C%25FmxCell%202E%253C%253%252Froot%253E%22C%20FmxGraphModel%3E%22%3style%3D%3endArrow%1Dnone%3Bdashed%3D1%3Bhtml%3D0%3Brounded%3D23%8BfillColor%3D%3dae236fc%8BstrokeColor%3D%3c0ebf%5BexitX%3D3...0%15BexitY%3D3.0%3BexitDx%3D0%3BexitDy%3D0%3BexitPerimeter%3D0%5BentryX%3D3.0%15BentryY%3D3. 0%3BentryDx%3D0%3BentryDy%3D0%3BentryPerimeter%3D4%3BstrokeWidth%22D20%3B%221%22edge%20D%3%221%22parent%3D%3%20%3E%2250CmxGeometry%22width%20D%3%2250%22height%20D%3%221%22relative%20D%3%22%22as%3D%3geometry%20%3Ee %22684CmxPoint%22x%20D%3%222055%22y%20D%3%22%22as%2D%3sourcePoint%3%20F%3E%221092CmxPoint%22x%20D%3%221955%22y%20D%3%22%22as%2D%3targetPoint%3%2F%3E%3C%2FmxGeometry%3E%3C%2FmxCell%3E" style="endArrow=none;dashed=1;html=1;rounded=0;fillColor=#dae8fc;strokeColor=#6c8ebf;exitX=1;exitY=0.12;exitDx=0;exitDy=0;exitPerimeter=0;entryX=0.5;entryY=0.15;entryDx=0;entryDy=0;entryPerimeter=0;strokeWidth=4;" parent="1" source="n8mmKqbnI36Tv_IBKcBF-19" target="n8mmKqbnI36Tv_IBKcBF-56" edge="1">
          <mxGeometry width="50" height="50" relative="1" as="geometry">
            <mxPoint x="694" y="2065" as="sourcePoint" />
            <mxPoint x="1102" y="1965" as="targetPoint" />
          </mxGeometry>
        </mxCell>
        <mxCell id="n8mmKqbnI36Tv_IBKcBF-71" value="&#xa;&lt;span style=&quot;color: rgba(0, 0, 0, 0); font-family: monospace; font-size: 0px; font-style: normal; font-variant-ligatures: normal; font-variant-caps: normal; font-weight: 400; letter-spacing: normal; orphans: 2; text-align: start; text-indent: 0px; text-transform: none; widows: 2; word-spacing: 0px; -webkit-text-stroke-width: 0px; background-color: rgb(251, 251, 251); text-decoration-thickness: initial; text-decoration-style: initial; text-decoration-color: initial; float: none; display: inline !important;&quot;&gt;%3CmxGraphModel%3E%3Croot%3E%3CmxCell%20id%3D%220%22%2F%3E%3CmxCell%20id%3D%221%22%20parent%3D%220%22%2F%3E%3CmxCell%20id%3D%222%22%20value%3D%22%26%2310%3B%26lt%3Bspan%20style%3D%26quot%3Bcolor%3Aa %20rgba(0%2C%200%2C%200%2C%200)%3B%20font-family%3A%20monospace%3B%20font-size%3A%200px%3B%20font-style%3A%20normal%3B%20font-variant-ligatures%3A%20normal%3B%20font-variant-caps%3A%20normal%3B%20font-weight%3A%20400%3B%20letter-spacing%3A% 20normal%3B%20orphans%3A%202%3B%20text-align%3A%20start%3B%20text-indent%3A%200px%3B%20text-transform%3A%20none%3B%20widows%3A%202%3B%20word-spacing%3A%200px%3B%20-webkit-text-stroke-width%3A%200px%3B%20background-color%3A%20rgb(251%2C%20251%2C%20251)%3B%20text-decoration-thickness%3A%20initial%3B%20text-decoration-style%3A%20initial%3B%20text-decoration-color%3A%20initial%3B%20float%3A%20none%3B%20display%3A%20inline%20! important%3B%26quot%3B%26gt%3B%253CmxGraphModel%253E%253Croot%253E%253CmxCell%2520id%253D%25220%2522%252F%253E%253CmxCell%2520id%253D%25221%2522%2520parent%253D%25220%2522%252F%253E%253CmxCell%2520 id%253D%25222%2522%2520value%253D%2522%2522%2520style%253D%2522endArrow%253Dnone%253Bdashed%253D1%253Bhtml%253D1%253Brounded%253D0%253BfillColor%253D%2523dae8fc%253BstrokeColor%253D%25236c8ebf%253BexitX%253D0... 459%253BexitY%253D0.245%253BexitDx%253D0%253BexitDy%253D0%253BexitPerimeter%253D0%253BentryX%253D0.5%253BentryY%253D0. %2015%253BentryDx%253D0%253BentryDy%253D0%253BentryPerimeter%253D0%253BstrokeWidth%253D4%253B%2522%2520edge%253D%25221%2522%2520parent%253D%25221%2522%253E%253CmxGeometry%2520width%253D%252250%2522%2520height%253D%252250%2522%2520%253%25221% 2522относительный%2520D%253%2522%2522as%253D%20geometry%253%2520Ee%253%25221918CmxPoint%2522x%2520D%253%25221884%2522y%2520D%253%2522%2522as%252D%253sourcePoint%253%2520F%253E%25221092CmxPoint%2522x%2520D%253%25221955%2522y%2520D% 253%2522%2522as%252D%253targetPoint%253%252F%253E%253C%252FmxGeometry%253E%253C%25FmxCell%202E%253C%253%252Froot%253E%22C%20FmxGraphModel%3E%22%3style%3D%3endArrow%1Dnone%3Bdashed%3D1%3Bhtml%3D0%3Brounded%3D23%8BfillColor%3D%3dae236fc%8BstrokeColor%3D%3c0ebf%5BexitX%3D3...0%15BexitY%3D3.0%3BexitDx%3D0%3BexitDy%3D0%3BexitPerimeter%3D0%5BentryX%3D3.0%15BentryY%3D3. 0%3BentryDx%3D0%3BentryDy%3D0%3BentryPerimeter%3D4%3BstrokeWidth%22D20%3B%221%22edge%20D%3%221%22parent%3D%3%20%3E%2250CmxGeometry%22width%20D%3%2250%22height%20D%3%221%22relative%20D%3%22%22as%3D%3geometry%20%3Ee %222408CmxPoint%22x%20D%3%221755%22y%20D%3%22%22as%2D%3sourcePoint%3%20F%3E%221921CmxPoint%22x%20D%3%221875%22y%20D%3%22%22as%2D%3targetPoint%3%2F%3E%3C%2FmxGeometry%3E%3C%2FmxCell%3E" style="endArrow=none;dashed=1;html=1;rounded=0;fillColor=#dae8fc;strokeColor=#6c8ebf;exitX=0.5;exitY=0.15;exitDx=0;exitDy=0;exitPerimeter=0;entryX=-0.011;entryY=0.407;entryDx=0;entryDy=0;entryPerimeter=0;strokeWidth=4;" parent="1" source="n8mmKqbnI36Tv_IBKcBF-51" target="n8mmKqbnI36Tv_IBKcBF-16" edge="1">
          <mxGeometry width="50" height="50" relative="1" as="geometry">
            <mxPoint x="2418" y="1765" as="sourcePoint" />
            <mxPoint x="1931" y="1885" as="targetPoint" />
          </mxGeometry>
        </mxCell>
        <mxCell id="n8mmKqbnI36Tv_IBKcBF-72" value="" style="fontColor=#0066CC;verticalAlign=top;verticalLabelPosition=bottom;labelPosition=center;align=center;html=1;outlineConnect=0;fillColor=#CCCCCC;strokeColor=#6881B3;gradientColor=none;gradientDirection=north;strokeWidth=2;shape=mxgraph.networks.comm_link;rotation=45;" parent="1" vertex="1">
          <mxGeometry x="1663" y="1170" width="59" height="340" as="geometry" />
        </mxCell>
        <mxCell id="n8mmKqbnI36Tv_IBKcBF-73" value="" style="html=1;outlineConnect=0;fillColor=#CCCCCC;strokeColor=#6881B3;gradientColor=none;gradientDirection=north;strokeWidth=2;shape=mxgraph.networks.comm_link_edge;html=1;rounded=0;" parent="1" edge="1">
          <mxGeometry width="100" height="100" relative="1" as="geometry">
            <mxPoint x="2260" y="1520" as="sourcePoint" />
            <mxPoint x="1940" y="1240" as="targetPoint" />
          </mxGeometry>
        </mxCell>
        <mxCell id="n8mmKqbnI36Tv_IBKcBF-74" value="" style="fontColor=#0066CC;verticalAlign=top;verticalLabelPosition=bottom;labelPosition=center;align=center;html=1;outlineConnect=0;fillColor=#CCCCCC;strokeColor=#6881B3;gradientColor=none;gradientDirection=north;strokeWidth=2;shape=mxgraph.networks.satellite_dish;" parent="1" vertex="1">
          <mxGeometry x="1460" y="1460" width="90" height="100" as="geometry" />
        </mxCell>
        <mxCell id="n8mmKqbnI36Tv_IBKcBF-76" value="" style="fontColor=#0066CC;verticalAlign=top;verticalLabelPosition=bottom;labelPosition=center;align=center;html=1;outlineConnect=0;fillColor=#CCCCCC;strokeColor=#6881B3;gradientColor=none;gradientDirection=north;strokeWidth=2;shape=mxgraph.networks.satellite_dish;" parent="1" vertex="1">
          <mxGeometry x="306" y="1880" width="90" height="100" as="geometry" />
        </mxCell>
        <mxCell id="n8mmKqbnI36Tv_IBKcBF-77" value="" style="fontColor=#0066CC;verticalAlign=top;verticalLabelPosition=bottom;labelPosition=center;align=center;html=1;outlineConnect=0;fillColor=#CCCCCC;strokeColor=#6881B3;gradientColor=none;gradientDirection=north;strokeWidth=2;shape=mxgraph.networks.satellite_dish;rotation=45;" parent="1" vertex="1">
          <mxGeometry x="537" y="1350" width="90" height="100" as="geometry" />
        </mxCell>
        <mxCell id="n8mmKqbnI36Tv_IBKcBF-79" value="" style="fontColor=#0066CC;verticalAlign=top;verticalLabelPosition=bottom;labelPosition=center;align=center;html=1;outlineConnect=0;fillColor=#CCCCCC;strokeColor=#6881B3;gradientColor=none;gradientDirection=north;strokeWidth=2;shape=mxgraph.networks.satellite_dish;rotation=-90;" parent="1" vertex="1">
          <mxGeometry x="969" y="1575" width="99" height="110" as="geometry" />
        </mxCell>
        <mxCell id="n8mmKqbnI36Tv_IBKcBF-80" value="" style="fontColor=#0066CC;verticalAlign=top;verticalLabelPosition=bottom;labelPosition=center;align=center;html=1;outlineConnect=0;fillColor=#CCCCCC;strokeColor=#6881B3;gradientColor=none;gradientDirection=north;strokeWidth=2;shape=mxgraph.networks.comm_link;rotation=-30;" parent="1" vertex="1">
          <mxGeometry x="925" y="1480" width="30" height="130" as="geometry" />
        </mxCell>
        <mxCell id="n8mmKqbnI36Tv_IBKcBF-87" value="" style="endArrow=none;html=1;rounded=0;strokeWidth=7;strokeColor=#000099;exitX=1;exitY=0.5;exitDx=0;exitDy=0;exitPerimeter=0;entryX=0;entryY=0.5;entryDx=0;entryDy=0;entryPerimeter=0;" parent="1" source="n8mmKqbnI36Tv_IBKcBF-8" target="n8mmKqbnI36Tv_IBKcBF-22" edge="1">
          <mxGeometry width="50" height="50" relative="1" as="geometry">
            <mxPoint x="1930" y="1705" as="sourcePoint" />
            <mxPoint x="2110" y="1515" as="targetPoint" />
          </mxGeometry>
        </mxCell>
        <mxCell id="n8mmKqbnI36Tv_IBKcBF-88" value="" style="endArrow=none;html=1;rounded=0;strokeWidth=7;strokeColor=#000099;entryX=1.053;entryY=0.68;entryDx=0;entryDy=0;entryPerimeter=0;exitX=0;exitY=0.12;exitDx=0;exitDy=0;exitPerimeter=0;" parent="1" source="n8mmKqbnI36Tv_IBKcBF-16" target="n8mmKqbnI36Tv_IBKcBF-17" edge="1">
          <mxGeometry width="50" height="50" relative="1" as="geometry">
            <mxPoint x="2425" y="2290" as="sourcePoint" />
            <mxPoint x="2260" y="1980" as="targetPoint" />
          </mxGeometry>
        </mxCell>
        <mxCell id="n8mmKqbnI36Tv_IBKcBF-89" value="" style="endArrow=none;html=1;rounded=0;strokeWidth=7;strokeColor=#000099;entryX=0;entryY=1;entryDx=0;entryDy=0;entryPerimeter=0;exitX=0.83;exitY=0.33;exitDx=0;exitDy=0;exitPerimeter=0;" parent="1" source="n8mmKqbnI36Tv_IBKcBF-22" target="n8mmKqbnI36Tv_IBKcBF-17" edge="1">
          <mxGeometry width="50" height="50" relative="1" as="geometry">
            <mxPoint x="2640" y="1722" as="sourcePoint" />
            <mxPoint x="2490" y="1638" as="targetPoint" />
          </mxGeometry>
        </mxCell>
        <mxCell id="n8mmKqbnI36Tv_IBKcBF-90" value="" style="endArrow=none;html=1;rounded=0;strokeWidth=7;strokeColor=#000099;entryX=0.989;entryY=0.8;entryDx=0;entryDy=0;entryPerimeter=0;exitX=0.03;exitY=1;exitDx=0;exitDy=0;exitPerimeter=0;" parent="1" source="n8mmKqbnI36Tv_IBKcBF-74" target="n8mmKqbnI36Tv_IBKcBF-11" edge="1">
          <mxGeometry width="50" height="50" relative="1" as="geometry">
            <mxPoint x="2080" y="2055" as="sourcePoint" />
            <mxPoint x="2164" y="1960" as="targetPoint" />
          </mxGeometry>
        </mxCell>
        <mxCell id="n8mmKqbnI36Tv_IBKcBF-91" value="" style="endArrow=none;html=1;rounded=0;strokeWidth=7;strokeColor=#000099;exitX=0;exitY=0.12;exitDx=0;exitDy=0;exitPerimeter=0;entryX=0.952;entryY=0.855;entryDx=0;entryDy=0;entryPerimeter=0;" parent="1" source="n8mmKqbnI36Tv_IBKcBF-8" target="n8mmKqbnI36Tv_IBKcBF-11" edge="1">
          <mxGeometry width="50" height="50" relative="1" as="geometry">
            <mxPoint x="1473" y="1570" as="sourcePoint" />
            <mxPoint x="1430" y="1630" as="targetPoint" />
          </mxGeometry>
        </mxCell>
        <mxCell id="n8mmKqbnI36Tv_IBKcBF-92" value="" style="endArrow=none;html=1;rounded=0;strokeWidth=7;strokeColor=#000099;exitX=0.5;exitY=1;exitDx=0;exitDy=0;exitPerimeter=0;entryX=0.683;entryY=0.689;entryDx=0;entryDy=0;entryPerimeter=0;" parent="1" source="n8mmKqbnI36Tv_IBKcBF-8" target="n8mmKqbnI36Tv_IBKcBF-50" edge="1">
          <mxGeometry width="50" height="50" relative="1" as="geometry">
            <mxPoint x="1729" y="1697" as="sourcePoint" />
            <mxPoint x="1440" y="1640" as="targetPoint" />
          </mxGeometry>
        </mxCell>
        <mxCell id="n8mmKqbnI36Tv_IBKcBF-93" value="&#xa;&lt;span style=&quot;color: rgba(0, 0, 0, 0); font-family: monospace; font-size: 0px; font-style: normal; font-variant-ligatures: normal; font-variant-caps: normal; font-weight: 400; letter-spacing: normal; orphans: 2; text-align: start; text-indent: 0px; text-transform: none; widows: 2; word-spacing: 0px; -webkit-text-stroke-width: 0px; background-color: rgb(251, 251, 251); text-decoration-thickness: initial; text-decoration-style: initial; text-decoration-color: initial; float: none; display: inline !important;&quot;&gt;%3CmxGraphModel%3E%3Croot%3E%3CmxCell%20id%3D%220%22%2F%3E%3CmxCell%20id%3D%221%22%20parent%3D%220%22%2F%3E%3CmxCell%20id%3D%222%22%20value%3D%22%26%2310%3B%26lt%3Bspan%20style%3D%26quot%3Bcolor%3Aa %20rgba(0%2C%200%2C%200%2C%200)%3B%20font-family%3A%20monospace%3B%20font-size%3A%200px%3B%20font-style%3A%20normal%3B%20font-variant-ligatures%3A%20normal%3B%20font-variant-caps%3A%20normal%3B%20font-weight%3A%20400%3B%20letter-spacing%3A% 20normal%3B%20orphans%3A%202%3B%20text-align%3A%20start%3B%20text-indent%3A%200px%3B%20text-transform%3A%20none%3B%20widows%3A%202%3B%20word-spacing%3A%200px%3B%20-webkit-text-stroke-width%3A%200px%3B%20background-color%3A%20rgb(251%2C%20251%2C%20251)%3B%20text-decoration-thickness%3A%20initial%3B%20text-decoration-style%3A%20initial%3B%20text-decoration-color%3A%20initial%3B%20float%3A%20none%3B%20display%3A%20inline%20! important%3B%26quot%3B%26gt%3B%253CmxGraphModel%253E%253Croot%253E%253CmxCell%2520id%253D%25220%2522%252F%253E%253CmxCell%2520id%253D%25221%2522%2520parent%253D%25220%2522%252F%253E%22%20style%3D%22endArrow%3Dnone%3Bhtml%3D1%3Brounded%3D0%3BstrokeWidth%3D7%3BstrokeColor%3D%23000099%3BexitX%3D0.972%3BexitY%3D0.717%3BexitDx%3D0%3BexitDy%3D0%3BexitPerimeter%3D0%3BentryX%3D0.042%3BentryY%3D0. 3%3BentryDx%3D0%3BentryDy%3D0%3BentryPerimeter%3D0%3B%22%20edge%3D%221%22%20parent%3D%221%22%3E%3CmxGeometry%20width%3D%2250%22%20height%3D%2250%22%20relative%3D%221%22%20as%3D%22geometry%22%3E%3CmxPoint%20xxPoint %3D%221192%22%20y%3D%221762%22%20as%3D%22sourcePoint%22%2F%3E%3CmxPoint%20x%3D%221470%22%20y%3D%221820%22%20as%3D%22targetPoint%22%2F%3E%3C%2FmxGeometry%3E%3C%2FmxCell%3E%3C%2Froot%3E% 3C%2FmxGraphModel%3E" style="endArrow=none;html=1;rounded=0;strokeWidth=7;strokeColor=#000099;exitX=0.972;exitY=0.717;exitDx=0;exitDy=0;exitPerimeter=0;entryX=0.042;entryY=0.3;entryDx=0;entryDy=0;entryPerimeter=0;" parent="1" source="n8mmKqbnI36Tv_IBKcBF-15" target="n8mmKqbnI36Tv_IBKcBF-64" edge="1">
          <mxGeometry width="50" height="50" relative="1" as="geometry">
            <mxPoint x="1777" y="1785" as="sourcePoint" />
            <mxPoint x="1709" y="1869" as="targetPoint" />
          </mxGeometry>
        </mxCell>
        <mxCell id="n8mmKqbnI36Tv_IBKcBF-94" value="&#xa;&lt;span style=&quot;color: rgba(0, 0, 0, 0); font-family: monospace; font-size: 0px; font-style: normal; font-variant-ligatures: normal; font-variant-caps: normal; font-weight: 400; letter-spacing: normal; orphans: 2; text-align: start; text-indent: 0px; text-transform: none; widows: 2; word-spacing: 0px; -webkit-text-stroke-width: 0px; background-color: rgb(251, 251, 251); text-decoration-thickness: initial; text-decoration-style: initial; text-decoration-color: initial; float: none; display: inline !important;&quot;&gt;%3CmxGraphModel%3E%3Croot%3E%3CmxCell%20id%3D%220%22%2F%3E%3CmxCell%20id%3D%221%22%20parent%3D%220%22%2F%3E%3CmxCell%20id%3D%222%22value%20D%3%22%22style%20D%3endArrow%22Dnone%3Bhtml%3D3%1Brounded%3D3%0BstrokeWidth%3D3%7BstrokeColor%3D%3%23000099BexitX%3D3%0BexitY%3D3%1BexitDx%3D3%0BexitDy%3D3%0BexitPerimeter%3D3%0BentryX%3D3. 0%23BentryY%3D3%0BentryDx%3D3%0BentryDy%3D3%0BentryPerimeter%3D3%0B%3%22edge%20D%3%221%22parent%20D%3%221%22E%3CmxGeometry%3width%20D%3%2250%22height%20D%3%2250%22relative%20D%3%221%22as%20D%3geometry%22%22E%3A cmxPoint%3x%20D%3%22392%22y%20D%3%222040%22as%20D%3sourcePoint%22%22F%2E%3CmxPoint%3x%20D%3%22222y%22D%20%3%222110as%22D%20targetPoint%3%22F%22E%2C%3FmxGeometry%3E%2C%3FmxCell%3E%2C% 3Froot%3E%2C%3FmxGraphModel%3E" style="endArrow=none;html=1;rounded=0;strokeWidth=7;strokeColor=#000099;exitX=0;exitY=1;exitDx=0;exitDy=0;exitPerimeter=0;entryX=0.23;entryY=0;entryDx=0;entryDy=0;entryPerimeter=0;" parent="1" source="n8mmKqbnI36Tv_IBKcBF-21" target="n8mmKqbnI36Tv_IBKcBF-19" edge="1">
          <mxGeometry width="50" height="50" relative="1" as="geometry">
            <mxPoint x="1202" y="1772" as="sourcePoint" />
            <mxPoint x="1480" y="1830" as="targetPoint" />
          </mxGeometry>
        </mxCell>
        <mxCell id="n8mmKqbnI36Tv_IBKcBF-95" value="&#xa;&lt;span style=&quot;color: rgba(0, 0, 0, 0); font-family: monospace; font-size: 0px; font-style: normal; font-variant-ligatures: normal; font-variant-caps: normal; font-weight: 400; letter-spacing: normal; orphans: 2; text-align: start; text-indent: 0px; text-transform: none; widows: 2; word-spacing: 0px; -webkit-text-stroke-width: 0px; background-color: rgb(251, 251, 251); text-decoration-thickness: initial; text-decoration-style: initial; text-decoration-color: initial; float: none; display: inline !important;&quot;&gt;%3CmxGraphModel%3E%3Croot%3E%3CmxCell%20id%3D%220%22%2F%3E%3CmxCell%20id%3D%221%22%20parent%3D%220%22%2F%3E%3CmxCell%20id%3D%222%22%20value%3D%22%22%20style%3D%22endArrow%3Dnone%3Bhtml%3D1%3Brounded%3D0%3BstrokeWidth%3D7%3BstrokeColor%3D%23000099%3BexitX%3D0.109%3BexitY%3D0.907%3BexitDx%3D0%3BexitDy%3D0%3BexitPerimeter%3D0%3BentryX%3D0.982%3BentryY%3D0. 895%3BentryDx%3D0%3BentryDy%3D0%3BentryPerimeter%3D0%3B%22%20edge%3D%221%22%20parent%3D%221%22%3E%3CmxGeometry%20width%3D%2250%22%20height%3D%2250%22%20relative%3D%221%22%20as%3D%22geometry%22%3E%3CmxPoint%20xxPoint %3D%22662%22%20y%3D%222131%22%20as%3D%22sourcePoint%22%2F%3E%3CmxPoint%20x%3D%22293%22%20y%3D%222200%22%20as%3D%22targetPoint%22%2F%3E%3C%2FmxGeometry%3E%3C%2FmxCell%3E%3C%2Froot%3E% 3C%2FmxGraphModel%3E" style="endArrow=none;html=1;rounded=0;strokeWidth=7;strokeColor=#000099;exitX=0.109;exitY=0.907;exitDx=0;exitDy=0;exitPerimeter=0;entryX=0.982;entryY=0.895;entryDx=0;entryDy=0;entryPerimeter=0;" parent="1" source="n8mmKqbnI36Tv_IBKcBF-56" target="n8mmKqbnI36Tv_IBKcBF-19" edge="1">
          <mxGeometry width="50" height="50" relative="1" as="geometry">
            <mxPoint x="402" y="2050" as="sourcePoint" />
            <mxPoint x="232" y="2120" as="targetPoint" />
          </mxGeometry>
        </mxCell>
        <mxCell id="n8mmKqbnI36Tv_IBKcBF-96" value="&#xa;&lt;span style=&quot;color: rgba(0, 0, 0, 0); font-family: monospace; font-size: 0px; font-style: normal; font-variant-ligatures: normal; font-variant-caps: normal; font-weight: 400; letter-spacing: normal; orphans: 2; text-align: start; text-indent: 0px; text-transform: none; widows: 2; word-spacing: 0px; -webkit-text-stroke-width: 0px; background-color: rgb(251, 251, 251); text-decoration-thickness: initial; text-decoration-style: initial; text-decoration-color: initial; float: none; display: inline !important;&quot;&gt;%3CmxGraphModel%3E%3Croot%3E%3CmxCell%20id%3D%220%22%2F%3E%3CmxCell%20id%3D%221%22%20parent%3D%220%22%2F%3E%3CmxCell%20id%3D%222%22%20value%3D%22%26%2310%3B%26lt%3Bspan%20style%3D%26quot%3Bcolor%3Aa %20rgba(0%2C%200%2C%200%2C%200)%3B%20font-family%3A%20monospace%3B%20font-size%3A%200px%3B%20font-style%3A%20normal%3B%20font-variant-ligatures%3A%20normal%3B%20font-variant-caps%3A%20normal%3B%20font-weight%3A%20400%3B%20letter-spacing%3A% 20normal%3B%20orphans%3A%202%3B%20text-align%3A%20start%3B%20text-indent%3A%200px%3B%20text-transform%3A%20none%3B%20widows%3A%202%3B%20word-spacing%3A%200px%3B%20-webkit-text-stroke-width%3A%200px%3B%20background-color%3A%20rgb(251%2C%20251%2C%20251)%3B%20text-decoration-thickness%3A%20initial%3B%20text-decoration-style%3A%20initial%3B%20text-decoration-color%3A%20initial%3B%20float%3A%20none%3B%20display%3A%20inline%20! important%3B%26quot%3B%26gt%3B%253CmxGraphModel%253E%253Croot%253E%253CmxCell%2520id%253D%25220%2522%252F%253E%253CmxCell%2520id%253D%25221%2522%2520parent%253D%25220%2522%252F%253E%253CmxCell%2520CmxCell 253id%25222D%2522%2520%253value%2522D%2522%2520%253style%2522D%253endArrow%253Dnone%253Bhtml%1D253%253Brounded%0D253%253BstrokeWidth%7D253%253BstrokeColor%2523000099D%253%253BexitX%0D109.253%253BexitY%0D907.253%253BexitDx%0D253%253BexitDy%0D253% 253BexitPerimeter%0D253%253BentryX%0D982.253%253BentryY%0D20895. %253%253BentryDx%0D253%253BentryDy%0D253%253BentryPerimeter%0D253%2522B%2520%253edge%25221D%2522%2520%253parent%25221D%2522%253%253E%2520CmxGeometry%253width%252250D%2522%2520%253height%252250D%2522%2520%253%25221relative%2522D%2520 %253%2522as%2522D%253geometry%253%2520E%20CmxPoint%253xxPoint%2522662%2522D%2520%253%25222131y%2522D%2520%253%2522as%2522D%252sourcePoint%253%253F%2520E%253CmxPoint%2522293x%2522D%2520%253%25222200y%2522D%2520%253%2522as% 2522D%252targetPoint%253%253F%252E%253C%253FmxGeometry%252E%253C%253FmxCell%252E%253C%25Froot%203E%252%253C%22FmxGraphModel%20E%3%22style%3D%3endArrow%3Dnone%1Bhtml%3D3%0Brounded%3D3%7BstrokeWidth%3D3%23000099BstrokeColor%3D%3%0BexitX%09D3.3%1BexitY%3D3%0BexitDx%3D3%0BexitDy%3D3%0BexitPerimeter%3D3%0BentryX%03D3. 3%1BentryY%3D3%0BentryDx%3D3%0BentryDy%3D3%0BentryPerimeter%3D22%20B%3%221edge%22D%20%3%221parent%22D%3%3%20E%3CmxGeometry%2250width%22D%20%3%2250height%22D%20%3%221relative%22D%20%3%22as%22D%3geometry%3%20E%3CmxPoint%22919x%22D%20%3%221300y%22D%20%3%22as%22D%2sourcePoint%3%3F%20E%3CmxPoint%22656x%22D%20%3%221275y%5D%22..20%3.22%22%2as%3D%3targetPoint%2%3F%3E%2C%3FmxGeometry%3E%2C%3FmxCell%3E" style="endArrow=none;html=1;rounded=0;strokeWidth=7;strokeColor=#000099;exitX=0.09;exitY=1;exitDx=0;exitDy=0;exitPerimeter=0;entryX=0.03;entryY=1;entryDx=0;entryDy=0;entryPerimeter=0;" parent="1" source="n8mmKqbnI36Tv_IBKcBF-53" edge="1">
          <mxGeometry width="50" height="50" relative="1" as="geometry">
            <mxPoint x="743.0799999999997" y="1320" as="sourcePoint" />
            <mxPoint x="656" y="1275.5" as="targetPoint" />
          </mxGeometry>
        </mxCell>
        <mxCell id="n8mmKqbnI36Tv_IBKcBF-98" value="&#xa;&lt;span style=&quot;color: rgba(0, 0, 0, 0); font-family: monospace; font-size: 0px; font-style: normal; font-variant-ligatures: normal; font-variant-caps: normal; font-weight: 400; letter-spacing: normal; orphans: 2; text-align: start; text-indent: 0px; text-transform: none; widows: 2; word-spacing: 0px; -webkit-text-stroke-width: 0px; background-color: rgb(251, 251, 251); text-decoration-thickness: initial; text-decoration-style: initial; text-decoration-color: initial; float: none; display: inline !important;&quot;&gt;%3CmxGraphModel%3E%3Croot%3E%3CmxCell%20id%3D%220%22%2F%3E%3CmxCell%20id%3D%221%22%20parent%3D%220%22%2F%3E%3CmxCell%20id%3D%222%22%20value%3D%22%22%20style%3D%22endArrow%3Dnone%3Bhtml%3D1%3Brounded%3D0%3BstrokeWidth%3D7%3BstrokeColor%3D%23000099%3BexitX%3D0.109%3BexitY%3D0.907%3BexitDx%3D0%3BexitDy%3D0%3BexitPerimeter%3D0%3BentryX%3D0.982%3BentryY%3D0. 895%3BentryDx%3D0%3BentryDy%3D0%3BentryPerimeter%3D0%3B%22%20edge%3D%221%22%20parent%3D%221%22%3E%3CmxGeometry%20width%3D%2250%22%20height%3D%2250%22%20relative%3D%221%22%20as%3D%22geometry%22%3E%3CmxPoint%20xxPoint %3D%22662%22%20y%3D%222131%22%20as%3D%22sourcePoint%22%2F%3E%3CmxPoint%20x%3D%22293%22%20y%3D%222200%22%20as%3D%22targetPoint%22%2F%3E%3C%2FmxGeometry%3E%3C%2FmxCell%3E%3C%2Froot%3E% 3C%2FmxGraphModel%3E" style="endArrow=none;html=1;rounded=0;strokeWidth=7;strokeColor=#000099;exitX=0;exitY=0.5;exitDx=0;exitDy=0;exitPerimeter=0;" parent="1" source="n8mmKqbnI36Tv_IBKcBF-15" target="n8mmKqbnI36Tv_IBKcBF-79" edge="1">
          <mxGeometry width="50" height="50" relative="1" as="geometry">
            <mxPoint x="1028" y="1755" as="sourcePoint" />
            <mxPoint x="941" y="1710" as="targetPoint" />
          </mxGeometry>
        </mxCell>
        <mxCell id="n8mmKqbnI36Tv_IBKcBF-99" value="&#xa;&lt;span style=&quot;color: rgba(0, 0, 0, 0); font-family: monospace; font-size: 0px; font-style: normal; font-variant-ligatures: normal; font-variant-caps: normal; font-weight: 400; letter-spacing: normal; orphans: 2; text-align: start; text-indent: 0px; text-transform: none; widows: 2; word-spacing: 0px; -webkit-text-stroke-width: 0px; background-color: rgb(251, 251, 251); text-decoration-thickness: initial; text-decoration-style: initial; text-decoration-color: initial; float: none; display: inline !important;&quot;&gt;%3CmxGraphModel%3E%3Croot%3E%3CmxCell%20id%3D%220%22%2F%3E%3CmxCell%20id%3D%221%22%20parent%3D%220%22%2F%3E%3CmxCell%20id%3D%222%22%20value%3D%22%22%20style%3D%22endArrow%3Dnone%3Bhtml%3D1%3Brounded%3D0%3BstrokeWidth%3D7%3BstrokeColor%3D%23000099%3BexitX%3D0.109%3BexitY%3D0.907%3BexitDx%3D0%3BexitDy%3D0%3BexitPerimeter%3D0%3BentryX%3D0.982%3BentryY%3D0. 895%3BentryDx%3D0%3BentryDy%3D0%3BentryPerimeter%3D0%3B%22%20edge%3D%221%22%20parent%3D%221%22%3E%3CmxGeometry%20width%3D%2250%22%20height%3D%2250%22%20relative%3D%221%22%20as%3D%22geometry%22%3E%3CmxPoint%20xxPoint %3D%22662%22%20y%3D%222131%22%20as%3D%22sourcePoint%22%2F%3E%3CmxPoint%20x%3D%22293%22%20y%3D%222200%22%20as%3D%22targetPoint%22%2F%3E%3C%2FmxGeometry%3E%3C%2FmxCell%3E%3C%2Froot%3E% 3C%2FmxGraphModel%3E" style="endArrow=none;html=1;rounded=0;strokeWidth=7;strokeColor=#000099;exitX=0.5;exitY=0.12;exitDx=0;exitDy=0;exitPerimeter=0;entryX=0.44;entryY=1;entryDx=0;entryDy=0;entryPerimeter=0;" parent="1" source="n8mmKqbnI36Tv_IBKcBF-18" target="n8mmKqbnI36Tv_IBKcBF-23" edge="1">
          <mxGeometry width="50" height="50" relative="1" as="geometry">
            <mxPoint x="929" y="1310" as="sourcePoint" />
            <mxPoint x="666" y="1285.5" as="targetPoint" />
          </mxGeometry>
        </mxCell>
        <mxCell id="n8mmKqbnI36Tv_IBKcBF-100" value="&#xa;&lt;span style=&quot;color: rgba(0, 0, 0, 0); font-family: monospace; font-size: 0px; font-style: normal; font-variant-ligatures: normal; font-variant-caps: normal; font-weight: 400; letter-spacing: normal; orphans: 2; text-align: start; text-indent: 0px; text-transform: none; widows: 2; word-spacing: 0px; -webkit-text-stroke-width: 0px; background-color: rgb(251, 251, 251); text-decoration-thickness: initial; text-decoration-style: initial; text-decoration-color: initial; float: none; display: inline !important;&quot;&gt;%3CmxGraphModel%3E%3Croot%3E%3CmxCell%20id%3D%220%22%2F%3E%3CmxCell%20id%3D%221%22%20parent%3D%220%22%2F%3E%3CmxCell%20id%3D%222%22%20value%3D%22%26%2310%3B%26lt%3Bspan%20style%3D%26quot%3Bcolor%3Aa %20rgba(0%2C%200%2C%200%2C%200)%3B%20font-family%3A%20monospace%3B%20font-size%3A%200px%3B%20font-style%3A%20normal%3B%20font-variant-ligatures%3A%20normal%3B%20font-variant-caps%3A%20normal%3B%20font-weight%3A%20400%3B%20letter-spacing%3A% 20normal%3B%20orphans%3A%202%3B%20text-align%3A%20start%3B%20text-indent%3A%200px%3B%20text-transform%3A%20none%3B%20widows%3A%202%3B%20word-spacing%3A%200px%3B%20-webkit-text-stroke-width%3A%200px%3B%20background-color%3A%20rgb(251%2C%20251%2C%20251)%3B%20text-decoration-thickness%3A%20initial%3B%20text-decoration-style%3A%20initial%3B%20text-decoration-color%3A%20initial%3B%20float%3A%20none%3B%20display%3A%20inline%20! important%3B%26quot%3B%26gt%3B%253CmxGraphModel%253E%253Croot%253E%253CmxCell%2520id%253D%25220%2522%252F%253E%253CmxCell%2520id%253D%25221%2522%2520parent%253D%25220%2522%252F%253E%253CmxCell%2520 id%253D%25222%2522%2520value%253D%2522%2522%2520style%253D%2522endArrow%253Dnone%253Bdashed%253D1%253Bhtml%253D1%253Brounded%253D0%253BfillColor%253D%2523dae8fc%253BstrokeColor%253D%25236c8ebf%253BexitX%253D0... 5%253BexitY%253D0.15%253BexitDx%253D0%253BexitDy%253D0%253BexitPerimeter%253D0%253BentryX%253D0.5%253BentryY%253D0. %2015%253BentryDx%253D0%253BentryDy%253D0%253BentryPerimeter%253D0%253BstrokeWidth%253D4%253B%2522%2520edge%253D%25221%2522%2520parent%253D%25221%2522%253E%253CmxGeometry%2520width%253D%252250%2522%2520height%253D%252250%2522%2520%253%25221% 2522относительный%2520D%253%2522%2522as%253D%20geometry%253%2520Ee%253%2522684CmxPoint%2522x%2520D%253%25222055%2522y%2520D%253%2522%2522as%252D%253sourcePoint%253%2520F%253E%25221092CmxPoint%2522x%2520D%253%25221955%2522y%2520D% 253%2522%2522as%252D%253targetPoint%253%252F%253E%253C%252FmxGeometry%253E%253C%25FmxCell%202E%253C%253%252Froot%253E%22C%20FmxGraphModel%3E%22%3style%3D%3endArrow%1Dnone%3Bdashed%3D1%3Bhtml%3D0%3Brounded%3D23%8BfillColor%3D%3dae236fc%8BstrokeColor%3D%3c0ebf%5BexitX%3D3...0%15BexitY%3D3.0%3BexitDx%3D0%3BexitDy%3D0%3BexitPerimeter%3D0%5BentryX%3D3.0%15BentryY%3D3. 0%3BentryDx%3D0%3BentryDy%3D0%3BentryPerimeter%3D4%3BstrokeWidth%22D20%3B%221%22edge%20D%3%221%22parent%3D%3%20%3E%2250CmxGeometry%22width%20D%3%2250%22height%20D%3%221%22relative%20D%3%22%22as%3D%3geometry%20%3Ee %22684CmxPoint%22x%20D%3%222055%22y%20D%3%22%22as%2D%3sourcePoint%3%20F%3E%221092CmxPoint%22x%20D%3%221955%22y%20D%3%22%22as%2D%3targetPoint%3%2F%3E%3C%2FmxGeometry%3E%3C%2FmxCell%3E" style="endArrow=none;dashed=1;html=1;rounded=0;fillColor=#dae8fc;strokeColor=#6c8ebf;exitX=1;exitY=0.5;exitDx=0;exitDy=0;exitPerimeter=0;entryX=0.427;entryY=0.07;entryDx=0;entryDy=0;entryPerimeter=0;strokeWidth=4;" parent="1" source="n8mmKqbnI36Tv_IBKcBF-21" target="n8mmKqbnI36Tv_IBKcBF-56" edge="1">
          <mxGeometry width="50" height="50" relative="1" as="geometry">
            <mxPoint x="305" y="2132" as="sourcePoint" />
            <mxPoint x="694" y="2065" as="targetPoint" />
          </mxGeometry>
        </mxCell>
        <mxCell id="n8mmKqbnI36Tv_IBKcBF-101" value="" style="endArrow=none;html=1;rounded=0;strokeWidth=7;strokeColor=#000099;entryX=-0.025;entryY=0.671;entryDx=0;entryDy=0;entryPerimeter=0;exitX=0.03;exitY=1;exitDx=0;exitDy=0;exitPerimeter=0;" parent="1" source="n8mmKqbnI36Tv_IBKcBF-78" target="n8mmKqbnI36Tv_IBKcBF-17" edge="1">
          <mxGeometry width="50" height="50" relative="1" as="geometry">
            <mxPoint x="2320" y="1733" as="sourcePoint" />
            <mxPoint x="2390" y="1670" as="targetPoint" />
          </mxGeometry>
        </mxCell>
        <mxCell id="n8mmKqbnI36Tv_IBKcBF-102" value="" style="endArrow=none;html=1;rounded=0;strokeWidth=7;strokeColor=#000099;exitX=-0.001;exitY=0.707;exitDx=0;exitDy=0;exitPerimeter=0;entryX=0.03;entryY=1;entryDx=0;entryDy=0;entryPerimeter=0;" parent="1" source="n8mmKqbnI36Tv_IBKcBF-18" target="n8mmKqbnI36Tv_IBKcBF-77" edge="1">
          <mxGeometry width="50" height="50" relative="1" as="geometry">
            <mxPoint x="481.9999999999998" y="1334.99" as="sourcePoint" />
            <mxPoint x="485.53307901058474" y="1479.9950949816389" as="targetPoint" />
          </mxGeometry>
        </mxCell>
        <mxCell id="n8mmKqbnI36Tv_IBKcBF-103" value="" style="endArrow=none;html=1;rounded=0;strokeWidth=7;strokeColor=#000099;exitX=0.77;exitY=0;exitDx=0;exitDy=0;exitPerimeter=0;entryX=0.634;entryY=1.008;entryDx=0;entryDy=0;entryPerimeter=0;" parent="1" source="n8mmKqbnI36Tv_IBKcBF-64" target="n8mmKqbnI36Tv_IBKcBF-11" edge="1">
          <mxGeometry width="50" height="50" relative="1" as="geometry">
            <mxPoint x="1729" y="1697" as="sourcePoint" />
            <mxPoint x="1437" y="1656" as="targetPoint" />
            <Array as="points">
              <mxPoint x="1522" y="1720" />
            </Array>
          </mxGeometry>
        </mxCell>
        <mxCell id="n8mmKqbnI36Tv_IBKcBF-104" value="&#xa;&lt;span style=&quot;color: rgba(0, 0, 0, 0); font-family: monospace; font-size: 0px; font-style: normal; font-variant-ligatures: normal; font-variant-caps: normal; font-weight: 400; letter-spacing: normal; orphans: 2; text-align: start; text-indent: 0px; text-transform: none; widows: 2; word-spacing: 0px; -webkit-text-stroke-width: 0px; background-color: rgb(251, 251, 251); text-decoration-thickness: initial; text-decoration-style: initial; text-decoration-color: initial; float: none; display: inline !important;&quot;&gt;%3CmxGraphModel%3E%3Croot%3E%3CmxCell%20id%3D%220%22%2F%3E%3CmxCell%20id%3D%221%22%20parent%3D%220%22%2F%3E%3CmxCell%20id%3D%222%22%20value%3D%22%26%2310%3B%26lt%3Bspan%20style%3D%26quot%3Bcolor%3Aa %20rgba(0%2C%200%2C%200%2C%200)%3B%20font-family%3A%20monospace%3B%20font-size%3A%200px%3B%20font-style%3A%20normal%3B%20font-variant-ligatures%3A%20normal%3B%20font-variant-caps%3A%20normal%3B%20font-weight%3A%20400%3B%20letter-spacing%3A% 20normal%3B%20orphans%3A%202%3B%20text-align%3A%20start%3B%20text-indent%3A%200px%3B%20text-transform%3A%20none%3B%20widows%3A%202%3B%20word-spacing%3A%200px%3B%20-webkit-text-stroke-width%3A%200px%3B%20background-color%3A%20rgb(251%2C%20251%2C%20251)%3B%20text-decoration-thickness%3A%20initial%3B%20text-decoration-style%3A%20initial%3B%20text-decoration-color%3A%20initial%3B%20float%3A%20none%3B%20display%3A%20inline%20! important%3B%26quot%3B%26gt%3B%253CmxGraphModel%253E%253Croot%253E%253CmxCell%2520id%253D%25220%2522%252F%253E%253CmxCell%2520id%253D%25221%2522%2520parent%253D%25220%2522%252F%253E%253CmxCell%2520id. %253D%25222%2522%2520value%253D%2522%2522%2520style%253D%2522fontColor%253D%25230066CC%253BverticalAlign%253Dtop%253BverticalLabelPosition%253Dbottom%253BlabelPosition%253Dcenter%253Balign%253Dcenter%253Bhtml%253D1%253BfillColor%253D%2523FFFFFF% 253BstrokeColor%253D%2523000000%253BgradientColor%253Dnone%253BgradientDirection%253Dnorth%253BstrokeWidth%253D2%253Bshape%253Dmxgraph.%D1%81%D0%B5%D1%82%D1%8F%D1%85. %20radio_tower%253Brounded%253D1%253Bshadow%253D0%253Bcomic%253D0%253BlabelBackgroundColor%253Dnone%253B%2522%2520vertex%253D%25221%2522%2520parent%253D%25221%2522%253E%253CmxGeometry%2520x%253D%2522606%2522%2520y%253D%2522707D%2522%2520%253width%252255D%2522%2520%253height%2522100D%2522%2520%253as%2522D%2522geometry%252%253F%253E%252C%253FmxCell%253E%252C%253Froot%22E%20%3style%22D%3fontColor%230066D%3CC%3BverticalAlign%3Dtop% 3BverticalLabelPosition%3Dbottom%3BlabelPosition%3Dcenter%3Balign%3Dcenter%3Bhtml%1D3%3BfillColor%23D%3FFFFFF%3BstrokeColor%23000000D%3%3BgradientColor%3Dnone%3BgradientDirection%3Dnorth%3BstrokeWidth%2D3%3Bshape%3Dmxgraph.networks. radio_tower%3Brounded%1D3%3Bshadow%0D3%3Bcomic%0D3%3BlabelBackgroundColor%3Dnone%22B%20%3vertex%221D%22%20%3parent%221D%22%3%3E%20CmxGeometry%3x%221579D%22%20%3y%221540D%22%20%3width%2255D%22%20%3height%22100D%22%20%3as%22D%22geometry%2%3F%3E%2C%3FmxCell%3E%2C%3Froot%3E%2FmxGraphModel%3E" style="fontColor=#0066CC;verticalAlign=top;verticalLabelPosition=bottom;labelPosition=center;align=center;html=1;fillColor=#FFFFFF;strokeColor=#000000;gradientColor=none;gradientDirection=north;strokeWidth=2;shape=mxgraph.networks.radio_tower;rounded=1;shadow=0;comic=0;labelBackgroundColor=none;" parent="1" vertex="1">
          <mxGeometry x="1579" y="1540" width="55" height="100" as="geometry" />
        </mxCell>
        <mxCell id="n8mmKqbnI36Tv_IBKcBF-105" value="&#xa;&lt;span style=&quot;color: rgba(0, 0, 0, 0); font-family: monospace; font-size: 0px; font-style: normal; font-variant-ligatures: normal; font-variant-caps: normal; font-weight: 400; letter-spacing: normal; orphans: 2; text-align: start; text-indent: 0px; text-transform: none; widows: 2; word-spacing: 0px; -webkit-text-stroke-width: 0px; background-color: rgb(251, 251, 251); text-decoration-thickness: initial; text-decoration-style: initial; text-decoration-color: initial; float: none; display: inline !important;&quot;&gt;%3CmxGraphModel%3E%3Croot%3E%3CmxCell%20id%3D%220%22%2F%3E%3CmxCell%20id%3D%221%22%20parent%3D%220%22%2F%3E%3CmxCell%20id%3D%222%22%20value%3D%22%26%2310%3B%26lt%3Bspan%20style%3D%26quot%3Bcolor%3Aa %20rgba(0%2C%200%2C%200%2C%200)%3B%20font-family%3A%20monospace%3B%20font-size%3A%200px%3B%20font-style%3A%20normal%3B%20font-variant-ligatures%3A%20normal%3B%20font-variant-caps%3A%20normal%3B%20font-weight%3A%20400%3B%20letter-spacing%3A% 20normal%3B%20orphans%3A%202%3B%20text-align%3A%20start%3B%20text-indent%3A%200px%3B%20text-transform%3A%20none%3B%20widows%3A%202%3B%20word-spacing%3A%200px%3B%20-webkit-text-stroke-width%3A%200px%3B%20background-color%3A%20rgb(251%2C%20251%2C%20251)%3B%20text-decoration-thickness%3A%20initial%3B%20text-decoration-style%3A%20initial%3B%20text-decoration-color%3A%20initial%3B%20float%3A%20none%3B%20display%3A%20inline%20! important%3B%26quot%3B%26gt%3B%253CmxGraphModel%253E%253Croot%253E%253CmxCell%2520id%253D%25220%2522%252F%253E%253CmxCell%2520id%253D%25221%2522%2520parent%253D%25220%2522%252F%253E%253CmxCell%2520 id%253D%25222%2522%2520value%253D%2522%2522%2520style%253D%2522endArrow%253Dnone%253Bdashed%253D1%253Bhtml%253D1%253Brounded%253D0%253BfillColor%253D%2523dae8fc%253BstrokeColor%253D%25236c8ebf%253BexitX%253D0... 459%253BexitY%253D0.245%253BexitDx%253D0%253BexitDy%253D0%253BexitPerimeter%253D0%253BentryX%253D0.5%253BentryY%253D0. %2015%253BentryDx%253D0%253BentryDy%253D0%253BentryPerimeter%253D0%253BstrokeWidth%253D4%253B%2522%2520edge%253D%25221%2522%2520parent%253D%25221%2522%253E%253CmxGeometry%2520width%253D%252250%2522%2520height%253D%252250%2522%2520%253%25221% 2522относительный%2520D%253%2522%2522as%253D%20geometry%253%2520Ee%253%25221918CmxPoint%2522x%2520D%253%25221884%2522y%2520D%253%2522%2522as%252D%253sourcePoint%253%2520F%253E%25221092CmxPoint%2522x%2520D%253%25221955%2522y%2520D% 253%2522%2522as%252D%253targetPoint%253%252F%253E%253C%252FmxGeometry%253E%253C%25FmxCell%202E%253C%253%252Froot%253E%22C%20FmxGraphModel%3E%22%3style%3D%3endArrow%1Dnone%3Bdashed%3D1%3Bhtml%3D0%3Brounded%3D23%8BfillColor%3D%3dae236fc%8BstrokeColor%3D%3c0ebf%5BexitX%3D3...0%15BexitY%3D3.0%3BexitDx%3D0%3BexitDy%3D0%3BexitPerimeter%3D0%5BentryX%3D3.0%15BentryY%3D3. 0%3BentryDx%3D0%3BentryDy%3D0%3BentryPerimeter%3D4%3BstrokeWidth%22D20%3B%221%22edge%20D%3%221%22parent%3D%3%20%3E%2250CmxGeometry%22width%20D%3%2250%22height%20D%3%221%22relative%20D%3%22%22as%3D%3geometry%20%3Ee %221921CmxPoint%22x%20D%3%221875%22y%20D%3%22%22as%2D%3sourcePoint%3%20F%3E%221689CmxPoint%22x%20D%3%221805%22y%20D%3%22%22as%2D%3targetPoint%3%2F%3E%3C%2FmxGeometry%3E%3C%2FmxCell%3E" style="endArrow=none;dashed=1;html=1;rounded=0;fillColor=#dae8fc;strokeColor=#6c8ebf;exitX=0.5;exitY=0.15;exitDx=0;exitDy=0;exitPerimeter=0;entryX=0.5;entryY=0.15;entryDx=0;entryDy=0;entryPerimeter=0;strokeWidth=4;" parent="1" source="n8mmKqbnI36Tv_IBKcBF-50" target="n8mmKqbnI36Tv_IBKcBF-104" edge="1">
          <mxGeometry width="50" height="50" relative="1" as="geometry">
            <mxPoint x="1931" y="1885" as="sourcePoint" />
            <mxPoint x="1699" y="1815" as="targetPoint" />
          </mxGeometry>
        </mxCell>
        <mxCell id="n8mmKqbnI36Tv_IBKcBF-106" value="&#xa;&lt;span style=&quot;color: rgba(0, 0, 0, 0); font-family: monospace; font-size: 0px; font-style: normal; font-variant-ligatures: normal; font-variant-caps: normal; font-weight: 400; letter-spacing: normal; orphans: 2; text-align: start; text-indent: 0px; text-transform: none; widows: 2; word-spacing: 0px; -webkit-text-stroke-width: 0px; background-color: rgb(251, 251, 251); text-decoration-thickness: initial; text-decoration-style: initial; text-decoration-color: initial; float: none; display: inline !important;&quot;&gt;%3CmxGraphModel%3E%3Croot%3E%3CmxCell%20id%3D%220%22%2F%3E%3CmxCell%20id%3D%221%22%20parent%3D%220%22%2F%3E%3CmxCell%20id%3D%222%22%20value%3D%22%26%2310%3B%26lt%3Bspan%20style%3D%26quot%3Bcolor%3Aa %20rgba(0%2C%200%2C%200%2C%200)%3B%20font-family%3A%20monospace%3B%20font-size%3A%200px%3B%20font-style%3A%20normal%3B%20font-variant-ligatures%3A%20normal%3B%20font-variant-caps%3A%20normal%3B%20font-weight%3A%20400%3B%20letter-spacing%3A% 20normal%3B%20orphans%3A%202%3B%20text-align%3A%20start%3B%20text-indent%3A%200px%3B%20text-transform%3A%20none%3B%20widows%3A%202%3B%20word-spacing%3A%200px%3B%20-webkit-text-stroke-width%3A%200px%3B%20background-color%3A%20rgb(251%2C%20251%2C%20251)%3B%20text-decoration-thickness%3A%20initial%3B%20text-decoration-style%3A%20initial%3B%20text-decoration-color%3A%20initial%3B%20float%3A%20none%3B%20display%3A%20inline%20! important%3B%26quot%3B%26gt%3B%253CmxGraphModel%253E%253Croot%253E%253CmxCell%2520id%253D%25220%2522%252F%253E%253CmxCell%2520id%253D%25221%2522%2520parent%253D%25220%2522%252F%253E%253CmxCell%2520 id%253D%25222%2522%2520value%253D%2522%2522%2520style%253D%2522endArrow%253Dnone%253Bdashed%253D1%253Bhtml%253D1%253Brounded%253D0%253BfillColor%253D%2523dae8fc%253BstrokeColor%253D%25236c8ebf%253BexitX%253D0... 459%253BexitY%253D0.245%253BexitDx%253D0%253BexitDy%253D0%253BexitPerimeter%253D0%253BentryX%253D0.5%253BentryY%253D0. %2015%253BentryDx%253D0%253BentryDy%253D0%253BentryPerimeter%253D0%253BstrokeWidth%253D4%253B%2522%2520edge%253D%25221%2522%2520parent%253D%25221%2522%253E%253CmxGeometry%2520width%253D%252250%2522%2520height%253D%252250%2522%2520%253%25221% 2522относительный%2520D%253%2522%2522as%253D%20geometry%253%2520Ee%253%25221918CmxPoint%2522x%2520D%253%25221884%2522y%2520D%253%2522%2522as%252D%253sourcePoint%253%2520F%253E%25221092CmxPoint%2522x%2520D%253%25221955%2522y%2520D% 253%2522%2522as%252D%253targetPoint%253%252F%253E%253C%252FmxGeometry%253E%253C%25FmxCell%202E%253C%253%252Froot%253E%22C%20FmxGraphModel%3E%22%3style%3D%3endArrow%1Dnone%3Bdashed%3D1%3Bhtml%3D0%3Brounded%3D23%8BfillColor%3D%3dae236fc%8BstrokeColor%3D%3c0ebf%5BexitX%3D3...0%15BexitY%3D3.0%3BexitDx%3D0%3BexitDy%3D0%3BexitPerimeter%3D0%5BentryX%3D3.0%15BentryY%3D3. 0%3BentryDx%3D0%3BentryDy%3D0%3BentryPerimeter%3D4%3BstrokeWidth%22D20%3B%221%22edge%20D%3%221%22parent%3D%3%20%3E%2250CmxGeometry%22width%20D%3%2250%22height%20D%3%221%22relative%20D%3%22%22as%3D%3geometry%20%3Ee %221921CmxPoint%22x%20D%3%221875%22y%20D%3%22%22as%2D%3sourcePoint%3%20F%3E%221689CmxPoint%22x%20D%3%221805%22y%20D%3%22%22as%2D%3targetPoint%3%2F%3E%3C%2FmxGeometry%3E%3C%2FmxCell%3E" style="endArrow=none;dashed=1;html=1;rounded=0;fillColor=#dae8fc;strokeColor=#6c8ebf;exitX=0.653;exitY=0.031;exitDx=0;exitDy=0;exitPerimeter=0;entryX=0.5;entryY=0.15;entryDx=0;entryDy=0;entryPerimeter=0;strokeWidth=4;" parent="1" source="n8mmKqbnI36Tv_IBKcBF-8" edge="1">
          <mxGeometry width="50" height="50" relative="1" as="geometry">
            <mxPoint x="1699" y="1815" as="sourcePoint" />
            <mxPoint x="1617" y="1565" as="targetPoint" />
          </mxGeometry>
        </mxCell>
        <mxCell id="n8mmKqbnI36Tv_IBKcBF-107" value="&#xa;&lt;span style=&quot;color: rgba(0, 0, 0, 0); font-family: monospace; font-size: 0px; font-style: normal; font-variant-ligatures: normal; font-variant-caps: normal; font-weight: 400; letter-spacing: normal; orphans: 2; text-align: start; text-indent: 0px; text-transform: none; widows: 2; word-spacing: 0px; -webkit-text-stroke-width: 0px; background-color: rgb(251, 251, 251); text-decoration-thickness: initial; text-decoration-style: initial; text-decoration-color: initial; float: none; display: inline !important;&quot;&gt;%3CmxGraphModel%3E%3Croot%3E%3CmxCell%20id%3D%220%22%2F%3E%3CmxCell%20id%3D%221%22%20parent%3D%220%22%2F%3E%3CmxCell%20id%3D%222%22%20value%3D%22%26%2310%3B%26lt%3Bspan%20style%3D%26quot%3Bcolor%3Aa %20rgba(0%2C%200%2C%200%2C%200)%3B%20font-family%3A%20monospace%3B%20font-size%3A%200px%3B%20font-style%3A%20normal%3B%20font-variant-ligatures%3A%20normal%3B%20font-variant-caps%3A%20normal%3B%20font-weight%3A%20400%3B%20letter-spacing%3A% 20normal%3B%20orphans%3A%202%3B%20text-align%3A%20start%3B%20text-indent%3A%200px%3B%20text-transform%3A%20none%3B%20widows%3A%202%3B%20word-spacing%3A%200px%3B%20-webkit-text-stroke-width%3A%200px%3B%20background-color%3A%20rgb(251%2C%20251%2C%20251)%3B%20text-decoration-thickness%3A%20initial%3B%20text-decoration-style%3A%20initial%3B%20text-decoration-color%3A%20initial%3B%20float%3A%20none%3B%20display%3A%20inline%20! important%3B%26quot%3B%26gt%3B%253CmxGraphModel%253E%253Croot%253E%253CmxCell%2520id%253D%25220%2522%252F%253E%253CmxCell%2520id%253D%25221%2522%2520parent%253D%25220%2522%252F%253E%253CmxCell%2520id. %253D%25222%2522%2520value%253D%2522%2522%2520style%253D%2522fontColor%253D%25230066CC%253BverticalAlign%253Dtop%253BverticalLabelPosition%253Dbottom%253BlabelPosition%253Dcenter%253Balign%253Dcenter%253Bhtml%253D1%253BfillColor%253D%2523FFFFFF% 253BstrokeColor%253D%2523000000%253BgradientColor%253Dnone%253BgradientDirection%253Dnorth%253BstrokeWidth%253D2%253Bshape%253Dmxgraph.%D1%81%D0%B5%D1%82%D1%8F%D1%85. %20radio_tower%253Brounded%253D1%253Bshadow%253D0%253Bcomic%253D0%253BlabelBackgroundColor%253Dnone%253B%2522%2520vertex%253D%25221%2522%2520parent%253D%25221%2522%253E%253CmxGeometry%2520x%253D%2522606%2522%2520y%253D%2522707D%2522%2520%253width%252255D%2522%2520%253height%2522100D%2522%2520%253as%2522D%2522geometry%252%253F%253E%252C%253FmxCell%253E%252C%253Froot%22E%20%3style%22D%3fontColor%230066D%3CC%3BverticalAlign%3Dtop% 3BverticalLabelPosition%3Dbottom%3BlabelPosition%3Dcenter%3Balign%3Dcenter%3Bhtml%1D3%3BfillColor%23D%3FFFFFF%3BstrokeColor%23000000D%3%3BgradientColor%3Dnone%3BgradientDirection%3Dnorth%3BstrokeWidth%2D3%3Bshape%3Dmxgraph.networks. radio_tower%3Brounded%1D3%3Bshadow%0D3%3Bcomic%0D3%3BlabelBackgroundColor%3Dnone%22B%20%3vertex%221D%22%20%3parent%221D%22%3%3E%20CmxGeometry%3x%221579D%22%20%3y%221540D%22%20%3width%2255D%22%20%3height%22100D%22%20%3as%22D%22geometry%2%3F%3E%2C%3FmxCell%3E%2C%3Froot%3E%2FmxGraphModel%3E" style="fontColor=#0066CC;verticalAlign=top;verticalLabelPosition=bottom;labelPosition=center;align=center;html=1;fillColor=#FFFFFF;strokeColor=#000000;gradientColor=none;gradientDirection=north;strokeWidth=2;shape=mxgraph.networks.radio_tower;rounded=1;shadow=0;comic=0;labelBackgroundColor=none;" parent="1" vertex="1">
          <mxGeometry x="1990" y="1510" width="55" height="100" as="geometry" />
        </mxCell>
        <mxCell id="n8mmKqbnI36Tv_IBKcBF-108" value="&#xa;&lt;span style=&quot;color: rgba(0, 0, 0, 0); font-family: monospace; font-size: 0px; font-style: normal; font-variant-ligatures: normal; font-variant-caps: normal; font-weight: 400; letter-spacing: normal; orphans: 2; text-align: start; text-indent: 0px; text-transform: none; widows: 2; word-spacing: 0px; -webkit-text-stroke-width: 0px; background-color: rgb(251, 251, 251); text-decoration-thickness: initial; text-decoration-style: initial; text-decoration-color: initial; float: none; display: inline !important;&quot;&gt;%3CmxGraphModel%3E%3Croot%3E%3CmxCell%20id%3D%220%22%2F%3E%3CmxCell%20id%3D%221%22%20parent%3D%220%22%2F%3E%3CmxCell%20id%3D%222%22%20value%3D%22%26%2310%3B%26lt%3Bspan%20style%3D%26quot%3Bcolor%3Aa %20rgba(0%2C%200%2C%200%2C%200)%3B%20font-family%3A%20monospace%3B%20font-size%3A%200px%3B%20font-style%3A%20normal%3B%20font-variant-ligatures%3A%20normal%3B%20font-variant-caps%3A%20normal%3B%20font-weight%3A%20400%3B%20letter-spacing%3A% 20normal%3B%20orphans%3A%202%3B%20text-align%3A%20start%3B%20text-indent%3A%200px%3B%20text-transform%3A%20none%3B%20widows%3A%202%3B%20word-spacing%3A%200px%3B%20-webkit-text-stroke-width%3A%200px%3B%20background-color%3A%20rgb(251%2C%20251%2C%20251)%3B%20text-decoration-thickness%3A%20initial%3B%20text-decoration-style%3A%20initial%3B%20text-decoration-color%3A%20initial%3B%20float%3A%20none%3B%20display%3A%20inline%20! important%3B%26quot%3B%26gt%3B%253CmxGraphModel%253E%253Croot%253E%253CmxCell%2520id%253D%25220%2522%252F%253E%253CmxCell%2520id%253D%25221%2522%2520parent%253D%25220%2522%252F%253E%253CmxCell%2520 id%253D%25222%2522%2520value%253D%2522%2522%2520style%253D%2522endArrow%253Dnone%253Bdashed%253D1%253Bhtml%253D1%253Brounded%253D0%253BfillColor%253D%2523dae8fc%253BstrokeColor%253D%25236c8ebf%253BexitX%253D0... 459%253BexitY%253D0.245%253BexitDx%253D0%253BexitDy%253D0%253BexitPerimeter%253D0%253BentryX%253D0.5%253BentryY%253D0. %2015%253BentryDx%253D0%253BentryDy%253D0%253BentryPerimeter%253D0%253BstrokeWidth%253D4%253B%2522%2520edge%253D%25221%2522%2520parent%253D%25221%2522%253E%253CmxGeometry%2520width%253D%252250%2522%2520height%253D%252250%2522%2520%253%25221% 2522относительный%2520D%253%2522%2522as%253D%20geometry%253%2520Ee%253%25221918CmxPoint%2522x%2520D%253%25221884%2522y%2520D%253%2522%2522as%252D%253sourcePoint%253%2520F%253E%25221092CmxPoint%2522x%2520D%253%25221955%2522y%2520D% 253%2522%2522as%252D%253targetPoint%253%252F%253E%253C%252FmxGeometry%253E%253C%25FmxCell%202E%253C%253%252Froot%253E%22C%20FmxGraphModel%3E%22%3style%3D%3endArrow%1Dnone%3Bdashed%3D1%3Bhtml%3D0%3Brounded%3D23%8BfillColor%3D%3dae236fc%8BstrokeColor%3D%3c0ebf%5BexitX%3D3...0%15BexitY%3D3.0%3BexitDx%3D0%3BexitDy%3D0%3BexitPerimeter%3D0%5BentryX%3D3.0%15BentryY%3D3. 0%3BentryDx%3D0%3BentryDy%3D0%3BentryPerimeter%3D4%3BstrokeWidth%22D20%3B%221%22edge%20D%3%221%22parent%3D%3%20%3E%2250CmxGeometry%22width%20D%3%2250%22height%20D%3%221%22relative%20D%3%22%22as%3D%3geometry%20%3Ee %222408CmxPoint%22x%20D%3%221755%22y%20D%3%22%22as%2D%3sourcePoint%3%20F%3E%221921CmxPoint%22x%20D%3%221875%22y%20D%3%22%22as%2D%3targetPoint%3%2F%3E%3C%2FmxGeometry%3E%3C%2FmxCell%3E" style="endArrow=none;dashed=1;html=1;rounded=0;fillColor=#dae8fc;strokeColor=#6c8ebf;exitX=0.5;exitY=0.15;exitDx=0;exitDy=0;exitPerimeter=0;entryX=0.5;entryY=0.15;entryDx=0;entryDy=0;entryPerimeter=0;strokeWidth=4;" parent="1" source="n8mmKqbnI36Tv_IBKcBF-107" target="n8mmKqbnI36Tv_IBKcBF-104" edge="1">
          <mxGeometry width="50" height="50" relative="1" as="geometry">
            <mxPoint x="2418" y="1765" as="sourcePoint" />
            <mxPoint x="1931" y="1885" as="targetPoint" />
          </mxGeometry>
        </mxCell>
        <mxCell id="n8mmKqbnI36Tv_IBKcBF-109" value="&#xa;&lt;span style=&quot;color: rgba(0, 0, 0, 0); font-family: monospace; font-size: 0px; font-style: normal; font-variant-ligatures: normal; font-variant-caps: normal; font-weight: 400; letter-spacing: normal; orphans: 2; text-align: start; text-indent: 0px; text-transform: none; widows: 2; word-spacing: 0px; -webkit-text-stroke-width: 0px; background-color: rgb(251, 251, 251); text-decoration-thickness: initial; text-decoration-style: initial; text-decoration-color: initial; float: none; display: inline !important;&quot;&gt;%3CmxGraphModel%3E%3Croot%3E%3CmxCell%20id%3D%220%22%2F%3E%3CmxCell%20id%3D%221%22%20parent%3D%220%22%2F%3E%3CmxCell%20id%3D%222%22%20value%3D%22%26%2310%3B%26lt%3Bspan%20style%3D%26quot%3Bcolor%3Aa %20rgba(0%2C%200%2C%200%2C%200)%3B%20font-family%3A%20monospace%3B%20font-size%3A%200px%3B%20font-style%3A%20normal%3B%20font-variant-ligatures%3A%20normal%3B%20font-variant-caps%3A%20normal%3B%20font-weight%3A%20400%3B%20letter-spacing%3A% 20normal%3B%20orphans%3A%202%3B%20text-align%3A%20start%3B%20text-indent%3A%200px%3B%20text-transform%3A%20none%3B%20widows%3A%202%3B%20word-spacing%3A%200px%3B%20-webkit-text-stroke-width%3A%200px%3B%20background-color%3A%20rgb(251%2C%20251%2C%20251)%3B%20text-decoration-thickness%3A%20initial%3B%20text-decoration-style%3A%20initial%3B%20text-decoration-color%3A%20initial%3B%20float%3A%20none%3B%20display%3A%20inline%20! important%3B%26quot%3B%26gt%3B%253CmxGraphModel%253E%253Croot%253E%253CmxCell%2520id%253D%25220%2522%252F%253E%253CmxCell%2520id%253D%25221%2522%2520parent%253D%25220%2522%252F%253E%253CmxCell%2520 id%253D%25222%2522%2520value%253D%2522%2522%2520style%253D%2522endArrow%253Dnone%253Bdashed%253D1%253Bhtml%253D1%253Brounded%253D0%253BfillColor%253D%2523dae8fc%253BstrokeColor%253D%25236c8ebf%253BexitX%253D0... 459%253BexitY%253D0.245%253BexitDx%253D0%253BexitDy%253D0%253BexitPerimeter%253D0%253BentryX%253D0.5%253BentryY%253D0. %2015%253BentryDx%253D0%253BentryDy%253D0%253BentryPerimeter%253D0%253BstrokeWidth%253D4%253B%2522%2520edge%253D%25221%2522%2520parent%253D%25221%2522%253E%253CmxGeometry%2520width%253D%252250%2522%2520height%253D%252250%2522%2520%253%25221% 2522относительный%2520D%253%2522%2522as%253D%20geometry%253%2520Ee%253%25221918CmxPoint%2522x%2520D%253%25221884%2522y%2520D%253%2522%2522as%252D%253sourcePoint%253%2520F%253E%25221092CmxPoint%2522x%2520D%253%25221955%2522y%2520D% 253%2522%2522as%252D%253targetPoint%253%252F%253E%253C%252FmxGeometry%253E%253C%25FmxCell%202E%253C%253%252Froot%253E%22C%20FmxGraphModel%3E%22%3style%3D%3endArrow%1Dnone%3Bdashed%3D1%3Bhtml%3D0%3Brounded%3D23%8BfillColor%3D%3dae236fc%8BstrokeColor%3D%3c0ebf%5BexitX%3D3...0%15BexitY%3D3.0%3BexitDx%3D0%3BexitDy%3D0%3BexitPerimeter%3D0%5BentryX%3D3.0%15BentryY%3D3. 0%3BentryDx%3D0%3BentryDy%3D0%3BentryPerimeter%3D4%3BstrokeWidth%22D20%3B%221%22edge%20D%3%221%22parent%3D%3%20%3E%2250CmxGeometry%22width%20D%3%2250%22height%20D%3%221%22relative%20D%3%22%22as%3D%3geometry%20%3Ee %222408CmxPoint%22x%20D%3%221755%22y%20D%3%22%22as%2D%3sourcePoint%3%20F%3E%221921CmxPoint%22x%20D%3%221875%22y%20D%3%22%22as%2D%3targetPoint%3%2F%3E%3C%2FmxGeometry%3E%3C%2FmxCell%3E" style="endArrow=none;dashed=1;html=1;rounded=0;fillColor=#dae8fc;strokeColor=#6c8ebf;exitX=0.22;exitY=0;exitDx=0;exitDy=0;exitPerimeter=0;entryX=0.5;entryY=0.15;entryDx=0;entryDy=0;entryPerimeter=0;strokeWidth=4;" parent="1" source="n8mmKqbnI36Tv_IBKcBF-22" target="n8mmKqbnI36Tv_IBKcBF-107" edge="1">
          <mxGeometry width="50" height="50" relative="1" as="geometry">
            <mxPoint x="2028" y="1535" as="sourcePoint" />
            <mxPoint x="1617" y="1565" as="targetPoint" />
          </mxGeometry>
        </mxCell>
        <mxCell id="n8mmKqbnI36Tv_IBKcBF-110" value="&#xa;&lt;span style=&quot;color: rgba(0, 0, 0, 0); font-family: monospace; font-size: 0px; font-style: normal; font-variant-ligatures: normal; font-variant-caps: normal; font-weight: 400; letter-spacing: normal; orphans: 2; text-align: start; text-indent: 0px; text-transform: none; widows: 2; word-spacing: 0px; -webkit-text-stroke-width: 0px; background-color: rgb(251, 251, 251); text-decoration-thickness: initial; text-decoration-style: initial; text-decoration-color: initial; float: none; display: inline !important;&quot;&gt;%3CmxGraphModel%3E%3Croot%3E%3CmxCell%20id%3D%220%22%2F%3E%3CmxCell%20id%3D%221%22%20parent%3D%220%22%2F%3E%3CmxCell%20id%3D%222%22%20value%3D%22%26%2310%3B%26lt%3Bspan%20style%3D%26quot%3Bcolor%3Aa %20rgba(0%2C%200%2C%200%2C%200)%3B%20font-family%3A%20monospace%3B%20font-size%3A%200px%3B%20font-style%3A%20normal%3B%20font-variant-ligatures%3A%20normal%3B%20font-variant-caps%3A%20normal%3B%20font-weight%3A%20400%3B%20letter-spacing%3A% 20normal%3B%20orphans%3A%202%3B%20text-align%3A%20start%3B%20text-indent%3A%200px%3B%20text-transform%3A%20none%3B%20widows%3A%202%3B%20word-spacing%3A%200px%3B%20-webkit-text-stroke-width%3A%200px%3B%20background-color%3A%20rgb(251%2C%20251%2C%20251)%3B%20text-decoration-thickness%3A%20initial%3B%20text-decoration-style%3A%20initial%3B%20text-decoration-color%3A%20initial%3B%20float%3A%20none%3B%20display%3A%20inline%20! important%3B%26quot%3B%26gt%3B%253CmxGraphModel%253E%253Croot%253E%253CmxCell%2520id%253D%25220%2522%252F%253E%253CmxCell%2520id%253D%25221%2522%2520parent%253D%25220%2522%252F%253E%253CmxCell%2520CmxCell 253id%25222D%2522%2520%253value%2522D%2522%2520%253style%2522D%253endArrow%253Dnone%253Bhtml%1D253%253Brounded%0D253%253BstrokeWidth%7D253%253BstrokeColor%2523000099D%253%253BexitX%0D109.253%253BexitY%0D907.253%253BexitDx%0D253%253BexitDy%0D253% 253BexitPerimeter%0D253%253BentryX%0D982.253%253BentryY%0D20895. %253%253BentryDx%0D253%253BentryDy%0D253%253BentryPerimeter%0D253%2522B%2520%253edge%25221D%2522%2520%253parent%25221D%2522%253%253E%2520CmxGeometry%253width%252250D%2522%2520%253height%252250D%2522%2520%253%25221relative%2522D%2520 %253%2522as%2522D%253geometry%253%2520E%20CmxPoint%253xxPoint%2522662%2522D%2520%253%25222131y%2522D%2520%253%2522as%2522D%252sourcePoint%253%253F%2520E%253CmxPoint%2522293x%2522D%2520%253%25222200y%2522D%2520%253%2522as% 2522D%252targetPoint%253%253F%252E%253C%253FmxGeometry%252E%253C%253FmxCell%252E%253C%25Froot%203E%252%253C%22FmxGraphModel%20E%3%22style%3D%3endArrow%3Dnone%1Bhtml%3D3%0Brounded%3D3%7BstrokeWidth%3D3%23000099BstrokeColor%3D%3%0BexitX%09D3.3%1BexitY%3D3%0BexitDx%3D3%0BexitDy%3D3%0BexitPerimeter%3D3%0BentryX%03D3. 3%1BentryY%3D3%0BentryDx%3D3%0BentryDy%3D3%0BentryPerimeter%3D22%20B%3%221edge%22D%20%3%221parent%22D%3%3%20E%3CmxGeometry%2250width%22D%20%3%2250height%22D%20%3%221relative%22D%20%3%22as%22D%3geometry%3%20E%3CmxPoint%22919x%22D%20%3%221300y%22D%20%3%22as%22D%2sourcePoint%3%3F%20E%3CmxPoint%22656x%22D%20%3%221275y%5D%22..20%3.22%22%2as%3D%3targetPoint%2%3F%3E%2C%3FmxGeometry%3E%2C%3FmxCell%3E" style="endArrow=none;html=1;rounded=0;strokeWidth=7;strokeColor=#000099;exitX=0.5;exitY=1;exitDx=0;exitDy=0;exitPerimeter=0;entryX=0.91;entryY=1;entryDx=0;entryDy=0;entryPerimeter=0;" parent="1" source="n8mmKqbnI36Tv_IBKcBF-7" target="n8mmKqbnI36Tv_IBKcBF-53" edge="1">
          <mxGeometry width="50" height="50" relative="1" as="geometry">
            <mxPoint x="929" y="1310" as="sourcePoint" />
            <mxPoint x="666" y="1285.5" as="targetPoint" />
          </mxGeometry>
        </mxCell>
        <mxCell id="n8mmKqbnI36Tv_IBKcBF-111" value="&#xa;&lt;span style=&quot;color: rgba(0, 0, 0, 0); font-family: monospace; font-size: 0px; font-style: normal; font-variant-ligatures: normal; font-variant-caps: normal; font-weight: 400; letter-spacing: normal; orphans: 2; text-align: start; text-indent: 0px; text-transform: none; widows: 2; word-spacing: 0px; -webkit-text-stroke-width: 0px; background-color: rgb(251, 251, 251); text-decoration-thickness: initial; text-decoration-style: initial; text-decoration-color: initial; float: none; display: inline !important;&quot;&gt;%3CmxGraphModel%3E%3Croot%3E%3CmxCell%20id%3D%220%22%2F%3E%3CmxCell%20id%3D%221%22%20parent%3D%220%22%2F%3E%3CmxCell%20id%3D%222%22%20value%3D%22%22%20style%3D%22endArrow%3Dnone%3Bhtml%3D1%3Brounded%3D0%3BstrokeColor%3D%23FF0080%3BstrokeWidth%3D7%3BentryX%3D-0.041%3BentryY%3D0. 848%3BentryDx%3D0%3BentryDy%3D0%3BentryPerimeter%3D0%3B%22%20edge%3D%221%22%20parent%3D%221%22%3E%3CmxGeometry%20width%3D%2250%22%20height%3D%2250%22%20relative%3D%221%22%20as%3D%22geometry%22%3E%3CmxPoint%20CmxPoint 3x%221664D%22%20%3y%221780D%22%20%3as%22D%22sourcePoint%2%3F%3E%20CmxPoint%3x%222231D%22%20%3y%221775D%22%20%3as%22D%22targetPoint%2%3F%3E%2C%3FmxGeometry%3E%2C%3FmxCell%3E%2C%3Froot%3E" style="endArrow=none;html=1;rounded=0;strokeColor=#FF0080;strokeWidth=7;" parent="1" edge="1">
          <mxGeometry width="50" height="50" relative="1" as="geometry">
            <mxPoint x="1320" y="2160" as="sourcePoint" />
            <mxPoint x="1440" y="2160" as="targetPoint" />
          </mxGeometry>
        </mxCell>
        <mxCell id="n8mmKqbnI36Tv_IBKcBF-114" value="&#xa;&lt;span style=&quot;color: rgba(0, 0, 0, 0); font-family: monospace; font-size: 0px; font-style: normal; font-variant-ligatures: normal; font-variant-caps: normal; font-weight: 400; letter-spacing: normal; orphans: 2; text-align: start; text-indent: 0px; text-transform: none; widows: 2; word-spacing: 0px; -webkit-text-stroke-width: 0px; background-color: rgb(251, 251, 251); text-decoration-thickness: initial; text-decoration-style: initial; text-decoration-color: initial; float: none; display: inline !important;&quot;&gt;%3CmxGraphModel%3E%3Croot%3E%3CmxCell%20id%3D%220%22%2F%3E%3CmxCell%20id%3D%221%22%20parent%3D%220%22%2F%3E%3CmxCell%20id%3D%222%22%20value%3D%22%26%2310%3B%26lt%3Bspan%20style%3D%26quot%3Bcolor%3Aa %20rgba(0%2C%200%2C%200%2C%200)%3B%20font-family%3A%20monospace%3B%20font-size%3A%200px%3B%20font-style%3A%20normal%3B%20font-variant-ligatures%3A%20normal%3B%20font-variant-caps%3A%20normal%3B%20font-weight%3A%20400%3B%20letter-spacing%3A% 20normal%3B%20orphans%3A%202%3B%20text-align%3A%20start%3B%20text-indent%3A%200px%3B%20text-transform%3A%20none%3B%20widows%3A%202%3B%20word-spacing%3A%200px%3B%20-webkit-text-stroke-width%3A%200px%3B%20background-color%3A%20rgb(251%2C%20251%2C%20251)%3B%20text-decoration-thickness%3A%20initial%3B%20text-decoration-style%3A%20initial%3B%20text-decoration-color%3A%20initial%3B%20float%3A%20none%3B%20display%3A%20inline%20! important%3B%26quot%3B%26gt%3B%253CmxGraphModel%253E%253Croot%253E%253CmxCell%2520id%253D%25220%2522%252F%253E%253CmxCell%2520id%253D%25221%2522%2520parent%253D%25220%2522%252F%253E%22%20style%3D%22endArrow%3Dnone%3Bhtml%3D1%3Brounded%3D0%3BstrokeWidth%3D7%3BstrokeColor%3D%23000099%3BexitX%3D0.972%3BexitY%3D0.717%3BexitDx%3D0%3BexitDy%3D0%3BexitPerimeter%3D0%3BentryX%3D0.042%3BentryY%3D0. 3%3BentryDx%3D0%3BentryDy%3D0%3BentryPerimeter%3D0%3B%22%20edge%3D%221%22%20parent%3D%221%22%3E%3CmxGeometry%20width%3D%2250%22%20height%3D%2250%22%20relative%3D%221%22%20as%3D%22geometry%22%3E%3CmxPoint%20xxPoint %3D%221192%22%20y%3D%221762%22%20as%3D%22sourcePoint%22%2F%3E%3CmxPoint%20x%3D%221470%22%20y%3D%221820%22%20as%3D%22targetPoint%22%2F%3E%3C%2FmxGeometry%3E%3C%2FmxCell%3E%3C%2Froot%3E% 3C%2FmxGraphModel%3E" style="endArrow=none;html=1;rounded=0;strokeWidth=7;strokeColor=#000099;" parent="1" edge="1">
          <mxGeometry width="50" height="50" relative="1" as="geometry">
            <mxPoint x="1320" y="2240" as="sourcePoint" />
            <mxPoint x="1440" y="2240" as="targetPoint" />
          </mxGeometry>
        </mxCell>
        <mxCell id="n8mmKqbnI36Tv_IBKcBF-115" value="" style="fontColor=#0066CC;verticalAlign=top;verticalLabelPosition=bottom;labelPosition=center;align=center;html=1;outlineConnect=0;fillColor=#CCCCCC;strokeColor=#6881B3;gradientColor=none;gradientDirection=north;strokeWidth=2;shape=mxgraph.networks.comm_link;rotation=90;" parent="1" vertex="1">
          <mxGeometry x="1364" y="2260" width="30" height="120" as="geometry" />
        </mxCell>
        <mxCell id="n8mmKqbnI36Tv_IBKcBF-116" value="&lt;span style=&quot;color: rgba(0, 0, 0, 0); font-family: monospace; font-size: 0px; font-style: normal; font-variant-ligatures: normal; font-variant-caps: normal; font-weight: 400; letter-spacing: normal; orphans: 2; text-align: start; text-indent: 0px; text-transform: none; widows: 2; word-spacing: 0px; -webkit-text-stroke-width: 0px; background-color: rgb(251, 251, 251); text-decoration-thickness: initial; text-decoration-style: initial; text-decoration-color: initial; float: none; display: inline !important;&quot;&gt;%3CmxGraphModel%3E%3Croot%3E%3CmxCell%20id%3D%220%22%2F%3E%3CmxCell%20id%3D%221%22%20parent%3D%220%22%2F%3E%3CmxCell%20id%3D%222%22%20value%3D%22%26%2310%3B%26lt%3Bspan%20style%3D%26quot%3Bcolor%3Aa %20rgba(0%2C%200%2C%200%2C%200)%3B%20font-family%3A%20monospace%3B%20font-size%3A%200px%3B%20font-style%3A%20normal%3B%20font-variant-ligatures%3A%20normal%3B%20font-variant-caps%3A%20normal%3B%20font-weight%3A%20400%3B%20letter-spacing%3A% 20normal%3B%20orphans%3A%202%3B%20text-align%3A%20start%3B%20text-indent%3A%200px%3B%20text-transform%3A%20none%3B%20widows%3A%202%3B%20word-spacing%3A%200px%3B%20-webkit-text-stroke-width%3A%200px%3B%20background-color%3A%20rgb(251%2C%20251%2C%20251)%3B%20text-decoration-thickness%3A%20initial%3B%20text-decoration-style%3A%20initial%3B%20text-decoration-color%3A%20initial%3B%20float%3A%20none%3B%20display%3A%20inline%20! important%3B%26quot%3B%26gt%3B%253CmxGraphModel%253E%253Croot%253E%253CmxCell%2520id%253D%25220%2522%252F%253E%253CmxCell%2520id%253D%25221%2522%2520parent%253D%25220%2522%252F%253E%253CmxCell%2520 id%253D%25222%2522%2520value%253D%2522%2522%2520style%253D%2522endArrow%253Dnone%253Bdashed%253D1%253Bhtml%253D1%253Brounded%253D0%253BfillColor%253D%2523dae8fc%253BstrokeColor%253D%25236c8ebf%253BexitX%253D0... 459%253BexitY%253D0.245%253BexitDx%253D0%253BexitDy%253D0%253BexitPerimeter%253D0%253BentryX%253D0.5%253BentryY%253D0. %2015%253BentryDx%253D0%253BentryDy%253D0%253BentryPerimeter%253D0%253BstrokeWidth%253D4%253B%2522%2520edge%253D%25221%2522%2520parent%253D%25221%2522%253E%253CmxGeometry%2520width%253D%252250%2522%2520height%253D%252250%2522%2520%253%25221% 2522относительный%2520D%253%2522%2522as%253D%20geometry%253%2520Ee%253%25221918CmxPoint%2522x%2520D%253%25221884%2522y%2520D%253%2522%2522as%252D%253sourcePoint%253%2520F%253E%25221092CmxPoint%2522x%2520D%253%25221955%2522y%2520D% 253%2522%2522as%252D%253targetPoint%253%252F%253E%253C%252FmxGeometry%253E%253C%25FmxCell%202E%253C%253%252Froot%253E%22C%20FmxGraphModel%3E%22%3style%3D%3endArrow%1Dnone%3Bdashed%3D1%3Bhtml%3D0%3Brounded%3D23%8BfillColor%3D%3dae236fc%8BstrokeColor%3D%3c0ebf%5BexitX%3D3...0%15BexitY%3D3.0%3BexitDx%3D0%3BexitDy%3D0%3BexitPerimeter%3D0%5BentryX%3D3.0%15BentryY%3D3. 0%3BentryDx%3D0%3BentryDy%3D0%3BentryPerimeter%3D4%3BstrokeWidth%22D20%3B%221%22edge%20D%3%221%22parent%3D%3%20%3E%2250CmxGeometry%22width%20D%3%2250%22height%20D%3%221%22relative%20D%3%22%22as%3D%3geometry%20%3Ee %221328CmxPoint%22x%20D%3%221825%22y%20D%3%22%22as%2D%3sourcePoint%3%20F%3E%221092CmxPoint%22x%20D%3%221955%22y%20D%3%22%22as%2D%3targetPoint%3%2F%3E%3C%2FmxGeometry%3E%3C%2FmxCell%3E&lt;/span&gt;" style="text;whiteSpace=wrap;html=1;" parent="1" vertex="1">
          <mxGeometry x="1320" y="2020" width="30" height="40" as="geometry" />
        </mxCell>
        <mxCell id="n8mmKqbnI36Tv_IBKcBF-118" value="" style="endArrow=none;dashed=1;html=1;rounded=0;fillColor=#dae8fc;strokeColor=#6c8ebf;strokeWidth=4;" parent="1" edge="1">
          <mxGeometry width="50" height="50" relative="1" as="geometry">
            <mxPoint x="1440" y="2400" as="sourcePoint" />
            <mxPoint x="1320" y="2400" as="targetPoint" />
          </mxGeometry>
        </mxCell>
        <mxCell id="n8mmKqbnI36Tv_IBKcBF-119" value="&lt;font style=&quot;&quot;&gt;&lt;font style=&quot;font-size: 48px;&quot;&gt;Проводное соединение (ВОЛС)&lt;/font&gt;&lt;br&gt;&lt;/font&gt;" style="text;html=1;align=center;verticalAlign=middle;resizable=0;points=[];autosize=1;strokeColor=none;fillColor=none;" parent="1" vertex="1">
          <mxGeometry x="1452" y="2125" width="730" height="70" as="geometry" />
        </mxCell>
        <mxCell id="n8mmKqbnI36Tv_IBKcBF-120" value="&lt;font style=&quot;&quot;&gt;&lt;font style=&quot;font-size: 48px;&quot;&gt;Спутниковый канал&lt;/font&gt;&lt;br&gt;&lt;/font&gt;" style="text;html=1;align=center;verticalAlign=middle;resizable=0;points=[];autosize=1;strokeColor=none;fillColor=none;" parent="1" vertex="1">
          <mxGeometry x="1456" y="2280" width="460" height="70" as="geometry" />
        </mxCell>
        <mxCell id="n8mmKqbnI36Tv_IBKcBF-121" value="&lt;font style=&quot;&quot;&gt;&lt;font style=&quot;font-size: 48px;&quot;&gt;Радиорелейный канал&lt;/font&gt;&lt;br&gt;&lt;/font&gt;" style="text;html=1;align=center;verticalAlign=middle;resizable=0;points=[];autosize=1;strokeColor=none;fillColor=none;" parent="1" vertex="1">
          <mxGeometry x="1452" y="2365" width="530" height="70" as="geometry" />
        </mxCell>
        <mxCell id="n8mmKqbnI36Tv_IBKcBF-122" value="&lt;font style=&quot;&quot;&gt;&lt;font style=&quot;font-size: 48px;&quot;&gt;Проводное соединение (Медный&lt;span style=&quot;white-space: pre;&quot;&gt; &lt;/span&gt;кабель)&lt;/font&gt;&lt;br&gt;&lt;/font&gt;" style="text;html=1;align=center;verticalAlign=middle;resizable=0;points=[];autosize=1;strokeColor=none;fillColor=none;" parent="1" vertex="1">
          <mxGeometry x="1455" y="2205" width="940" height="70" as="geometry" />
        </mxCell>
      </root>
    </mxGraphModel>
  </diagram>
</mxfile>
